<svg width="174" height="52" viewBox="0 0 174 52" fill="none" xmlns="http://www.w3.org/2000/svg">
<path fill-rule="evenodd" clip-rule="evenodd" d="M146.38 51.9889C120.544 50.3197 111.931 20.1269 131.271 4.65117C139.28 -2.47972 151.216 0.857417 161.036 0.402167C165.871 0.402167 169.648 13.7548 166.625 16.031C160.28 15.8793 155.898 5.71342 148.343 7.68616C132.63 7.68616 134.14 48.1966 151.819 44.5546C153.028 44.4042 155.898 43.4937 155.898 42.1279L155.748 30.2928C153.028 29.2319 150.761 25.7417 153.33 24.0738L171.008 23.4668C177.051 24.2255 172.217 28.6236 171.31 30.2928C171.614 33.1761 171.16 36.3614 171.614 39.2461C174.483 40.6104 173.123 43.4937 171.31 44.5559C166.325 49.5623 153.18 51.9889 146.38 51.9889ZM67.8139 51.5337C63.7338 51.5337 63.8849 46.5273 66.7561 45.1616C69.7784 44.2511 67.8139 11.0233 67.5117 6.92742C65.6983 6.16867 62.6774 4.19592 64.9427 1.31403L107.399 1.16228C110.119 3.13503 119.789 13.4527 110.722 13.4527C106.493 11.7834 103.319 7.98967 97.879 8.44491C93.3469 8.29317 89.1157 8.29317 85.0356 8.74841V21.9479L101.959 22.0997C103.168 21.0374 106.793 18.7612 108.908 19.2164C112.534 21.0374 106.038 33.1747 100.9 33.1747C98.6332 32.8712 99.3901 30.8984 97.8776 29.9879H85.0342L85.1853 43.4923C94.402 45.0085 104.072 43.4923 111.777 38.1811C118.879 40.1538 109.662 51.0785 106.488 51.6841L67.8139 51.5337ZM2.99514 51.5337C-3.65255 48.954 2.39068 45.9203 5.5641 44.5546L21.1262 11.782C21.1262 6.47217 10.3998 4.65117 17.0461 0.705667H35.1772L57.8403 46.0721C63.2791 49.2575 61.6169 51.0784 55.8772 50.9267L39.7106 51.0784L34.1207 42.277H16.7439L15.3838 45.4651C16.7439 46.0721 18.4061 47.7413 17.0461 49.5623C17.0461 52.1407 4.95964 51.5337 2.99514 51.5337ZM20.0684 33.6299L25.0552 22.8584L30.494 34.0852L20.0684 33.6299Z" fill="#8F8F8F"/>
</svg>
