<svg width="83" height="115" viewBox="0 0 83 115" fill="none" xmlns="http://www.w3.org/2000/svg">
<path fill-rule="evenodd" clip-rule="evenodd" d="M23.2116 4.46056C23.2116 4.46056 27.7388 3.64844 31.6747 3.64844C37.6543 3.64844 40.6447 4.46056 41.6709 4.46056H59.3364C53.9188 1.61263 47.7661 0 41.2202 0C34.6902 0 28.6206 1.62486 23.2116 4.46056ZM68.4648 11.1502H55.2794C50.1676 11.1502 39.229 10.2586 34.7421 10.2586H22.3878C19.5546 10.2586 13.9241 11.1502 13.9241 11.1502C15.5894 9.51982 16.9574 8.36952 17.9022 7.74024C17.9022 7.74024 21.3647 8.45391 24.4353 8.45391C26.4014 8.45391 35.3726 8.44841 35.3726 8.44841C39.465 8.44841 48.5929 6.71164 51.6616 6.71164L63.1053 6.70613C65.0475 8.02277 66.7947 9.51493 68.4648 11.1502ZM74.0139 17.8398H57.4045C53.9457 17.8398 43.1636 16.7115 39.1489 16.7115H17.1139C14.2825 16.7115 8.4417 17.8398 8.4417 17.8398C9.45318 16.2761 9.99378 15.5924 11.2132 14.1932C11.2132 14.1932 14.5186 14.7442 17.5891 14.7442H39.1495C44.3451 14.7442 52.922 13.3976 56.1478 13.3976H70.6566C71.8805 14.7961 73.0025 16.2807 74.0139 17.8398ZM4.97672 24.4487C5.59009 22.9168 6.2952 22.1518 7.0902 20.7226C7.0902 20.7226 11.371 21.5121 14.1278 21.5121L43.478 21.5133C46.9417 21.5133 56.2285 20.0071 58.5909 20.0071L75.3703 20.0083C76.1656 21.4431 76.8689 22.9271 77.4758 24.4511L59.5321 24.4505C56.3074 24.4505 48.122 23.4017 43.6382 23.4017L13.8104 23.4005C10.3473 23.4011 4.97672 24.4487 4.97672 24.4487ZM2.96537 31.2197C2.96537 31.2197 9.71798 29.9324 12.2375 29.9324H43.5593C46.3913 29.9324 58.117 31.2197 61.7385 31.2197H79.4707C79.1661 29.7178 78.7728 28.2352 78.2929 26.7799L60.9515 26.7793C57.0156 26.7793 46.8634 27.8091 43.3985 27.8091L12.4736 27.8085C9.32537 27.8085 4.15359 26.7774 4.15359 26.7774C3.66935 28.2332 3.27256 29.7166 2.96537 31.2197ZM2.19116 37.9093C2.19116 37.9093 10.269 36.4642 12.7861 36.4642H41.7479C46.1541 36.4642 58.1953 37.9093 61.8131 37.9093H80.2168C80.1765 36.4226 80.0513 34.9395 79.8419 33.4671H61.031C57.3293 33.4671 46.7051 34.4186 41.7473 34.4186L13.4948 34.418C9.48192 34.418 2.56665 33.4652 2.56665 33.4652C2.35736 34.9383 2.23199 36.422 2.19116 37.9093ZM2.19116 40.1567C2.19116 40.1567 13.9676 41.1865 17.4301 41.1865H37.9717C42.8493 41.1865 55.7552 40.1567 59.1437 40.1567H80.2382C80.1952 41.6449 80.068 43.1294 79.8572 44.6032L59.1376 44.602C55.0471 44.602 42.7704 43.0749 37.809 43.0749L17.8251 43.0743C14.2036 43.0743 2.58805 44.5995 2.58805 44.5995C2.38013 43.1422 2.23336 41.6617 2.19116 40.1567ZM4.15787 51.2897C3.67455 49.8307 3.27879 48.344 2.97271 46.8377C2.97271 46.8377 17.2368 47.9795 27.1101 47.9795C37.8439 47.9795 47.5208 46.8439 51.8976 46.8439L79.4731 46.8469C79.1653 48.3502 78.7681 49.8338 78.2837 51.2897H51.7655C44.0283 51.2897 36.1242 50.1309 26.2485 50.1309C16.8369 50.1309 4.15787 51.2897 4.15787 51.2897ZM77.4691 53.5396C76.8582 55.0604 76.1516 56.541 75.3538 57.9726L7.10426 57.9794C6.31293 56.5563 5.57908 55.0623 4.96693 53.5365L77.4691 53.5396ZM74.0127 60.2262H8.44659C9.45873 61.7848 10.5805 63.2695 11.8033 64.669H70.6505C71.874 63.2687 72.9975 61.7841 74.0127 60.2262ZM63.134 71.3586H19.3473C17.4069 70.0428 15.5883 68.5559 13.9131 66.9158L68.5345 66.9139C66.8626 68.551 65.0757 70.0414 63.134 71.3586ZM59.3657 73.5968C53.9457 76.4472 47.7704 78.0605 41.2214 78.0605C34.9154 78.0659 28.7028 76.5373 23.1192 73.6066L59.3657 73.5968Z" fill="#8F8F8F"/>
<path fill-rule="evenodd" clip-rule="evenodd" d="M22.2276 84.3604H45.6728V90.6812H37.9723V114.081H29.9281V90.6812H22.2276V84.3604ZM11.651 102.721L14.5271 93.6545L17.0595 102.721H11.651ZM0 114.081L10.3821 84.3604H18.7174L28.516 114.081H20.3752L18.7174 108.816H9.89592L7.94633 114.081H0ZM58.9835 84.3604H82.4293V90.6812H74.7282V114.081H66.6846V90.6812H58.9835V84.3604Z" fill="#A3A3A3"/>
<path fill-rule="evenodd" clip-rule="evenodd" d="M49.0184 105.032C49.0184 105.032 53.3591 108.431 53.9358 109.034C52.8093 109.034 50.0886 109.328 49.4232 108.46C48.3518 107.216 48.6123 105.479 49.0184 105.032ZM51.2169 94.7414C51.9409 94.7414 52.6564 95.4367 52.6564 95.9333V99.5457L58.3254 99.531V104.436C58.3254 104.67 58.2215 104.67 57.9897 104.67C57.6136 104.67 51.4358 99.3763 50.436 98.1575C49.9461 97.5533 49.7394 96.8928 49.7394 96.1009C49.7394 95.4019 50.436 94.7414 51.2169 94.7414ZM51.4774 90.1121C53.6331 90.1121 55.3845 90.4502 56.7446 91.5571C57.9891 92.5704 58.3535 94.1623 58.3535 96.0293V99.5304L64.1045 99.5169V106.868C64.1045 107.493 63.6874 108.659 63.6874 108.659C63.6874 108.659 64.7087 108.68 65.355 108.659V113.858C64.949 113.858 64.7197 113.869 64.3136 113.869C63.0012 113.869 62.0729 113.962 61.0205 113.202C60.6982 112.973 60.4493 112.744 60.1019 112.744C59.7839 112.744 59.5821 113.025 59.1871 113.202C57.8111 113.837 56.9464 114.15 55.4353 114.285C53.7584 114.442 52.7898 114.431 51.1007 114.369C46.8603 114.202 43.1195 112.181 42.2658 108.034C42.0163 106.794 41.9949 106.023 42.2658 104.783C42.5263 103.574 42.7244 102.804 43.5164 101.866C43.964 101.334 44.6832 100.993 44.6832 100.49C44.6832 100.241 44.1934 99.8863 44.0166 99.4484C43.558 98.3544 43.4326 97.6358 43.4326 96.4476C43.4326 94.7702 43.5782 93.5514 44.767 92.3631C46.7264 90.4038 48.7163 90.1121 51.4774 90.1121Z" fill="#A3A3A3"/>
</svg>
