<svg width="279" height="69" viewBox="0 0 279 69" fill="none" xmlns="http://www.w3.org/2000/svg">
<path fill-rule="evenodd" clip-rule="evenodd" d="M20.553 0.00488281L4.36295 9.40586L20.553 18.8068L37.0502 9.40586L20.553 0.00488281ZM23.216 50.196V68.9979L45.2122 56.5656V37.7609L23.216 50.196ZM39.7132 15.3191V34.1239L23.216 43.5248V24.7201L39.7132 15.3191ZM0 34.1239L16.4971 43.5248V24.7201L0 15.3191V34.1239ZM0 59.5969L16.4971 68.9979V50.196L0 40.795V59.5969ZM102.185 25.7711V24.8556C102.185 22.1064 100.666 20.5825 97.9305 20.5825H84.2527V30.0471H97.9305C100.666 30.0471 102.185 28.5203 102.185 25.7739V25.7711ZM112.214 41.3426V45.3116C112.214 52.6391 108.569 56.3029 101.277 56.3029H78.1842C77.98 56.3135 77.7759 56.2811 77.5854 56.2078C77.3948 56.1345 77.222 56.0221 77.0785 55.8778C76.935 55.7335 76.824 55.5607 76.7529 55.3708C76.6817 55.1809 76.652 54.9782 76.6657 54.7761V15.0841C76.652 14.8819 76.6817 14.6793 76.7529 14.4894C76.824 14.2995 76.935 14.1267 77.0785 13.9824C77.222 13.8381 77.3948 13.7256 77.5854 13.6524C77.7759 13.5791 77.98 13.5467 78.1842 13.5573H98.8405C106.132 13.5573 109.777 17.2211 109.777 24.5486V25.7711C109.777 31.5793 105.523 32.7935 105.523 32.7935V33.0978C105.523 33.0978 112.214 34.3202 112.214 41.3426ZM104.616 45.0045V41.3426C104.616 38.5934 103.097 37.0694 100.362 37.0694H84.2611V49.2832H100.362C103.097 49.2832 104.616 47.7565 104.616 45.0101V45.0045ZM133.78 50.8127C136.817 50.8127 138.945 48.6748 138.945 45.6213V43.4834H128.921C126.794 43.4834 125.571 44.7058 125.571 46.841V47.4523C125.571 49.5903 126.785 50.81 128.921 50.81H133.78V50.8127ZM145.63 34.3258V54.7927C145.644 54.9948 145.614 55.1975 145.543 55.3874C145.472 55.5773 145.361 55.7501 145.217 55.8944C145.074 56.0387 144.901 56.1511 144.71 56.2244C144.52 56.2977 144.316 56.3301 144.111 56.3195H140.466C140.262 56.3301 140.058 56.2977 139.867 56.2244C139.676 56.1511 139.504 56.0387 139.36 55.8944C139.217 55.7501 139.106 55.5773 139.034 55.3874C138.963 55.1975 138.934 54.9948 138.947 54.7927V53.266H138.643C138.643 53.266 137.125 56.9307 132.566 56.9307H128.008C121.932 56.9307 118.894 53.8773 118.894 47.7704V46.8549C118.894 40.748 121.932 37.6945 128.008 37.6945H138.945V34.6521C138.945 32.2099 137.426 30.6832 134.995 30.6832H130.743C128.616 30.6832 127.394 31.9057 127.394 34.0409C127.407 34.243 127.378 34.4457 127.307 34.6356C127.235 34.8255 127.124 34.9983 126.981 35.1425C126.837 35.2868 126.665 35.3993 126.474 35.4726C126.283 35.5458 126.079 35.5782 125.875 35.5676H122.235C122.031 35.5782 121.827 35.5458 121.636 35.4726C121.446 35.3993 121.273 35.2868 121.13 35.1425C120.986 34.9983 120.875 34.8255 120.804 34.6356C120.733 34.4457 120.703 34.243 120.717 34.0409C120.717 27.934 124.066 24.5763 130.439 24.5763H135.907C142.289 24.5763 145.63 27.934 145.63 34.3479V34.3258ZM181.784 34.3258C181.784 27.9146 178.434 24.5542 172.062 24.5542H167.205C162.646 24.5542 161.128 28.2189 161.128 28.2189H160.823V26.6866C160.837 26.4845 160.807 26.2818 160.736 26.0919C160.665 25.902 160.554 25.7292 160.411 25.585C160.267 25.4407 160.094 25.3282 159.904 25.2549C159.713 25.1817 159.509 25.1493 159.305 25.1599H155.654C155.45 25.1493 155.246 25.1817 155.055 25.2549C154.864 25.3282 154.692 25.4407 154.548 25.585C154.405 25.7292 154.294 25.902 154.222 26.0919C154.151 26.2818 154.122 26.4845 154.135 26.6866V54.7678C154.122 54.97 154.151 55.1726 154.222 55.3625C154.294 55.5524 154.405 55.7252 154.548 55.8695C154.692 56.0138 154.864 56.1263 155.055 56.1995C155.246 56.2728 155.45 56.3052 155.654 56.2946H159.299C159.504 56.3052 159.708 56.2728 159.898 56.1995C160.089 56.1263 160.262 56.0138 160.405 55.8695C160.549 55.7252 160.66 55.5524 160.731 55.3625C160.802 55.1726 160.832 54.97 160.818 54.7678V35.847C160.818 32.8046 162.945 30.6555 165.982 30.6555H171.146C173.577 30.6555 175.096 32.1823 175.096 34.6245V54.7678C175.082 54.97 175.112 55.1726 175.183 55.3625C175.254 55.5524 175.365 55.7252 175.509 55.8695C175.652 56.0138 175.825 56.1263 176.016 56.1995C176.206 56.2728 176.41 56.3052 176.614 56.2946H180.26C180.464 56.3052 180.668 56.2728 180.859 56.1995C181.049 56.1263 181.222 56.0138 181.366 55.8695C181.509 55.7252 181.62 55.5524 181.691 55.3625C181.762 55.1726 181.792 54.97 181.778 54.7678V34.3009L181.784 34.3258ZM210.949 46.8438C210.949 49.286 209.43 50.8127 206.999 50.8127H200.618C198.186 50.8127 196.668 49.286 196.668 46.8438V34.6245C196.668 32.1823 198.186 30.6555 200.618 30.6555H206.999C209.43 30.6555 210.949 32.1823 210.949 34.6245V35.54C210.935 35.7421 210.965 35.9448 211.036 36.1347C211.107 36.3245 211.218 36.4973 211.361 36.6416C211.505 36.7859 211.678 36.8984 211.868 36.9716C212.059 37.0449 212.263 37.0773 212.467 37.0667H216.113C216.317 37.0773 216.521 37.0449 216.712 36.9716C216.902 36.8984 217.075 36.7859 217.218 36.6416C217.362 36.4973 217.473 36.3245 217.544 36.1347C217.615 35.9448 217.645 35.7421 217.631 35.54V34.3175C217.631 27.9063 214.281 24.5459 207.909 24.5459H199.708C193.326 24.5459 189.985 27.9036 189.985 34.3175V47.1397C189.985 53.5509 193.335 56.9113 199.708 56.9113H207.912C214.293 56.9113 217.634 53.5537 217.634 47.1397V45.9173C217.648 45.7152 217.618 45.5125 217.547 45.3226C217.476 45.1327 217.365 44.9599 217.221 44.8156C217.078 44.6713 216.905 44.5589 216.714 44.4856C216.524 44.4123 216.32 44.3799 216.115 44.3905H212.467C212.263 44.3799 212.059 44.4123 211.868 44.4856C211.678 44.5589 211.505 44.6713 211.361 44.8156C211.218 44.9599 211.107 45.1327 211.036 45.3226C210.965 45.5125 210.935 45.7152 210.949 45.9173V46.8327V46.8438ZM231.605 34.63V46.8438C231.605 49.286 233.123 50.8127 235.555 50.8127H242.533C244.965 50.8127 246.483 49.286 246.483 46.8438V34.6245C246.483 32.1823 244.965 30.6555 242.533 30.6555H235.555C233.123 30.6555 231.605 32.1823 231.605 34.6245V34.63ZM224.922 47.148V34.3202C224.922 27.9091 228.272 24.5486 234.645 24.5486H243.454C249.83 24.5486 253.18 27.9063 253.18 34.3202V47.1425C253.18 53.5536 249.83 56.9141 243.457 56.9141H234.645C228.264 56.9141 224.922 53.5564 224.922 47.1425V47.148ZM274.442 24.5542C269.883 24.5542 268.365 28.2189 268.365 28.2189H268.061V26.6866C268.074 26.4845 268.045 26.2818 267.973 26.0919C267.902 25.902 267.791 25.7292 267.648 25.585C267.504 25.4407 267.331 25.3282 267.141 25.2549C266.95 25.1817 266.746 25.1493 266.542 25.1599H262.899C262.695 25.1493 262.491 25.1817 262.3 25.2549C262.11 25.3282 261.937 25.4407 261.794 25.585C261.65 25.7292 261.539 25.902 261.468 26.0919C261.397 26.2818 261.367 26.4845 261.381 26.6866V54.7678C261.367 54.97 261.397 55.1726 261.468 55.3625C261.539 55.5524 261.65 55.7252 261.794 55.8695C261.937 56.0138 262.11 56.1263 262.3 56.1995C262.491 56.2728 262.695 56.3052 262.899 56.2946H266.545C266.749 56.3052 266.953 56.2728 267.144 56.1995C267.334 56.1263 267.507 56.0138 267.65 55.8695C267.794 55.7252 267.905 55.5524 267.976 55.3625C268.047 55.1726 268.077 54.97 268.063 54.7678V36.1512C268.063 33.1088 270.19 30.9598 273.227 30.9598H277.481C277.686 30.9704 277.89 30.938 278.08 30.8647C278.271 30.7915 278.444 30.679 278.587 30.5347C278.731 30.3904 278.842 30.2176 278.913 30.0278C278.984 29.8379 279.014 29.6352 279 29.4331V26.0754C279.014 25.8733 278.984 25.6706 278.913 25.4807C278.842 25.2908 278.731 25.118 278.587 24.9737C278.444 24.8294 278.271 24.717 278.08 24.6437C277.89 24.5704 277.686 24.538 277.481 24.5486H274.444L274.442 24.5542Z" fill="#00CCAA"/>
</svg>
