<svg width="56" height="55" viewBox="0 0 56 55" fill="none" xmlns="http://www.w3.org/2000/svg">
<g clip-path="url(#clip0_61_150)">
<path d="M18.9929 34.375H37.0398C37.1919 34.375 37.3412 34.3346 37.4726 34.2581C37.604 34.1815 37.7127 34.0714 37.7876 33.939C37.8626 33.8067 37.901 33.6568 37.8991 33.5048C37.8972 33.3527 37.855 33.2039 37.7767 33.0735L32.6205 24.4797C32.5441 24.3525 32.4361 24.2472 32.307 24.174C32.1778 24.1009 32.032 24.0625 31.8836 24.0625C31.7352 24.0625 31.5893 24.1009 31.4601 24.174C31.331 24.2472 31.223 24.3525 31.1466 24.4797L30.1648 26.1164L27.0345 20.8994C26.9582 20.7721 26.8502 20.6668 26.721 20.5937C26.5919 20.5205 26.446 20.4821 26.2976 20.4821C26.1492 20.4821 26.0033 20.5205 25.8742 20.5937C25.7451 20.6668 25.6371 20.7721 25.5607 20.8994L18.256 33.0735C18.1778 33.2039 18.1355 33.3527 18.1336 33.5048C18.1317 33.6568 18.1702 33.8067 18.2451 33.939C18.32 34.0714 18.4287 34.1815 18.5601 34.2581C18.6915 34.3346 18.8408 34.375 18.9929 34.375ZM31.8836 26.5923L35.522 32.6562H34.0889L31.167 27.7866L31.8836 26.5923ZM26.2976 23.0118L32.0844 32.6562H20.5108L26.2976 23.0118Z" fill="#00CCAA"/>
<path d="M35.7507 23.2031C36.3456 23.2031 36.9272 23.0267 37.4218 22.6962C37.9164 22.3657 38.3019 21.896 38.5296 21.3464C38.7572 20.7967 38.8168 20.192 38.7007 19.6085C38.5847 19.0251 38.2982 18.4891 37.8776 18.0685C37.4569 17.6478 36.921 17.3614 36.3375 17.2453C35.7541 17.1292 35.1493 17.1888 34.5997 17.4165C34.0501 17.6441 33.5803 18.0296 33.2498 18.5243C32.9193 19.0189 32.7429 19.6004 32.7429 20.1953C32.7438 20.9928 33.061 21.7573 33.6249 22.3212C34.1888 22.885 34.9533 23.2022 35.7507 23.2031ZM35.7507 18.9063C36.0057 18.9063 36.2549 18.9819 36.4669 19.1235C36.6789 19.2651 36.8441 19.4665 36.9417 19.702C37.0392 19.9376 37.0648 20.1967 37.015 20.4468C36.9653 20.6969 36.8425 20.9265 36.6622 21.1068C36.482 21.2871 36.2523 21.4099 36.0022 21.4596C35.7522 21.5093 35.493 21.4838 35.2574 21.3863C35.0219 21.2887 34.8206 21.1235 34.6789 20.9115C34.5373 20.6995 34.4617 20.4503 34.4617 20.1953C34.462 19.8535 34.598 19.5259 34.8396 19.2842C35.0813 19.0426 35.409 18.9066 35.7507 18.9063Z" fill="#00CCAA"/>
<path d="M47.2837 8.66229C44.812 6.17896 41.8747 4.2076 38.64 2.86108C35.4054 1.51456 31.9368 0.819348 28.4331 0.815242C24.9293 0.811136 21.4592 1.49822 18.2214 2.83715C14.9835 4.17608 12.0416 6.14056 9.56409 8.61808C7.08656 11.0956 5.12209 14.0375 3.78316 17.2753C2.44423 20.5132 1.75714 23.9833 1.76125 27.4871C1.76536 30.9908 2.46057 34.4593 3.80709 37.694C5.1536 40.9287 7.12497 43.866 9.6083 46.3377C12.08 48.821 15.0173 50.7924 18.252 52.1389C21.4867 53.4854 24.9552 54.1806 28.4589 54.1848C31.9627 54.1889 35.4328 53.5018 38.6707 52.1628C41.9085 50.8239 44.8504 48.8594 47.3279 46.3819C49.8055 43.9044 51.7699 40.9625 53.1089 37.7247C54.4478 34.4868 55.1349 31.0167 55.1308 27.5129C55.1267 24.0092 54.4315 20.5407 53.0849 17.306C51.7384 14.0713 49.7671 11.134 47.2837 8.66229ZM46.0685 45.1224C41.3947 49.7962 35.0556 52.4219 28.4459 52.4219C21.8362 52.4219 15.4971 49.7962 10.8233 45.1224C6.14955 40.4487 3.52384 34.1096 3.52384 27.4999C3.52384 20.8902 6.14955 14.5511 10.8233 9.87734C15.4971 5.20354 21.8362 2.57783 28.4459 2.57783C35.0556 2.57783 41.3947 5.20354 46.0685 9.87734C50.7423 14.5511 53.368 20.8902 53.368 27.4999C53.368 34.1096 50.7423 40.4487 46.0685 45.1224Z" fill="#00CCAA"/>
<path d="M44.8531 11.0929C42.6992 8.93506 40.1411 7.22284 37.3252 6.05414C34.5092 4.88544 31.4905 4.28317 28.4416 4.28177C25.3927 4.28037 22.3735 4.87985 19.5564 6.04596C16.7393 7.21206 14.1797 8.92193 12.0238 11.0778C9.86794 13.2337 8.15808 15.7933 6.99197 18.6104C5.82587 21.4274 5.22638 24.4467 5.22779 27.4956C5.22919 30.5445 5.83145 33.5632 7.00015 36.3791C8.16885 39.1951 9.88107 41.7532 12.0389 43.9071C14.1928 46.0649 16.7509 47.7772 19.5669 48.9459C22.3829 50.1146 25.4016 50.7168 28.4504 50.7182C31.4993 50.7196 34.5186 50.1201 37.3356 48.954C40.1527 47.7879 42.7123 46.0781 44.8682 43.9222C47.0241 41.7663 48.734 39.2067 49.9001 36.3896C51.0662 33.5726 51.6656 30.5533 51.6642 27.5044C51.6628 24.4556 51.0606 21.4368 49.8919 18.6209C48.7232 15.8049 47.011 13.2468 44.8531 11.0929ZM28.446 48.9844C16.5995 48.9844 6.96164 39.3465 6.96164 27.5C6.96164 15.6535 16.5995 6.01562 28.446 6.01562C40.2925 6.01562 49.9304 15.6535 49.9304 27.5C49.9304 39.3465 40.2925 48.9844 28.446 48.9844Z" fill="#00CCAA"/>
<path d="M38.7585 36.0938H18.1335C17.9056 36.0938 17.687 36.1843 17.5259 36.3455C17.3647 36.5066 17.2742 36.7252 17.2742 36.9531C17.2742 37.181 17.3647 37.3996 17.5259 37.5608C17.687 37.722 17.9056 37.8125 18.1335 37.8125H38.7585C38.9865 37.8125 39.2051 37.722 39.3662 37.5608C39.5274 37.3996 39.6179 37.181 39.6179 36.9531C39.6179 36.7252 39.5274 36.5066 39.3662 36.3455C39.2051 36.1843 38.9865 36.0938 38.7585 36.0938Z" fill="#00CCAA"/>
<path d="M34.4617 38.6719H22.4304C22.2025 38.6719 21.9839 38.7624 21.8227 38.9236C21.6616 39.0847 21.571 39.3033 21.571 39.5312C21.571 39.7592 21.6616 39.9778 21.8227 40.1389C21.9839 40.3001 22.2025 40.3906 22.4304 40.3906H34.4617C34.6896 40.3906 34.9082 40.3001 35.0693 40.1389C35.2305 39.9778 35.321 39.7592 35.321 39.5312C35.321 39.3033 35.2305 39.0847 35.0693 38.9236C34.9082 38.7624 34.6896 38.6719 34.4617 38.6719Z" fill="#00CCAA"/>
</g>
<defs>
<clipPath id="clip0_61_150">
<rect width="55" height="55" fill="white" transform="translate(0.946045)"/>
</clipPath>
</defs>
</svg>
