<svg width="166" height="124" viewBox="0 0 166 124" fill="none" xmlns="http://www.w3.org/2000/svg">
<path fill-rule="evenodd" clip-rule="evenodd" d="M92.7138 49.7426C97.8106 51.6537 104.499 53.8829 109.914 52.29C107.685 59.9343 87.2998 49.4235 83.7958 50.3799V49.7426H92.7138ZM102.27 60.5716C95.2622 67.5785 80.6111 52.6092 74.2406 52.6092C79.6555 47.1951 88.5735 60.8898 102.27 60.5716ZM54.8118 57.0686C58.3157 55.1576 64.6862 53.5657 69.4629 52.6101C68.1892 50.3799 56.7228 52.29 54.8118 57.0686ZM83.7958 49.7426C85.0705 47.8315 88.5744 48.4679 92.7138 49.7426H83.7958ZM79.0191 47.8315C83.7959 44.6458 81.5666 33.8177 87.6189 33.8177C84.7504 37.3207 84.4332 50.0617 79.0191 47.8315ZM101.315 30.9512C100.357 24.5806 95.2622 21.7141 98.447 17.5737C98.447 21.7141 105.772 28.0846 101.315 30.9512ZM102.587 21.3959C102.27 17.5737 97.1733 15.0263 99.4025 9.92951C100.041 14.389 106.41 18.5293 102.587 21.3959ZM103.862 12.4779C100.358 11.2042 102.587 5.7892 98.4479 0.693359C103.862 2.28622 104.499 11.5224 103.862 12.4779ZM106.091 16.3C102.587 14.7072 107.366 12.4779 106.41 3.87814C110.551 5.78825 106.729 13.4334 106.091 16.3ZM105.772 22.9878C102.587 19.4848 111.505 17.5737 112.78 10.2477C117.239 14.7072 105.772 21.0777 105.772 22.9878ZM104.499 30.632C102.587 25.217 114.373 24.8988 117.238 19.4839C120.107 24.8998 106.41 27.129 104.499 30.632ZM100.677 38.9136C99.4025 32.2249 114.691 34.7733 117.878 29.0401C119.788 36.3652 102.906 35.7279 100.677 38.9136ZM92.7138 45.9205C94.6258 39.8691 107.684 46.2387 115.647 41.461C113.418 49.4244 99.4025 44.3276 92.7138 45.9205ZM96.5369 39.2318C97.8115 33.8177 92.3966 26.8099 96.2177 24.2624C95.8986 29.0401 101.632 37.6399 96.5369 39.2318ZM88.5735 44.6468C92.7138 37.958 87.9371 31.5885 93.0329 29.9956C91.7583 34.4541 94.3076 45.9205 88.5735 44.6468ZM52.5825 119.495C52.9007 120.451 53.2199 121.405 54.1754 122.044C55.4491 123.318 57.3611 123.954 59.9086 123.954C61.1823 123.954 62.4569 123.954 63.0933 123.635L63.7307 122.998C63.7307 122.362 64.0489 120.769 64.0489 120.769V120.45C63.7307 120.45 63.7307 120.45 63.7307 120.769C63.7307 121.088 63.4125 121.725 63.0933 122.363C62.4569 122.999 61.1823 122.999 59.9086 122.999C57.3602 122.999 55.1309 121.725 54.1754 119.495H52.5825ZM69.4639 119.495C69.4639 120.77 69.1457 121.725 69.1457 122.363C69.1457 122.999 69.1457 123.318 68.8275 123.318H68.1901V123.636H74.8788C75.8344 123.636 75.8344 123.636 75.8344 123.318C76.1526 122.68 76.1526 121.725 76.1526 121.406V121.089C75.8344 121.089 75.8344 121.406 75.8344 121.406C75.8344 121.725 75.5152 122.364 75.5152 122.364C74.8788 123 74.2406 123 73.286 123C72.0122 123 71.3749 123 71.0567 122.681C71.0567 122.364 70.7385 121.406 70.7385 119.496H69.4639V119.495ZM81.5666 119.495L80.9302 121.725C80.612 122.68 80.2929 123.318 79.3373 123.318H79.0191C78.701 123.318 78.7009 123.318 78.7009 123.636H82.8413C82.8413 123.318 82.5231 123.318 82.5231 123.318H82.2049C81.8867 123.318 81.5675 123.318 81.5675 122.999C81.5675 122.68 81.8857 122.044 81.8857 121.725L82.5231 119.495H81.5666ZM87.2998 119.495L88.8936 122.999C88.8936 123.318 88.8936 123.318 88.5744 123.318V123.636H92.0784V123.318H91.442C90.8037 123.318 90.4846 122.999 89.8482 121.406C89.529 120.77 89.2099 120.134 88.8926 119.496H87.2998V119.495ZM100.358 119.495C100.677 119.814 100.677 120.451 100.677 120.77C100.677 122.045 99.7217 123.318 98.1288 123.318C96.856 123.318 95.8995 122.68 95.5823 121.406V120.77H95.2631C95.2631 121.089 94.944 122.045 94.944 122.68C94.944 123.318 95.2631 123.318 95.2631 123.318C96.2187 123.955 96.857 123.955 97.8115 123.955C98.7661 123.955 99.7217 123.636 100.358 123.318C101.633 122.363 101.952 121.089 101.952 120.134V119.495H100.358ZM111.505 119.495C111.824 119.814 112.144 120.451 112.144 120.77C112.144 122.045 111.188 123.318 109.595 123.318C108.32 123.318 107.047 122.68 106.729 121.406V120.77H106.41V122.68C106.41 123.318 106.41 123.318 106.729 123.318C107.366 123.955 108.321 123.955 108.959 123.955C109.914 123.955 110.869 123.636 111.824 123.318C113.099 122.363 113.099 121.089 113.099 120.134V119.495H111.505Z" fill="#8F8F8F"/>
<path fill-rule="evenodd" clip-rule="evenodd" d="M52.2642 115.036C52.2642 115.674 51.946 116.311 51.946 116.948C51.946 117.584 52.2642 118.54 52.5824 119.494H54.1753C53.8571 118.539 53.5389 117.584 53.5389 116.629C53.5389 115.99 53.5389 115.673 53.8571 115.035H52.2642V115.036ZM69.4638 115.036V119.495H70.7384V115.355V115.036H69.4638ZM83.1584 115.036L81.5656 119.495H82.5211L82.8393 118.54H86.9787L87.2978 119.495H88.8916C88.5725 118.221 87.9361 116.63 87.2978 115.036H85.7059L86.6614 117.584V117.903H83.4757C83.1566 117.903 83.1565 117.903 83.1565 117.584L84.1121 115.036H83.1584ZM95.8985 115.036C96.2177 115.674 96.8559 116.311 97.8105 116.948L98.4469 117.903C99.4024 118.54 100.041 118.859 100.357 119.495H101.951C101.632 118.54 100.995 117.585 99.4024 115.991L98.766 115.674C98.4469 115.355 98.1278 115.355 98.1278 115.036H95.8985ZM107.366 115.036C107.685 115.674 108.321 116.311 109.276 116.948L109.914 117.903C110.87 118.54 111.189 118.859 111.506 119.495H113.1C113.1 118.54 112.462 117.585 110.552 115.991L110.234 115.674C109.915 115.355 109.596 115.355 109.277 115.036H107.366Z" fill="#8F8F8F"/>
<path fill-rule="evenodd" clip-rule="evenodd" d="M53.8563 115.036C53.8563 114.08 54.1745 112.807 55.131 112.17C55.7683 111.532 57.042 110.895 59.2713 110.895C60.8642 110.895 62.1379 111.215 62.7743 111.851C63.4116 112.17 63.4116 112.807 63.4116 113.445C63.4116 113.762 63.4116 114.081 63.7298 114.081V113.445C63.7298 113.445 63.7298 112.487 64.048 111.851V110.895C64.048 110.576 64.048 110.576 63.7298 110.576C63.0925 110.576 62.7743 110.576 61.8187 110.257C61.1814 110.257 60.2259 109.94 59.2703 109.94C56.722 109.94 55.13 110.895 54.1745 111.85C53.219 112.806 52.5816 114.079 52.2634 115.035H53.8563V115.036ZM70.7376 115.036V111.532C70.7376 110.895 71.0558 110.576 71.374 110.576H72.3296C72.3296 110.257 72.0114 110.257 72.0114 110.257H70.1003H68.1892C67.8711 110.257 67.8711 110.257 67.8711 110.576H68.5084C69.1448 110.895 69.1448 110.895 69.1448 111.532C69.463 112.17 69.463 112.807 69.463 115.036H70.7376ZM84.1151 115.036L84.7514 112.807H85.0706L85.7089 115.036H87.3008C86.3452 112.807 85.7089 110.895 85.7089 110.576C85.3897 110.257 85.3897 109.94 85.3897 109.94C85.0706 109.94 85.0706 110.257 84.7514 110.895L83.1595 115.036H84.1151ZM98.1279 115.036C96.8551 114.08 96.536 113.444 96.536 112.807C96.536 111.532 97.4915 110.577 98.7652 110.577C100.357 110.577 100.994 111.533 100.994 111.533C100.994 111.852 101.314 112.171 101.314 112.488V112.807C101.631 112.807 101.631 112.488 101.631 112.488V110.578C101.631 110.259 101.631 110.259 101.314 110.259H100.675C100.356 110.259 99.7198 109.942 99.0834 109.942C96.8542 109.942 95.5795 111.534 95.5795 113.127C95.5795 113.763 95.5795 114.401 95.8968 115.037H98.1279V115.036ZM109.276 115.036C108.321 114.08 108.003 113.444 108.003 112.807C108.003 111.532 108.959 110.577 110.233 110.577C111.824 110.577 112.143 111.533 112.46 111.533C112.46 111.852 112.46 112.171 112.779 112.488V112.807V112.488C112.779 111.216 113.098 110.578 113.098 110.578C113.098 110.259 112.779 110.259 112.779 110.259H112.143C111.824 110.259 111.187 109.942 110.549 109.942C108.32 109.942 106.728 111.534 106.728 113.127C106.728 113.763 107.045 114.401 107.364 115.037H109.276V115.036ZM2.57781 97.5181C2.57781 97.8372 2.25961 98.1564 1.94047 98.4736H0.984943C0.666748 98.4736 0.666748 98.4736 0.666748 98.7927H4.48792C4.80612 98.7927 7.9909 99.1119 8.94737 99.1119C11.1766 99.1119 13.0877 98.4736 14.3624 97.5181H12.1331C11.4958 97.8372 10.5402 97.8372 9.90385 97.8372C9.26746 97.8372 7.67365 97.8372 6.71812 97.5181H2.57781ZM28.058 97.5181C30.2872 99.1119 33.1538 99.4282 34.1093 99.4282C35.7022 99.4282 37.9314 99.1109 39.8425 97.5181H37.9314C36.9759 97.8372 35.7022 98.1564 34.7467 98.1564C33.472 98.1564 32.5174 98.1563 31.2427 97.5181H28.058ZM51.6271 97.5181C51.6271 98.1563 51.6271 98.1564 51.9462 98.4736C53.2199 99.1119 54.4936 99.4291 56.0865 99.4291C57.6794 99.4291 59.2722 99.1119 60.546 98.1564L61.1833 97.5181H59.2722C58.6358 97.8372 57.6794 98.1564 56.7238 98.1564C55.4492 98.1564 54.4946 97.8372 53.5391 97.5181H51.6271ZM72.9669 97.5181C72.9669 97.8372 72.6487 98.1564 72.3305 98.4736H71.375C71.0568 98.4736 71.0568 98.4736 71.0568 98.7927H78.701C78.701 98.4736 78.701 98.4736 78.3828 98.4736H77.1091C76.4718 98.1564 76.1536 97.8372 76.1536 97.5181H72.9669ZM87.2998 97.5181C86.9807 97.8372 86.9807 98.1564 86.3443 98.1564C86.0252 98.4736 85.3888 98.4736 85.3888 98.4736C85.0696 98.4736 85.0696 98.4736 85.0696 98.7927H92.0775C92.0775 98.4736 92.0775 98.4736 91.7583 98.4736C91.4411 98.4736 90.8028 98.4736 90.4837 98.1564C89.8473 98.1564 89.5281 97.8372 89.5281 97.5181H87.2998ZM104.499 97.5181C106.091 98.7927 106.409 99.1119 106.729 99.1119L107.046 97.5181H104.499ZM117.559 97.5181C117.559 97.8372 117.239 98.1564 116.92 98.4736H115.965C115.648 98.4736 115.648 98.4736 115.648 98.7927H119.15C119.789 98.7927 122.018 99.1119 126.477 99.1119C127.752 99.1119 127.752 99.1119 128.069 98.1564V97.5181H126.797C125.839 97.8372 124.565 97.8372 123.929 97.8372C122.335 97.8372 121.381 97.8372 121.063 97.5181H117.559ZM135.712 97.5181C135.712 98.1563 135.712 98.1564 136.35 98.4736C137.625 99.1119 138.897 99.4291 140.171 99.4291C141.765 99.4291 143.358 99.1119 144.631 98.1564C144.95 97.8372 145.269 97.5181 145.588 97.5181H143.676C143.04 97.8372 142.084 98.1564 140.81 98.1564C139.855 98.1564 138.581 97.8372 137.943 97.5181H135.712ZM154.503 97.5181C154.503 98.1563 154.503 98.1564 154.822 98.4736C156.097 99.1119 157.688 99.4291 158.963 99.4291C160.556 99.4291 162.149 99.1119 163.422 98.1564C163.741 97.8372 164.06 97.5181 164.38 97.5181H162.468C161.831 97.8372 160.876 98.1564 159.602 98.1564C158.646 98.1564 157.373 97.8372 156.734 97.5181H154.503Z" fill="#8F8F8F"/>
<path fill-rule="evenodd" clip-rule="evenodd" d="M2.89583 79.6823V96.5637C2.89583 96.8828 2.57764 97.2 2.57764 97.5192H6.71795C5.76242 96.8828 5.76242 96.2445 5.76242 94.9708V85.4155C6.39975 85.4155 7.99167 85.4155 8.31081 85.7346C9.26634 85.7346 10.2219 85.7346 11.1774 86.6902C13.7258 88.2821 14.3631 91.1496 14.3631 93.3789C14.3631 95.6081 13.4076 96.8828 12.1339 97.5192H14.3631C16.2732 95.9254 17.2297 93.6961 17.2297 91.786C17.2297 87.9648 14.044 85.4164 11.4965 84.78C13.0894 83.1862 14.3631 81.9125 14.6813 79.6833H12.1339V80.3215C12.1339 81.9135 11.8157 82.868 10.8592 83.8236C10.2219 84.4618 9.90368 84.781 7.99262 84.781C6.71889 84.781 6.08156 84.4618 5.76336 84.4618V79.6833H2.89583V79.6823ZM25.1912 79.6823C25.5094 80.6378 25.5094 81.9116 25.5094 85.0964V89.2386C25.5094 93.6961 26.4649 95.9254 28.0578 97.2001V97.5192H31.2426L30.287 96.5637C29.0124 95.289 28.0578 93.3789 28.0578 89.2386V85.0964V79.6823H25.1912ZM41.1161 79.6823V88.6003C41.1161 91.7851 40.7979 94.3335 39.5232 95.9254L37.9303 97.5192H39.8414L40.1596 97.2001C42.708 94.9708 43.0262 91.4669 43.0262 88.2821V85.0973V79.6833H41.1161V79.6823ZM52.5824 79.6823C52.2642 80.3206 52.2642 80.6378 52.2642 81.2761C52.2642 83.1862 52.9016 85.0973 56.0863 87.6457L57.361 88.9204C60.2276 90.8305 60.8649 92.1051 60.8649 94.3344C60.8649 95.2899 60.5458 96.5637 59.2721 97.5192H61.1831C62.776 95.9254 63.0942 94.0153 63.0942 93.0597C63.0942 90.8305 62.1386 88.9194 58.6357 86.0519L57.9965 85.4155C55.1299 83.1862 54.1743 82.2307 54.1743 80.3206V79.6823H52.5824ZM62.1377 79.6823V80.3206C62.4559 80.3206 62.4559 80.3206 62.4559 79.6823H62.1377ZM73.2849 79.6823V90.1931C73.2849 93.0588 73.2849 95.6072 72.9667 96.8818V97.5182H76.1524C75.8343 97.1991 75.8343 96.8818 75.8343 96.8818V85.0964V79.6823H73.2849ZM87.2997 79.6823V97.5182H89.5289C89.2098 96.8818 89.2098 95.9244 89.2098 94.9699L88.8925 80.6369C89.8481 81.5924 93.0328 85.4155 96.5368 89.2376C99.7215 92.4224 104.181 96.8818 104.5 97.1991V97.5182H107.047V79.6814H105.137L105.456 94.9689C104.5 94.0134 101.315 90.1922 98.4478 87.0074C95.8994 84.459 93.3529 81.5915 91.4419 79.6804H87.2997V79.6823ZM117.877 79.6823V90.1931C117.877 93.0588 117.877 95.6072 117.557 96.8818V97.5182H121.061C120.423 96.8818 120.423 96.5627 120.423 95.289V87.6457V87.3266C121.061 87.3266 123.927 87.3265 124.883 87.6457C125.838 87.6457 126.157 88.2821 126.476 88.6012V89.5568C126.476 89.8759 126.476 89.8759 126.795 89.8759V89.2395C126.795 88.9204 127.113 87.9648 127.113 87.3275V85.7356V85.4164L126.795 85.7356C126.476 86.0528 125.838 86.0528 125.202 86.372H120.423V79.6833H117.877V79.6823ZM126.795 79.6823C126.795 80.0014 127.113 80.0014 127.113 80.0014L127.432 79.6823H126.795ZM136.669 79.6823C136.669 80.3206 136.35 80.6378 136.35 81.2761C136.35 83.1862 137.305 85.0973 140.49 87.6457L141.765 88.9204C144.313 90.8305 145.269 92.1051 145.269 94.3344C145.269 95.2899 144.63 96.5637 143.675 97.5192H145.587C146.86 95.9254 147.179 94.0153 147.179 93.0597C147.179 90.8305 146.542 88.9194 143.039 86.0519L142.083 85.4155C139.215 83.1862 138.579 82.2307 138.579 80.3206V79.6823H136.669ZM146.223 79.6823V80.0014C146.223 80.3206 146.223 80.3206 146.542 80.3206C146.542 80.3206 146.86 80.3206 146.86 79.6823H146.223ZM155.46 79.6823C155.141 80.3206 155.141 80.6378 155.141 81.2761C155.141 83.1862 155.778 85.0973 158.962 87.6457L160.556 88.9204C163.105 90.8305 163.741 92.1051 163.741 94.3344C163.741 95.2899 163.422 96.5637 162.466 97.5192H164.378C165.651 95.9254 165.97 94.0153 165.97 93.0597C165.97 90.8305 165.334 88.9194 161.511 86.0519L160.874 85.4155C158.007 83.1862 157.051 82.2307 157.051 80.3206C157.051 80.0014 157.051 80.0014 157.371 79.6823H155.46ZM165.015 79.6823V80.0014C165.015 80.3206 165.015 80.3206 165.334 80.3206V79.6823H165.015ZM53.5379 97.5182C52.9006 96.8818 52.5824 96.2436 52.2633 95.289V94.0143C52.2633 93.6952 52.2633 93.6952 51.9451 93.6952C51.6259 93.6952 51.6259 94.0143 51.6259 94.3335V97.5182H53.5379ZM128.067 97.5182C128.386 96.5627 128.386 95.6081 128.386 95.289V94.9699C128.067 94.9699 128.067 94.9698 128.067 95.289C127.75 96.5637 127.431 96.8828 126.795 97.5182H128.067ZM137.941 97.5182C137.304 96.8818 136.668 96.2436 136.349 95.289V94.0143C136.349 93.6952 136.349 93.6952 136.03 93.6952V94.3335C136.03 94.6526 135.711 95.9254 135.711 97.5182H137.941ZM156.733 97.5182C155.778 96.8818 155.46 96.2436 155.141 95.289V94.0143C155.141 93.6952 155.141 93.6952 154.822 93.6952C154.822 93.6952 154.822 94.0143 154.503 94.3335V97.5182H156.733Z" fill="#8F8F8F"/>
<path fill-rule="evenodd" clip-rule="evenodd" d="M2.896 75.2227V79.6821H5.76258V75.2227H2.896ZM9.9029 75.2227C10.5952 75.7419 11.157 76.4152 11.5439 77.1892C11.9309 77.9633 12.1323 78.8168 12.1322 79.6821H14.6796V78.7266C14.6796 77.771 14.3614 76.4973 13.0867 75.2227H9.9029ZM28.058 79.6821V78.4074C28.058 77.4519 28.3761 76.8155 29.0135 76.8155H29.969V76.4964C29.969 76.1772 29.969 76.1772 29.6508 76.1772C28.6953 76.1772 27.1034 76.4964 26.7842 76.4964C26.4651 76.4964 24.554 76.1772 23.2803 76.1772C22.9621 76.1772 22.643 76.1772 22.643 76.4964L22.9612 76.8155H23.9167C24.8722 77.1328 25.1914 77.4519 25.1914 78.4074V79.6821H28.058ZM43.0273 79.6821V78.4074C43.0273 77.4519 43.3455 76.8155 44.301 76.8155H44.9383L45.2565 76.4964C45.2565 76.1772 44.9383 76.1772 44.6192 76.1772C43.9819 76.1772 42.3899 76.4964 42.0718 76.4964C42.0718 76.4964 40.4789 76.1772 39.2052 76.1772C38.5678 76.1772 38.5678 76.1772 38.5678 76.4964C38.5678 76.4964 38.5678 76.8155 38.886 76.8155H39.8416C40.7971 77.1328 41.1153 77.4519 41.1153 78.4074V79.6821H43.0273ZM54.1754 79.6821C54.4936 77.772 56.0865 76.8165 57.9976 76.8165C60.546 76.8165 61.5015 78.0911 61.5015 78.4084C61.8197 78.7275 61.8197 79.3639 62.1388 79.6831H62.457V76.4983C62.457 76.4983 62.457 76.1791 62.1388 76.1791H61.1833C60.546 75.8619 59.5904 75.8619 58.3167 75.8619C55.4492 75.8619 53.2209 77.4538 52.5835 79.6831H54.1754V79.6821ZM75.8344 79.6821V78.4074C75.8344 77.4519 76.1526 76.8155 76.7899 76.8155H77.7455L78.0637 76.4964C78.0637 76.1772 77.7455 76.1772 77.4273 76.1772C76.4717 76.1772 74.5607 76.4964 74.5607 76.4964C74.2416 76.4964 72.3314 76.1772 71.375 76.1772C71.0568 76.1772 71.0568 76.1772 71.0568 76.4964C71.0568 76.4964 71.0568 76.8155 71.375 76.8155H72.0123C72.9678 76.8155 73.286 77.4519 73.286 78.4074V79.6821H75.8344ZM91.4411 79.6821C89.8473 78.0902 88.8927 77.1337 88.8927 76.8165C88.5736 76.4973 87.9372 75.8609 87.618 75.8609C87.618 75.8609 87.2989 76.1782 87.2989 77.4529V79.6821H91.4411ZM107.047 79.6821V79.363C107.047 77.771 107.047 77.1337 108.004 76.8165H108.641C108.96 76.8165 108.96 76.4973 108.96 76.4973C108.96 76.1782 108.96 76.1782 108.641 76.1782C107.366 76.1782 106.411 76.4973 106.092 76.4973C105.773 76.4973 104.182 76.1782 102.907 76.1782C102.588 76.1782 102.271 76.1782 102.271 76.4973C102.271 76.4973 102.271 76.8165 102.588 76.8165H103.863C104.818 77.1337 105.138 77.772 105.138 79.6821H107.047ZM120.424 79.6821V77.772V77.4529H124.565C126.158 77.772 126.477 78.0911 126.796 78.4084V79.6831H127.432V77.7729C127.751 76.8174 127.751 76.4983 127.751 76.1791H127.113H125.838C125.202 76.4983 119.15 76.4983 119.15 76.4983C118.832 76.4983 116.92 76.1791 115.648 76.1791C115.328 76.1791 115.328 76.1791 115.328 76.4983V76.8174H116.603C117.559 77.1347 117.559 77.4538 117.878 78.4093V79.684H120.424V79.6821ZM138.579 79.6821C138.897 77.772 140.171 76.8165 142.083 76.8165C144.949 76.8165 145.587 78.0911 145.904 78.4084C145.904 78.7275 146.224 79.3639 146.224 79.6831H146.86V76.4983C146.86 76.4983 146.86 76.1791 146.543 76.1791H145.587C144.63 75.8619 143.993 75.8619 142.72 75.8619C139.535 75.8619 137.306 77.4538 136.669 79.6831H138.579V79.6821ZM157.372 79.6821C157.372 77.772 158.964 76.8165 160.876 76.8165C163.741 76.8165 164.38 78.0911 164.697 78.4084C164.697 78.7275 165.016 79.3639 165.016 79.6831H165.335C165.335 77.7729 165.652 76.8174 165.652 76.4983L165.335 76.1791H164.06C163.422 75.8619 162.467 75.8619 161.512 75.8619C158.327 75.8619 156.098 77.4538 155.462 79.6831H157.372V79.6821Z" fill="#8F8F8F"/>
<path fill-rule="evenodd" clip-rule="evenodd" d="M5.7625 75.2228C5.7625 74.9036 5.7625 74.9036 6.0807 74.9036C6.71803 74.5864 7.35442 74.5864 7.67356 74.5864C8.62909 74.5864 9.26642 74.9036 9.90376 75.2228H13.0885C12.133 74.2672 10.5411 73.6309 7.9927 73.6309C6.39984 73.6309 5.12611 73.9481 4.48972 73.9481C4.17153 73.9481 2.26047 73.6309 0.667608 73.6309C0.349413 73.6309 0.0302734 73.9481 0.0302734 73.9481C0.0302734 74.2672 0.348468 74.2672 0.348468 74.2672H1.62314C2.25953 74.5864 2.57867 74.5864 2.89686 75.2228H5.7625Z" fill="#8F8F8F"/>
</svg>
