<svg width="200" height="35" viewBox="0 0 200 35" fill="none" xmlns="http://www.w3.org/2000/svg">
<g clip-path="url(#clip0_59_302)">
<path d="M0 0.0311924C5.63038 0.0384359 11.263 -0.0450217 16.8907 0.0823692C21.2287 0.180629 24.6277 3.09062 25.3594 7.06541C26.1875 11.5649 23.8236 15.4068 20.1767 16.4377C20.0841 16.4638 20.0087 16.5487 19.8841 16.6345C23.3602 17.6173 25.4351 19.8895 26.0193 23.2938C26.9827 28.9107 23.8457 33.526 17.9189 34.1791C16.6045 34.3236 15.2697 34.32 13.9441 34.3268C9.29623 34.3512 4.64803 34.3504 0.000159359 34.3592L0 0.0311924ZM7.48523 27.8054C7.58185 27.8382 7.67832 27.8994 7.77447 27.8994C10.1075 27.9032 12.4447 27.9849 14.7726 27.876C17.1815 27.7631 18.614 26.301 18.6778 24.1464C18.742 21.9815 17.4189 20.42 15.0597 20.1404C13.5684 19.9635 12.0452 20.0446 10.5362 20.0237C9.53635 20.01 8.53598 20.0212 7.48523 20.0212V27.8054ZM7.43421 13.6337C9.60906 13.6337 11.6741 13.6373 13.739 13.6305C14.1364 13.6291 14.5428 13.6324 14.9293 13.5556C16.3875 13.2665 17.4856 12.5281 17.8674 11.0271C18.4764 8.6341 16.932 6.56671 14.4248 6.44404C13.2591 6.3872 12.0886 6.4283 10.9204 6.4272C9.78732 6.42578 8.65397 6.42688 7.48571 6.42688C7.46243 6.67473 7.43612 6.8259 7.43596 6.97707C7.43325 9.15091 7.43421 11.3247 7.43421 13.6337ZM134.254 34.9889C133.374 34.8274 132.485 34.7034 131.615 34.4975C124.808 32.8861 121.339 27.0995 121.934 20.7055C122.432 15.3518 125.165 11.4378 130.37 9.62583C137.637 7.09596 146.064 10.5116 147.308 20.0609C147.472 21.3225 147.464 22.606 147.542 23.9927H128.775C129.21 26.3452 130.411 27.9956 132.506 28.8729C135.91 30.2986 139.099 29.5879 142.105 27.6769C142.283 27.564 142.447 27.4299 142.619 27.3084C142.636 27.2965 142.67 27.3069 142.79 27.3069C143.71 28.6439 144.66 30.0248 145.727 31.5764C144.759 32.1728 143.866 32.8192 142.89 33.3032C141.096 34.1937 139.167 34.6658 137.162 34.8307C136.934 34.8494 136.711 34.9344 136.486 34.9888L134.254 34.9889ZM141.064 19.474C141.195 16.3909 138.221 14.0365 134.455 14.1832C131.322 14.3053 128.538 16.9251 128.872 19.474H141.064ZM161.201 34.9889C160.118 34.7737 159.017 34.6215 157.955 34.3321C152.881 32.9499 149.381 28.7127 148.921 23.5341C148.486 18.6493 149.92 14.5095 153.891 11.4279C159.907 6.75819 171.732 7.81747 174.081 18.8662C174.249 19.6577 174.348 20.4704 174.399 21.2782C174.453 22.136 174.411 23 174.411 23.9922H155.767C155.929 25.3733 156.472 26.4838 157.373 27.4023C159.435 29.5042 162.009 29.8997 164.789 29.4179C166.561 29.1107 168.197 28.446 169.669 27.2004L172.67 31.5456C171.889 32.0619 171.181 32.608 170.403 33.0281C168.471 34.0725 166.379 34.6236 164.188 34.8259C163.934 34.8494 163.685 34.933 163.433 34.9886C162.689 34.9889 161.945 34.9889 161.201 34.9889ZM155.811 19.4696H168.016C168.173 16.4812 165.269 14.1075 161.62 14.1779C158.381 14.2401 155.578 16.7693 155.811 19.4696ZM37.7889 34.9889C36.9913 34.8277 36.1885 34.688 35.397 34.5016C30.4944 33.3476 27.5983 29.7234 27.594 24.7414C27.5902 19.9661 27.5932 15.1906 27.5932 10.4152V9.55938H34.2201V10.4713C34.2201 14.9844 34.2335 19.4974 34.2141 24.0105C34.205 26.0575 34.8391 27.7911 36.8032 28.6819C38.932 29.6473 41.1119 29.612 43.0812 28.2268C44.5238 27.2126 44.9315 25.6599 44.9345 23.9917C44.9433 19.5048 44.9377 15.018 44.9377 10.5313V9.54457H51.4925L51.4929 10.4291C51.4929 15.1521 51.4951 19.8751 51.4921 24.5981C51.4887 30.2973 47.8969 34.215 42.1405 34.8122C41.8564 34.8418 41.5781 34.9283 41.297 34.9883C40.1275 34.9889 38.9581 34.9889 37.7889 34.9889ZM100.362 34.2803V0.05434H124.467V3.37438C124.467 4.10912 124.417 4.84811 124.481 5.5775C124.544 6.30374 124.249 6.44467 123.572 6.4409C118.816 6.41413 114.06 6.42672 109.303 6.42672H107.799V13.6337H108.697C112.284 13.6337 115.871 13.654 119.458 13.617C120.183 13.6096 120.353 13.8371 120.336 14.5135C120.292 16.3168 120.321 18.1218 120.321 20.0155H107.745V34.2803H100.362ZM176.09 34.2669V33.3665C176.09 25.707 176.09 18.048 176.091 10.3884C176.091 9.38301 176.092 9.37419 177.143 9.3838C180.78 9.41687 184.431 9.26381 188.049 9.54048C193.205 9.93446 197.24 12.2277 199.15 17.2537C201.092 22.361 199.612 28.1898 195.668 31.3831C193.344 33.2643 190.609 34.1907 187.663 34.2956C183.923 34.4293 180.175 34.3378 176.43 34.3405C176.354 34.3406 176.278 34.3088 176.09 34.2669ZM182.41 29.014C183.68 29.014 184.87 29.0143 186.059 29.014C190.338 29.0126 193.033 26.6309 193.513 22.4257C193.857 19.4064 192.203 16.4034 189.57 15.3372C187.25 14.3983 184.826 14.8975 182.411 14.7648C182.41 19.5595 182.41 24.2211 182.41 29.014ZM64.8518 15.1499H53.6237V9.53371H73.9222C73.9222 10.5933 73.8683 11.6581 73.938 12.7153C74.0021 13.6899 73.7019 14.4427 73.0789 15.2079C69.703 19.3568 66.3802 23.5475 63.0402 27.7246C62.8609 27.9487 62.6905 28.1796 62.4113 28.5436H74.057V34.2677H53.5622C53.5622 32.7042 53.5389 31.1414 53.5842 29.5802C53.592 29.3122 53.8646 29.0329 54.0568 28.7915C57.4834 24.4814 60.917 20.1769 64.347 15.8694C64.4897 15.6897 64.6115 15.4935 64.8518 15.1499ZM75.8708 15.1562C75.8708 13.3839 75.8692 11.7593 75.8732 10.1346C75.8736 9.95541 75.9035 9.77621 75.9249 9.54379H96.1606C96.1606 11.0537 96.1773 12.5394 96.1429 14.024C96.1376 14.2478 95.9141 14.4835 95.7542 14.6843C92.2698 19.0512 88.7798 23.4137 85.2929 27.7785C85.1207 27.9941 84.967 28.2243 84.6988 28.5931H85.7146C89.0083 28.5931 92.3023 28.6068 95.5963 28.5813C96.2083 28.5767 96.4368 28.7252 96.4189 29.3692C96.3741 30.9894 96.4041 32.6118 96.4041 34.282H75.8906C75.8906 32.6641 75.8775 31.0729 75.9072 29.4826C75.9107 29.2832 76.1226 29.0751 76.2669 28.8937C79.6127 24.6861 82.963 20.4821 86.312 16.2768C86.5678 15.9554 86.8181 15.6297 87.188 15.1561L75.8708 15.1562Z" fill="#A3A3A3"/>
</g>
<defs>
<clipPath id="clip0_59_302">
<rect width="200" height="35" fill="white"/>
</clipPath>
</defs>
</svg>
