<svg width="202" height="115" viewBox="0 0 202 115" fill="none" xmlns="http://www.w3.org/2000/svg">
<path d="M65.6599 102.763H57.397V70.0342H65.6599V102.763Z" fill="#A3A3A3"/>
<path d="M132.286 79.4119C131.946 79.2392 129.287 77.6645 125.335 77.6645C119.993 77.6645 116.286 81.3791 116.286 86.3939C116.286 91.2569 119.833 95.1312 125.335 95.1312C129.219 95.1312 131.922 93.5878 132.286 93.3942V102.179C131.25 102.466 128.426 103.343 124.756 103.343C115.462 103.343 107.304 96.9389 107.304 86.3913C107.304 76.6207 114.685 69.4529 124.756 69.4529C128.63 69.4529 131.504 70.3948 132.286 70.6276V79.4119ZM46.0381 79.4119C45.7057 79.2392 43.0491 77.6645 39.097 77.6645C33.7446 77.6645 30.0411 81.3791 30.0411 86.3939C30.0411 91.2569 33.5902 95.1312 39.097 95.1312C42.9811 95.1312 45.6821 93.5878 46.0381 93.3942V102.179C45.0121 102.466 42.1907 103.343 38.5003 103.343C29.2141 103.343 21.0664 96.9389 21.0664 86.3913C21.0664 76.6207 28.4472 69.4529 38.5029 69.4529C42.3922 69.4529 45.2608 70.3948 46.0381 70.6276V79.4119ZM158.279 77.7874C153.376 77.7874 149.736 81.6433 149.736 86.3939C149.736 91.1549 153.376 95.0083 158.279 95.0083C163.175 95.0083 166.827 91.1549 166.827 86.3939C166.827 81.6433 163.175 77.7874 158.279 77.7874ZM175.581 86.3939C175.581 95.7564 168.35 103.343 158.281 103.343C148.207 103.343 140.986 95.7564 140.986 86.3913C140.986 77.0471 148.21 69.4529 158.279 69.4529C168.35 69.4529 175.581 77.0471 175.581 86.3939ZM96.9944 77.4735C96.8714 77.4343 93.393 76.4742 90.5349 76.4742C87.224 76.4742 85.4233 77.5834 85.4233 79.1556C85.4233 81.149 87.8521 81.8447 89.2105 82.2737L91.4902 82.9984C96.8556 84.704 99.2976 88.3742 99.2976 92.3609C99.2976 100.583 92.0634 103.345 85.74 103.345C81.3455 103.345 77.2285 102.534 76.8228 102.451V94.9166C77.5504 95.0998 81.0157 96.1357 84.625 96.1357C88.7368 96.1357 90.6265 94.9324 90.6265 93.0803C90.6265 91.4218 88.9906 90.4643 86.9413 89.8208C86.444 89.6534 85.6902 89.4179 85.1772 89.2505C80.576 87.796 76.7391 85.0912 76.7391 79.6761C76.7391 73.5548 81.3246 69.4451 88.9409 69.4451C92.9637 69.4451 96.7483 70.4209 96.9944 70.4863V77.4708V77.4735Z" fill="#A3A3A3"/>
<path d="M12.3036 34.862C12.3036 32.6071 10.4611 30.7784 8.20232 30.7784C5.94359 30.7784 4.09839 32.607 4.09839 34.8593V43.4528C4.12542 44.5224 4.56953 45.5391 5.33597 46.2861C6.10242 47.033 7.13054 47.451 8.20102 47.451C9.27151 47.451 10.2996 47.033 11.0661 46.2861C11.8325 45.5391 12.2766 44.5224 12.3036 43.4528V34.862ZM34.836 23.5873C34.836 22.4997 34.4037 21.4567 33.6344 20.6877C32.865 19.9187 31.8215 19.4867 30.7334 19.4867C29.6453 19.4867 28.6018 19.9187 27.8324 20.6877C27.063 21.4567 26.6307 22.4997 26.6307 23.5873V43.4528C26.6307 44.5403 27.063 45.5833 27.8324 46.3523C28.6018 47.1213 29.6453 47.5533 30.7334 47.5533C31.8215 47.5533 32.865 47.1213 33.6344 46.3523C34.4037 45.5833 34.836 44.5403 34.836 43.4528V23.5845V23.5873ZM57.371 8.15832C57.371 5.90337 55.5284 4.07217 53.2697 4.07217C51.0083 4.07217 49.1657 5.90337 49.1657 8.15832V51.6171C49.1928 52.6867 49.6369 53.7034 50.4033 54.4504C51.1698 55.1973 52.1979 55.6155 53.2683 55.6155C54.3388 55.6155 55.3669 55.1973 56.1334 54.4504C56.8998 53.7034 57.3439 52.6867 57.371 51.6171V8.15832ZM79.9033 23.5873C79.9033 22.4997 79.4711 21.4567 78.7017 20.6877C77.9323 19.9187 76.8888 19.4867 75.8007 19.4867C74.7126 19.4867 73.6691 19.9187 72.8997 20.6877C72.1303 21.4567 71.6981 22.4997 71.6981 23.5873V43.4528C71.6981 44.5403 72.1303 45.5833 72.8997 46.3523C73.6691 47.1213 74.7126 47.5533 75.8007 47.5533C76.8888 47.5533 77.9323 47.1213 78.7017 46.3523C79.4711 45.5833 79.9033 44.5403 79.9033 43.4528V23.5845V23.5873ZM102.412 34.862C102.413 33.7801 101.984 32.7423 101.219 31.9765C100.454 31.2108 99.4168 30.7798 98.3344 30.7784C97.2496 30.7777 96.2088 31.207 95.44 31.9719C94.6712 32.7369 94.2372 33.7751 94.2331 34.8593V43.4528C94.2331 44.5369 94.6639 45.5765 95.4308 46.3431C96.1978 47.1096 97.238 47.5402 98.3226 47.5402C99.4072 47.5402 100.447 47.1096 101.214 46.3431C101.981 45.5765 102.412 44.5369 102.412 43.4528V34.862ZM124.955 23.5873C124.928 22.5211 124.485 21.5076 123.721 20.7631C122.957 20.0186 121.932 19.6018 120.865 19.6018C119.798 19.6018 118.774 20.0186 118.01 20.7631C117.246 21.5076 116.803 22.5211 116.776 23.5873V43.4528C116.776 44.5369 117.207 45.5765 117.974 46.3431C118.741 47.1096 119.781 47.5402 120.865 47.5402C121.95 47.5402 122.99 47.1096 123.757 46.3431C124.524 45.5765 124.955 44.5369 124.955 43.4528V23.5845V23.5873ZM147.503 8.15832C147.503 7.07427 147.072 6.0346 146.305 5.26806C145.538 4.50152 144.498 4.07089 143.413 4.07089C142.329 4.07089 141.289 4.50152 140.522 5.26806C139.755 6.0346 139.324 7.07427 139.324 8.15832V51.6171C139.3 52.169 139.388 52.7199 139.582 53.2369C139.777 53.7539 140.074 54.2262 140.456 54.6252C140.838 55.0243 141.297 55.3418 141.806 55.5588C142.314 55.7757 142.861 55.8877 143.413 55.8877C143.966 55.8877 144.513 55.7757 145.021 55.5588C145.53 55.3418 145.989 55.0243 146.371 54.6252C146.753 54.2262 147.05 53.7539 147.245 53.2369C147.439 52.7199 147.527 52.169 147.503 51.6171V8.15832ZM170.046 23.5873C170.046 21.3297 168.216 19.4958 165.905 19.4958C164.821 19.4965 163.781 19.9276 163.014 20.6943C162.248 21.461 161.817 22.5006 161.817 23.5845V43.4528C161.817 45.7208 163.649 47.5493 165.905 47.5493C168.216 47.5493 170.046 45.7208 170.046 43.4528V23.5845V23.5873ZM192.547 34.862C192.547 33.7769 192.116 32.7362 191.348 31.9689C190.58 31.2016 189.539 30.7706 188.453 30.7706C187.368 30.7706 186.326 31.2016 185.559 31.9689C184.791 32.7362 184.36 33.7769 184.36 34.862V43.4528C184.36 45.7208 186.195 47.5519 188.453 47.5519C190.709 47.5519 192.544 45.7208 192.544 43.4528V34.862H192.547Z" fill="#A3A3A3"/>
<path d="M187.817 98.4509V98.9636H186.357V102.759H185.755V98.9663H184.289V98.4509H187.817ZM188.124 98.4509H189.063L190.354 101.985H190.375L191.623 98.4534H192.544V102.759H191.929V99.2278H191.908L190.6 102.759H190.032L188.754 99.2278H188.726V102.759H188.124V98.4509Z" fill="#A3A3A3"/>
</svg>
