<svg width="193" height="193" viewBox="0 0 193 193" fill="none" xmlns="http://www.w3.org/2000/svg">
<path fill-rule="evenodd" clip-rule="evenodd" d="M62.0415 101.612C63.6054 101.612 64.7229 100.498 64.7229 98.9331V58.2867C64.7229 43.0995 84.1634 35.7292 94.4414 53.3725C104.944 71.4623 110.754 81.9606 110.754 81.9606V58.2867C110.754 43.0995 130.195 35.9525 140.474 53.5958C146.034 63.0658 151.619 72.5208 157.231 81.9606V43.5461H180.248V110.771C180.248 128.191 159.913 130.87 151.646 117.025C146.73 108.76 134.218 87.9902 134.218 87.9902V110.771C134.218 128.191 113.883 130.87 105.392 117.025C100.476 108.76 87.9622 87.9902 87.9622 87.9902V108.537C87.9622 119.258 81.7063 124.841 72.0972 124.841H49.7509C-7.67567 124.841 -8.12324 43.5451 48.8568 43.5451H61.5929V66.5491H47.7394C24.2767 66.5491 21.8186 101.612 49.3034 101.612H62.0415Z" fill="#8F8F8F"/>
<path d="M168.627 43.5461V109.431C168.627 113.675 164.829 114.569 162.817 111.664C162.817 111.664 135.555 68.3365 128.852 57.1694C126.841 54.2667 122.373 55.1598 122.373 59.4022V109.43C122.373 113.674 118.573 114.568 116.562 111.663C116.562 111.663 89.5241 68.3355 82.5974 57.1684C80.5868 54.2657 76.3415 55.1588 76.3415 59.4012V108.982C76.3415 111.215 74.3299 113.225 72.0961 113.225H48.1869C7.29515 113.225 8.63585 55.1578 47.0694 55.1578H61.8181" stroke="#2A2A2A" stroke-width="4" stroke-miterlimit="2.613"/>
</svg>
