<svg width="55" height="55" viewBox="0 0 55 55" fill="none" xmlns="http://www.w3.org/2000/svg">
<g clip-path="url(#clip0_179_297)">
<path d="M30.9376 29.7917C28.0684 29.7917 25.3505 28.7398 23.2834 26.8285C22.8205 26.4 22.7907 25.6735 23.2215 25.2083C23.6524 24.7477 24.3742 24.7156 24.8417 25.1465C26.4826 26.6635 28.6482 27.5 30.9376 27.5C35.993 27.5 40.1042 23.3888 40.1042 18.3333C40.1042 13.2779 35.993 9.16667 30.9376 9.16667C25.8822 9.16667 21.7709 13.2779 21.7709 18.3333C21.7709 19.2385 21.8947 20.1163 22.1353 20.9458C22.314 21.5508 21.9657 22.1902 21.3584 22.3667C20.7442 22.5454 20.114 22.1948 19.9376 21.5898C19.6328 20.5517 19.4792 19.4563 19.4792 18.3333C19.4792 12.0152 24.6195 6.875 30.9376 6.875C37.2557 6.875 42.3959 12.0152 42.3959 18.3333C42.3959 24.6515 37.2557 29.7917 30.9376 29.7917Z" fill="#00CCAA"/>
<path d="M24.1083 26.3083C23.815 26.3083 23.5217 26.196 23.2971 25.9738C22.8502 25.5269 22.8502 24.8004 23.2971 24.3535L29.7917 17.859V8.02083C29.7917 7.38833 30.305 6.875 30.9375 6.875C31.57 6.875 32.0833 7.38833 32.0833 8.02083V18.3333C32.0833 18.6381 31.9619 18.9292 31.7487 19.1446L24.9196 25.9738C24.6927 26.1983 24.3994 26.3083 24.1083 26.3083Z" fill="#00CCAA"/>
<path d="M14.8957 45.8331C14.6367 45.8331 14.3754 45.746 14.1623 45.5672C13.6765 45.1616 13.6123 44.442 14.0179 43.9539L16.4654 41.016C18.1659 38.9741 18.4982 36.1187 17.3088 33.7422C17.0865 33.3022 17.1736 32.7683 17.5242 32.42L21.7019 28.2422C23.3725 26.5716 23.3725 23.8491 21.7019 22.1785L8.79753 34.0722C8.33461 34.5031 7.60586 34.4756 7.17961 34.0081C6.74878 33.5429 6.77857 32.8164 7.24378 32.3902L20.1482 20.4964C21.0534 19.6622 22.4467 19.6852 23.3221 20.5583C25.8865 23.1227 25.8865 27.2981 23.3221 29.8647L19.699 33.4879C20.8723 36.5106 20.3269 39.9618 18.2232 42.4872L15.7757 45.4206C15.5488 45.691 15.2234 45.8331 14.8957 45.8331Z" fill="#00CCAA"/>
<path d="M21.7708 54.9999H1.14583C0.513333 54.9999 0 54.4865 0 53.854V36.4465C0 31.1001 2.54375 25.9805 6.80625 22.7492L11.5683 19.1376C12.0679 18.7572 12.7875 18.8511 13.1725 19.3599C13.5552 19.864 13.4567 20.5813 12.9502 20.964L8.18813 24.5757C4.49625 27.3761 2.29167 31.8128 2.29167 36.4465V52.7082H20.625V49.2776C20.625 48.6451 21.1383 48.1317 21.7708 48.1317C24.2985 48.1317 26.3542 46.0761 26.3542 43.5484V42.3957C26.3542 41.7632 26.8675 41.2499 27.5 41.2499C28.1325 41.2499 28.6458 41.7632 28.6458 42.3957V43.5484C28.6458 46.947 26.164 49.7817 22.9167 50.3272V53.854C22.9167 54.4865 22.4033 54.9999 21.7708 54.9999Z" fill="#00CCAA"/>
<path d="M46.9791 43.5417H17.1874C16.5549 43.5417 16.0416 43.0283 16.0416 42.3958C16.0416 41.7633 16.5549 41.25 17.1874 41.25H46.9791C47.6093 41.25 48.1249 40.7344 48.1249 40.1042V3.4375C48.1249 2.80729 47.6093 2.29167 46.9791 2.29167H14.8958C14.2655 2.29167 13.7499 2.80729 13.7499 3.4375V29.0033C13.7499 29.6358 13.2366 30.1492 12.6041 30.1492C11.9716 30.1492 11.4583 29.6381 11.4583 29.0033V3.4375C11.4583 1.54229 13.0005 0 14.8958 0H46.9791C48.8743 0 50.4166 1.54229 50.4166 3.4375V40.1042C50.4166 41.9994 48.8743 43.5417 46.9791 43.5417Z" fill="#00CCAA"/>
</g>
<defs>
<clipPath id="clip0_179_297">
<rect width="55" height="55" fill="white"/>
</clipPath>
</defs>
</svg>
