<svg width="55" height="55" viewBox="0 0 55 55" fill="none" xmlns="http://www.w3.org/2000/svg">
<path d="M38.0942 17.0471L42.2862 11.4008L33.3793 8.60799L27.9709 1L22.5625 8.60788L13.6556 11.4007L17.8502 17.0506C10.0223 17.5073 3.79346 24.0195 3.79346 31.96C3.79346 40.1958 10.4938 46.896 18.7294 46.896H21.6141V55L33.507 46.896H37.2705C45.5061 46.896 52.2065 40.1957 52.2065 31.96C52.2066 24.0007 45.9484 17.4761 38.0942 17.0471ZM24.5298 11.3158L27.9709 6.4753L31.412 11.3158L37.0789 13.0927L33.5386 17.8611L33.6 23.7997L27.9709 21.9063L22.3418 23.7997L22.4032 17.8611L18.8629 13.0927L24.5298 11.3158ZM37.2705 43.7236H32.5288L24.7866 48.9994V43.7236H18.7295C12.2431 43.7236 6.96596 38.4465 6.96596 31.96C6.96596 25.4736 12.2431 20.1965 18.7295 20.1965H19.2066L19.1237 28.2295L27.971 25.2536L36.8184 28.2295L36.7355 20.1965H37.2706C43.757 20.1965 49.0342 25.4736 49.0342 31.96C49.0341 38.4465 43.7569 43.7236 37.2705 43.7236Z" fill="#00CCAA"/>
<path d="M18.8916 31.8745H22.2445V35.047H18.8916V31.8745Z" fill="#00CCAA"/>
<path d="M26.2944 31.8745H29.6474V35.047H26.2944V31.8745Z" fill="#00CCAA"/>
<path d="M33.6975 31.8745H37.0504V35.047H33.6975V31.8745Z" fill="#00CCAA"/>
</svg>
