<svg width="15" height="14" viewBox="0 0 15 14" fill="none" xmlns="http://www.w3.org/2000/svg">
<path d="M14.0084 2.45487C14.0084 1.25695 12.9558 0.199953 11.7628 0.199953L2.71041 0.199952C1.51745 0.199951 0.464844 1.25694 0.464843 2.45487L0.464842 11.545C0.464842 12.7429 1.51745 13.8 2.7104 13.8L7.27171 13.8L7.27171 8.65591L5.58754 8.65591L5.58754 6.40099L7.27171 6.40099L7.27171 5.48493C7.27171 3.93467 8.3945 2.5958 9.79798 2.5958L11.6225 2.5958L11.6225 4.85072L9.79798 4.85072C9.58745 4.85072 9.37693 5.06213 9.37693 5.48493L9.37693 6.40099L11.6225 6.40099L11.6225 8.65591L9.37693 8.65591L9.37693 13.8L11.7628 13.8C12.9558 13.8 14.0084 12.7429 14.0084 11.545L14.0084 2.45487Z" fill="#868686"/>
</svg>
