<svg width="258" height="100" viewBox="0 0 258 100" fill="none" xmlns="http://www.w3.org/2000/svg">
<path d="M151.017 35.2694C147.773 35.2694 145.224 35.9646 142.674 37.3525C142.674 29.9438 142.674 23.2303 142.907 20.9158L127.377 23.6929V25.0821L128.999 25.3134C131.083 25.7761 131.782 26.9326 132.241 29.7124C132.708 35.2694 132.474 64.9058 132.241 69.7688C136.413 70.6954 140.818 71.3906 145.223 71.3906C157.507 71.3906 164.924 63.7492 164.924 51.7088C164.924 42.2168 158.898 35.2694 151.017 35.2694ZM145.686 68.8422C144.758 68.8422 143.598 68.8422 142.905 68.6122C142.672 65.3711 142.442 51.7088 142.672 39.6697C144.062 39.2057 144.989 38.9744 146.149 38.9744C151.251 38.9744 154.033 44.994 154.033 52.4014C154.031 61.666 150.554 68.8422 145.686 68.8422ZM68.9661 21.841H28.1721V23.9242L30.4904 24.1555C33.5019 24.6182 34.6624 26.47 35.1241 30.869C35.8215 39.2044 35.5886 54.2559 35.1241 61.4307C34.661 65.8311 33.5033 67.9156 30.4904 68.1442L28.1721 68.6095V70.4614H54.3634V68.6095L51.582 68.1442C48.5691 67.9142 47.41 65.8311 46.9469 61.4307C46.714 58.4196 46.4824 53.5566 46.4824 47.5384L52.0451 47.7697C55.5225 47.7697 57.1434 50.5482 57.8394 54.4832H59.9261V38.0492H57.8394C57.142 41.9855 55.5225 44.7626 52.0451 44.7626L46.4838 44.9953C46.4838 37.1225 46.7153 29.7138 46.9482 25.3148H55.0594C61.3194 25.3148 64.5639 29.2498 66.8808 36.1973L69.199 35.502L68.9661 21.841Z" fill="#A3A3A3"/>
<path d="M82.1784 34.8068C93.7682 34.8068 99.5624 42.6795 99.5624 53.098C99.5624 63.054 93.0722 71.392 81.4824 71.392C69.8939 71.392 64.0996 63.5179 64.0996 53.098C64.0996 43.1421 70.5885 34.8068 82.1784 34.8068ZM81.4824 37.1226C76.3828 37.1226 74.9921 44.0687 74.9921 53.098C74.9921 61.896 77.3103 69.0735 81.9468 69.0735C87.2739 69.0735 88.6673 62.1274 88.6673 53.098C88.6673 44.3 86.3517 37.1226 81.4824 37.1226ZM167.936 53.3307C167.936 43.8374 173.961 34.8068 185.783 34.8068C195.515 34.8068 200.153 41.9855 200.153 51.4775H178.597C178.364 60.0442 182.536 66.2964 190.881 66.2964C194.59 66.2964 196.444 65.3725 198.763 63.7506L199.688 64.9071C197.37 68.1482 192.272 71.392 185.783 71.392C175.352 71.3907 167.936 63.9819 167.936 53.3307ZM178.597 48.9317L189.49 48.699C189.49 44.0687 188.794 37.1226 184.855 37.1226C180.916 37.1226 178.827 43.6048 178.597 48.9317ZM227.739 36.6599C224.957 35.5007 221.25 34.8068 217.078 34.8068C208.503 34.8068 203.17 39.8997 203.17 45.9206C203.17 51.9415 207.106 54.4873 212.675 56.3405C218.468 58.4223 220.092 60.0442 220.092 62.8226C220.092 65.6011 218.005 68.1469 214.296 68.1469C209.894 68.1469 206.647 65.6011 204.098 58.6536L202.475 59.1189L202.708 69.3061C205.489 70.4627 210.587 71.3907 214.992 71.3907C224.032 71.3907 229.828 66.7577 229.828 59.5815C229.828 54.7186 227.277 51.9415 221.251 49.6243C214.759 47.0785 212.444 45.4579 212.444 42.4468C212.444 39.4371 214.533 37.3526 217.315 37.3526C221.484 37.3526 224.265 39.8997 226.355 46.1519L227.976 45.6893L227.739 36.6599ZM129.693 35.7334C125.754 33.4202 118.799 34.5754 115.091 42.9121L115.322 34.8081L99.794 37.8179V39.2071L101.416 39.4384C103.504 39.6711 104.429 40.8276 104.662 43.8387C105.125 49.3957 104.894 59.1216 104.662 63.9832C104.429 66.759 103.504 68.1482 101.416 68.3809L99.794 68.6135V70.4654H121.349V68.6135L118.567 68.3809C116.251 68.1482 115.555 66.759 115.322 63.9832C114.859 59.5829 114.859 50.7849 115.091 45.228C116.249 43.6061 121.349 42.2182 125.984 45.228L129.693 35.7334Z" fill="#A3A3A3"/>
</svg>
