<svg width="207" height="48" viewBox="0 0 207 48" fill="none" xmlns="http://www.w3.org/2000/svg">
<path d="M26.5978 10.988V36.8964C26.5978 39.8106 27.7552 42.6054 29.8155 44.666C31.8758 46.7267 34.6701 47.8843 37.5838 47.8843C40.4975 47.8843 43.2918 46.7267 45.3521 44.666C47.4124 42.6054 48.5698 39.8106 48.5698 36.8964V10.988C48.5698 8.07376 47.4124 5.27894 45.3521 3.2183C43.2918 1.15766 40.4975 0 37.5838 0C34.6701 0 31.8758 1.15766 29.8155 3.2183C27.7552 5.27894 26.5978 8.07376 26.5978 10.988ZM34.4614 36.8964V10.988C34.4567 10.5718 34.5391 10.1592 34.7032 9.77675C34.8674 9.39429 35.1097 9.05042 35.4147 8.76721C35.7196 8.484 36.0804 8.26772 36.4739 8.13228C36.8674 7.99683 37.2848 7.94521 37.6994 7.98072C38.0978 7.96786 38.4945 8.03685 38.8651 8.18343C39.2357 8.33 39.5723 8.55105 39.8541 8.8329C40.1359 9.11475 40.3569 9.45142 40.5035 9.82209C40.65 10.1928 40.719 10.5896 40.7061 10.988V36.8964C40.6942 37.6902 40.3736 38.4482 39.8123 39.0096C39.251 39.571 38.4931 39.8917 37.6994 39.9036C37.2893 39.9191 36.8802 39.8535 36.4955 39.7107C36.1107 39.5679 35.7579 39.3507 35.4571 39.0714C35.1564 38.7921 34.9137 38.4562 34.7428 38.083C34.572 37.7098 34.4764 37.3066 34.4614 36.8964ZM111.942 0.578313H89.7385V8.44337H96.9084V47.0747H104.772V8.44337H111.942V0.578313ZM135.07 0.578313V36.8964C135.07 37.694 134.754 38.4589 134.19 39.0228C133.626 39.5868 132.861 39.9036 132.064 39.9036C131.266 39.9036 130.501 39.5868 129.938 39.0228C129.374 38.4589 129.057 37.694 129.057 36.8964V0.578313H120.962V36.8964C120.962 39.8412 122.132 42.6655 124.214 44.7478C126.296 46.8302 129.119 48 132.064 48C135.008 48 137.832 46.8302 139.914 44.7478C141.996 42.6655 143.165 39.8412 143.165 36.8964V0.578313H135.07ZM207 8.44337V0.578313H187.572V47.0747H207V39.2096H195.436V27.1807H202.837V19.3157H195.436V8.44337H207ZM82.3374 47.0747H74.0112L68.229 25.0988C69.6717 24.8133 70.9694 24.0331 71.8983 22.8929C72.8273 21.7526 73.3291 20.3238 73.3173 18.853V11.6819C73.3268 11.254 73.2495 10.8287 73.0901 10.4315C72.9308 10.0343 72.6926 9.67346 72.39 9.37082C72.0874 9.06818 71.7267 8.82998 71.3296 8.67059C70.9324 8.51119 70.5071 8.4339 70.0793 8.44337H67.0726V47.0747H59.2089V0.578313H70.0793C72.9521 0.552547 75.7212 1.65096 77.7953 3.63908C79.8695 5.6272 81.0845 8.3475 81.181 11.2193V18.6217C81.2866 20.5427 80.9447 22.4621 80.1821 24.2284C79.4195 25.9947 78.2571 27.5597 76.7866 28.8L82.3374 47.0747ZM169.994 0.578313V26.0241L161.899 0.578313H153.804V47.0747H161.899V24.4048L169.301 47.0747H178.089V0.578313H169.994ZM0 1.27229V47.7687H8.32626V27.8747H15.9587V20.0096H8.32626V9.13735H20.3531V1.27229H0Z" fill="#A3A3A3"/>
</svg>
