<svg width="310" height="220" viewBox="0 0 310 220" fill="none" xmlns="http://www.w3.org/2000/svg">
<path fill-rule="evenodd" clip-rule="evenodd" d="M77.6967 105.66H93.6976V87H102.442V133H93.6976V113.782H77.6967V133H69V87H77.6967V105.66ZM118.721 127.29C115.977 127.29 114.627 126.964 114.627 124.645C114.627 122.092 116.069 121.442 119.233 121.442H128.07V127.29H118.721ZM108.767 104.732V110.581H121.233C125.977 110.581 128.023 111.555 128.023 115.13V115.825H118.163C110.302 115.825 106.907 118.286 106.907 124.83C106.907 130.03 110.022 133 115.651 133H135.743V115.314C135.743 108.352 131.836 104.732 124.069 104.732H108.767ZM157.046 104.732C162.954 104.732 165 106.635 165 111.88V116.567H158.86V112.947C158.86 110.44 157 110.161 154.582 110.161H147.604V132.999H140.115V104.732H157.046Z" fill="#8F8F8F"/>
<path fill-rule="evenodd" clip-rule="evenodd" d="M184.909 126.683C187.585 126.683 188.926 125.899 188.926 123.962C188.926 121.981 187.585 121.196 184.909 121.196H178.535C171.7 121.196 168.836 119.813 168.836 113.267C168.836 107.226 171.978 104.461 178.719 104.461H194.698V110.317H181.583C178.211 110.317 176.457 110.546 176.457 112.898C176.457 114.649 177.565 115.387 179.966 115.387H186.662C192.852 115.387 196.131 118.383 196.131 123.731C196.131 128.985 192.852 132.535 188.418 132.535H159V126.682H184.909V126.683ZM224.024 126.498V132.536H213.956C209.338 132.536 206.013 131.707 203.426 129.172C200.841 126.683 199.27 122.856 199.27 118.613C199.27 114.234 200.794 110.317 203.426 107.827C206.013 105.336 209.338 104.461 213.956 104.461H224.024V110.547H216.171C209.799 110.547 206.982 112.161 206.982 118.614C206.982 121.981 207.998 124.239 210.308 125.623C211.785 126.499 213.633 126.499 216.171 126.499H224.024V126.498ZM235.801 118.522C235.801 113.083 238.847 110.086 243.559 110.086C248.455 110.086 251.457 113.083 251.457 118.522C251.457 123.962 248.409 127.005 243.559 127.005C238.755 127.005 235.801 123.962 235.801 118.522ZM260 118.522C260 109.81 253.671 104 243.652 104C233.538 104 227.211 109.81 227.211 118.522C227.211 127.19 233.538 133 243.652 133C253.765 133 260 127.19 260 118.522Z" fill="#8F8F8F"/>
</svg>
