<svg width="59" height="59" viewBox="0 0 59 59" fill="none" xmlns="http://www.w3.org/2000/svg">
<path d="M19.0285 20.1936H38.9328C39.355 20.1936 39.697 19.848 39.697 19.4217C39.697 18.9953 39.355 18.6497 38.9328 18.6497H19.0285C18.6064 18.6497 18.2644 18.9953 18.2644 19.4217C18.2644 19.848 18.6065 20.1936 19.0285 20.1936Z" fill="#00CCAA"/>
<path d="M19.0284 24.7376H26.1203C26.5424 24.7376 26.8844 24.392 26.8844 23.9657C26.8844 23.5393 26.5424 23.1937 26.1203 23.1937H19.0285C18.6064 23.1937 18.2644 23.5393 18.2644 23.9657C18.2644 24.392 18.6064 24.7376 19.0284 24.7376Z" fill="#00CCAA"/>
<path d="M19.0285 38.3698H30.3996C30.8217 38.3698 31.1637 38.0242 31.1637 37.5979C31.1637 37.1715 30.8217 36.8259 30.3996 36.8259H19.0285C18.6064 36.8259 18.2644 37.1715 18.2644 37.5979C18.2644 38.0242 18.6065 38.3698 19.0285 38.3698Z" fill="#00CCAA"/>
<path d="M22.8628 14.3241H35.099C35.5212 14.3241 35.8632 13.9785 35.8632 13.5521C35.8632 13.1258 35.5212 12.7802 35.099 12.7802H22.8628C22.4407 12.7802 22.0986 13.1258 22.0986 13.5521C22.0986 13.9785 22.4408 14.3241 22.8628 14.3241Z" fill="#00CCAA"/>
<path d="M51.3082 36.3002L50.0115 37.6108V37.4224C50.0115 36.7125 49.4403 36.1351 48.738 36.1351H47.2289V34.5616H48.738C49.4403 34.5616 50.0115 33.9842 50.0115 33.2743V32.006C50.0115 31.5795 49.6695 31.2337 49.2474 31.2337C48.8253 31.2337 48.4832 31.5795 48.4832 32.006V33.0169H38.7602V23.1894H48.4832V24.6651L44.2872 28.9063L41.539 26.1286C41.2405 25.827 40.7567 25.827 40.4583 26.1286C40.1599 26.4303 40.1599 26.9193 40.4583 27.2208L43.7468 30.5447C43.896 30.6956 44.0916 30.771 44.2872 30.771C44.4827 30.771 44.6783 30.6956 44.8276 30.5447L48.4833 26.8498V28.4017C48.4833 28.8283 48.8254 29.1741 49.2475 29.1741C49.6696 29.1741 50.0116 28.8283 50.0116 28.4017V25.305L52.389 22.9021C52.6875 22.6005 52.6875 22.1114 52.389 21.8099C52.0905 21.5082 51.6068 21.5082 51.3083 21.8099L50.0116 23.1205V22.932C50.0116 22.2222 49.4404 21.6448 48.7381 21.6448H47.229V7.13523C47.229 6.53898 46.7491 6.05394 46.1592 6.05394H42.8491V2.70823C42.8491 2.11197 42.3692 1.62694 41.7793 1.62694H7.42258C6.83266 1.62694 6.35278 2.11197 6.35278 2.70823V48.8444C6.35278 49.4406 6.83266 49.9257 7.42258 49.9257H10.7327V53.2714C10.7327 53.8676 11.2126 54.3527 11.8025 54.3527H46.1591C46.749 54.3527 47.2289 53.8676 47.2289 53.2714V49.052H48.738C49.4403 49.052 50.0115 48.4746 50.0115 47.7647V39.7953L52.3889 37.3924C52.6874 37.0908 52.6874 36.6017 52.3889 36.3002C52.0905 35.9987 51.6066 35.9986 51.3082 36.3002ZM48.4832 39.1555L44.2871 43.3966L41.5389 40.6189C41.2404 40.3173 40.7566 40.3173 40.4582 40.6189C40.1598 40.9206 40.1598 41.4096 40.4582 41.7112L43.7468 45.035C43.896 45.1859 44.0916 45.2613 44.2872 45.2613C44.4827 45.2613 44.6783 45.1859 44.8276 45.035L48.4833 41.3401V47.5074H45.3769C44.9548 47.5074 44.6128 47.8532 44.6128 48.2797C44.6128 48.7063 44.9548 49.0521 45.3769 49.0521H45.7007V52.808H12.2611V7.59864H19.2942C19.7163 7.59864 20.0583 7.25283 20.0583 6.82629C20.0583 6.39975 19.7163 6.05394 19.2942 6.05394H11.8026C11.2127 6.05394 10.7328 6.53898 10.7328 7.13523V48.3809H7.88107V3.17164H41.3207V6.05394H22.8602C22.4381 6.05394 22.0961 6.39975 22.0961 6.82629C22.0961 7.25283 22.4381 7.59864 22.8602 7.59864H45.7007V21.6447H38.5056C37.8033 21.6447 37.232 22.2221 37.232 22.9319V23.1929H28.9733C28.5512 23.1929 28.2092 23.5387 28.2092 23.9652C28.2092 24.3918 28.5512 24.7376 28.9733 24.7376H37.232V27.7369H19.0287C18.6066 27.7369 18.2645 28.0827 18.2645 28.5092C18.2645 28.9358 18.6066 29.2816 19.0287 29.2816H37.2319V32.2809H19.0287C18.6066 32.2809 18.2645 32.6267 18.2645 33.0532C18.2645 33.4798 18.6066 33.8256 19.0287 33.8256H37.3564C37.5612 34.2598 37.9986 34.5615 38.5055 34.5615H45.7006V36.135H38.5055C38.0165 36.135 37.5917 36.4153 37.3783 36.825H33.2525C32.8304 36.825 32.4884 37.1708 32.4884 37.5973C32.4884 38.0239 32.8304 38.3697 33.2525 38.3697H37.232V41.369H19.0287C18.6066 41.369 18.2645 41.7148 18.2645 42.1413C18.2645 42.5678 18.6066 42.9137 19.0287 42.9137H37.2319V45.913H19.0287C18.6066 45.913 18.2645 46.2589 18.2645 46.6854C18.2645 47.1119 18.6066 47.4577 19.0287 47.4577H37.2319V47.7645C37.2319 48.4744 37.8032 49.0518 38.5055 49.0518H41.8109C42.2331 49.0518 42.5751 48.706 42.5751 48.2794C42.5751 47.8529 42.2331 47.5071 41.8109 47.5071H38.7603V37.6796H48.4833V39.1555H48.4832Z" fill="#00CCAA"/>
</svg>
