<svg width="199" height="52" viewBox="0 0 199 52" fill="none" xmlns="http://www.w3.org/2000/svg">
<path d="M21.0142 0.23296C20.3405 0.388884 19.5891 0.804681 19.2522 1.22048L18.6562 1.89615V15.4355C18.6562 28.1433 18.6822 29.0788 19.1745 31.1578C19.7186 33.3407 20.7033 35.4977 21.947 37.1349C23.3203 38.928 26.6111 40.929 29.7204 41.8386C33.5553 42.956 34.5141 43.008 51.0715 43.1119L67.0589 43.2159L71.2306 47.4778C75.5319 51.8697 76.102 52.2595 77.6825 51.8956C78.6931 51.6618 79.7296 50.6742 80.2219 49.4269C80.8438 47.8416 80.4551 47.1919 76.5165 43.1639L73.0703 39.6297V26.5321C73.0703 11.9792 73.0185 11.5114 71.2565 8.23704C70.4273 6.65182 67.9398 3.84519 66.9811 3.40341C66.6961 3.27347 66.126 2.96162 65.6855 2.70175C64.675 2.07806 62.2911 1.27245 59.8555 0.674743C58.1194 0.258947 56.1242 0.180987 40.0591 0.0510502C27.0257 -0.0528988 21.8693 -0.000925071 21.0142 0.23296ZM57.1348 6.18405C62.0579 6.98965 64.3641 8.78277 65.6337 12.7848C66.0483 14.0842 66.1001 15.3056 66.0224 25.6485L65.9447 37.0829L51.9266 37.1609C38.1935 37.2128 34.4882 37.0829 32.1302 36.4072C30.2387 35.8875 28.3471 34.5102 27.3884 33.0029C25.8337 30.5341 25.8078 30.3782 25.7301 17.8523C25.6783 11.5634 25.7042 6.28799 25.756 6.10608C25.8596 5.84621 28.8395 5.76825 40.2146 5.76825C52.2375 5.76825 54.9323 5.84621 57.1348 6.18405ZM1.76198 0.33691C1.37331 0.492833 0.829167 0.98659 0.518229 1.45436C0 2.31194 0 2.64978 0 21.7504V41.1889L0.906901 42.0465C2.28021 43.3458 3.8349 43.4758 5.38958 42.4623C6.73698 41.5787 6.73698 41.7606 6.73698 21.3606V2.46787L6.14102 1.5843C5.18229 0.154998 3.57578 -0.312772 1.76198 0.33691ZM99.8369 0.310923C98.5413 0.414872 97.3494 0.596781 97.2198 0.674743C97.0643 0.752705 96.3388 0.960604 95.5874 1.09054C93.2035 1.55831 89.9905 3.29946 88.1767 5.14456C87.2698 6.02812 86.4406 7.04162 86.2852 7.37946C86.1556 7.69131 85.9224 8.15908 85.8188 8.36697C85.1451 9.5364 84.9378 10.0821 84.7046 11.3035C84.5491 12.0572 84.3159 13.1226 84.1863 13.6944C84.0827 14.2661 83.979 17.7744 83.979 21.4905C83.979 25.2067 84.0827 28.715 84.1863 29.2867C84.3159 29.8584 84.5491 30.8979 84.6786 31.6256C85.3523 34.822 88.4358 38.902 91.2083 40.2533C93.048 41.1369 94.24 41.6307 94.5768 41.6307C94.7323 41.6307 95.406 41.7866 96.0797 41.9945C98.5413 42.7221 101.832 42.93 111.186 42.93C120.488 42.93 125.671 42.5922 126.966 41.8905C127.225 41.7346 127.666 41.6307 127.899 41.6307C128.469 41.6307 131.423 40.2014 132.848 39.2398C134.869 37.8625 136.994 34.874 137.59 32.5611C137.719 32.0414 137.953 31.1578 138.082 30.5861C138.419 29.2607 138.445 13.7723 138.108 12.447C137.953 11.9272 137.745 11.0956 137.642 10.6279C136.787 7.40545 134.118 4.20901 130.982 2.67577C128.521 1.48035 128.443 1.45436 125.93 0.804679C123.883 0.310921 122.95 0.258948 112.974 0.180987C107.066 0.129012 101.158 0.180987 99.8369 0.310923ZM123.157 6.18405C127.562 7.11959 129.583 8.7308 131.008 12.395C131.449 13.5904 131.501 14.396 131.501 21.4905C131.501 28.5851 131.449 29.3907 131.008 30.5861C129.713 33.8865 127.925 35.5237 124.375 36.5891C122.82 37.0569 121.836 37.0829 111.16 37.0829C99.9664 37.0829 99.5777 37.0569 97.8935 36.5112C95.5096 35.7316 94.8878 35.3677 93.644 34.0424C92.4003 32.743 91.9598 31.9374 91.3638 29.8844C90.7678 27.7535 90.7678 15.2276 91.3638 13.0967C92.5039 9.14659 94.5509 7.27551 98.8522 6.262C101.495 5.63831 120.359 5.56035 123.157 6.18405ZM162.594 0.284936C156.842 0.752707 152.489 2.51984 150.908 5.01462C149.691 6.96366 149.405 8.23704 149.405 11.8753C149.431 19.3336 151.556 22.608 157.153 23.7514C157.879 23.9074 164.952 24.0893 173.218 24.1932C187.703 24.3751 188.014 24.4011 189.154 24.9468C189.801 25.2587 190.501 25.6745 190.734 25.8304C191.978 26.8439 192.444 28.8969 192.133 32.1453C191.978 33.9904 191.874 34.2243 190.993 35.1079C190.346 35.7575 189.542 36.1993 188.376 36.5632C186.796 37.0569 185.889 37.0829 173.089 37.0829C159.589 37.0829 159.485 37.0829 158.319 36.5112C156.738 35.7316 156.376 35.4197 155.754 34.1723C154.614 31.9894 152.826 31.2618 150.753 32.1193C149.38 32.6911 149.12 33.1848 149.146 34.9779C149.198 38.2523 151.427 40.6172 155.598 41.8905C159.045 42.904 161.325 43.06 173.995 43.06C186.666 43.06 188.247 42.956 191.486 41.8905C193.455 41.2409 194.284 40.7731 195.606 39.6556C198.015 37.5767 199 34.9519 199 30.5861C199 24.9728 197.342 21.8024 193.455 19.9573C190.553 18.58 188.946 18.45 174.073 18.3201C158.5 18.1902 158.656 18.1902 157.101 16.1632C156.246 15.0977 156.246 15.0457 156.246 12.2651C156.246 9.87424 156.324 9.30252 156.79 8.5229C157.516 7.24952 158.604 6.6778 161.092 6.15806C162.905 5.79424 164.797 5.74226 174.566 5.82022C184.516 5.89818 186.07 5.97615 187.262 6.36596C188.739 6.85971 189.957 7.92519 190.605 9.27653C191.201 10.5239 192.419 11.2256 193.999 11.2256C197.16 11.2256 198.067 8.15908 195.942 4.70277C194.88 2.98761 192.678 1.71424 189.154 0.778694C187.366 0.310924 186.252 0.258948 176.068 0.180987C169.953 0.129012 163.89 0.180987 162.594 0.284936Z" fill="#8F8F8F"/>
</svg>
