<svg width="210" height="356" viewBox="0 0 210 356" fill="none" xmlns="http://www.w3.org/2000/svg">
<g clip-path="url(#clip0_60_31)">
<path d="M1.20117 273.297C1.20117 276.266 3.12124 277.967 5.63718 277.967C8.21934 277.967 10.1063 276.266 10.1063 273.297V239.301C10.1063 236.299 8.21934 234.631 5.63718 234.631C3.12124 234.631 1.20117 236.299 1.20117 239.301V273.297ZM15.1051 273.297C15.1051 276.266 16.992 277.967 19.5411 277.967C22.1232 277.967 24.0102 276.266 24.0102 273.297V250.978H24.1426L42.946 275.999C43.8067 277.067 45.5613 277.967 46.6868 277.967C49.2359 277.967 51.1559 276.266 51.1559 273.297V239.301C51.1559 236.299 49.2359 234.631 46.6868 234.631C44.1378 234.631 42.2508 236.299 42.2508 239.301V261.921H42.1184L23.2819 236.599C22.5205 235.532 20.6666 234.631 19.5411 234.631C16.992 234.631 15.1051 236.299 15.1051 239.301V273.297ZM55.7906 273.297C55.7906 276.266 57.6775 277.967 60.2266 277.967C62.8087 277.967 64.6957 276.266 64.6957 273.297V250.978H64.8281L83.6315 275.999C84.4591 277.067 86.2468 277.967 87.3723 277.967C89.9214 277.967 91.8414 276.266 91.8414 273.297V239.301C91.8414 236.299 89.9214 234.631 87.3723 234.631C84.8233 234.631 82.9363 236.299 82.9363 239.301V261.921H82.8039L63.9674 236.599C63.206 235.532 61.3521 234.631 60.2266 234.631C57.6775 234.631 55.7906 236.299 55.7906 239.301V273.297ZM115.611 270.061C108.063 270.061 104.421 263.589 104.421 256.282C104.421 249.043 108.162 242.538 115.611 242.538C123.026 242.538 126.767 249.043 126.767 256.282C126.767 263.589 123.125 270.061 115.611 270.061ZM115.611 278.301C127.76 278.301 136.003 268.66 136.003 256.282C136.003 244.139 127.528 234.264 115.611 234.264C103.494 234.264 95.1519 243.839 95.1519 256.282C95.1519 268.66 103.527 278.301 115.611 278.301ZM150.205 274.498C150.966 276.399 151.992 277.967 154.608 277.967C157.223 277.967 158.216 276.399 158.977 274.498L171.988 241.17C172.319 240.369 172.418 239.769 172.418 238.935C172.418 236.432 170.233 234.631 167.85 234.631C165.83 234.631 164.572 235.965 163.811 237.567L154.608 262.454L145.405 237.567C144.643 235.965 143.385 234.631 141.366 234.631C138.982 234.631 136.797 236.432 136.797 238.935C136.797 239.769 136.897 240.369 137.195 241.17L150.205 274.498ZM172.716 271.796C172.583 272.096 172.286 272.83 172.286 273.764C172.286 276.166 174.305 277.967 176.688 277.967C179.138 277.967 180.363 276.633 180.959 274.798L182.747 269.227H199.266L201.053 274.865C201.616 276.633 202.874 277.967 205.357 277.967C207.575 277.967 209.462 276.333 209.462 273.997C209.462 273.597 209.329 272.73 208.998 271.796L197.346 239.235C196.353 236.366 194.135 234.264 190.99 234.264C187.944 234.264 185.66 236.466 184.633 239.235L172.716 271.796ZM190.923 243.605H191.056L196.584 260.953H185.296L190.923 243.605Z" fill="white"/>
<path d="M6.23306 305.524C6.23306 298.485 9.67594 290.712 18.1176 290.712C24.0102 290.712 25.0696 294.315 27.1882 294.315C28.38 294.315 29.1083 293.347 29.1083 292.146C29.1083 290.278 24.8378 286.775 18.1176 286.775C6.86205 286.775 1.20117 295.916 1.20117 305.524C1.20117 315.099 6.86205 324.273 17.8528 324.273C24.5399 324.273 29.9028 321.471 29.9028 319.136C29.9028 317.868 29.1745 317.034 28.049 317.034C26.0627 317.034 23.5799 320.337 17.8528 320.337C9.80836 320.337 6.23306 312.563 6.23306 305.524ZM37.881 305.524C37.881 298.485 40.9597 290.712 49.5007 290.712C58.0417 290.712 61.1204 298.485 61.1204 305.524C61.1204 312.563 58.0417 320.337 49.5007 320.337C40.9597 320.337 37.881 312.563 37.881 305.524ZM32.8491 305.524C32.8491 315.099 38.6755 324.273 49.5007 324.273C60.3259 324.273 66.1523 315.099 66.1523 305.524C66.1523 295.916 60.3259 286.775 49.5007 286.775C38.6755 286.775 32.8491 295.916 32.8491 305.524ZM75.5871 295.115H75.6864L94.8871 321.905C96.1781 323.706 96.8071 324.273 98.1975 324.273C99.7203 324.273 100.349 323.406 100.349 321.571V289.21C100.349 287.709 99.4224 286.775 97.9989 286.775C96.5423 286.775 95.6485 287.709 95.6485 289.21V315.933H95.5491L76.3154 289.144C75.0574 287.342 74.3953 286.775 73.0381 286.775C71.5483 286.775 70.8863 287.642 70.8863 289.444V321.838C70.8863 323.339 71.8132 324.273 73.2367 324.273C74.6933 324.273 75.5871 323.339 75.5871 321.838V295.115ZM112.896 321.838C112.896 323.339 113.79 324.273 115.213 324.273C116.67 324.273 117.564 323.339 117.564 321.838V291.312H124.681C126.005 291.312 126.965 290.645 126.965 289.21C126.965 287.742 126.005 287.075 124.681 287.075H105.778C104.454 287.075 103.494 287.742 103.494 289.21C103.494 290.645 104.454 291.312 105.778 291.312H112.896V321.838ZM134.844 307.659H145.173C146.497 307.659 147.457 306.959 147.457 305.524C147.457 304.056 146.497 303.389 145.173 303.389H134.844V291.312H146.166C147.49 291.312 148.483 290.645 148.483 289.21C148.483 287.742 147.49 287.075 146.166 287.075H132.659C130.905 287.075 130.177 288.176 130.177 289.577V321.471C130.177 322.872 130.905 323.973 132.659 323.973H146.166C147.49 323.973 148.483 323.306 148.483 321.838C148.483 320.403 147.49 319.736 146.166 319.736H134.844V307.659ZM158.547 295.115H158.646L177.847 321.905C179.138 323.706 179.767 324.273 181.158 324.273C182.68 324.273 183.309 323.406 183.309 321.571V289.21C183.309 287.709 182.382 286.775 180.959 286.775C179.502 286.775 178.608 287.709 178.608 289.21V315.933H178.509L159.275 289.144C158.017 287.342 157.355 286.775 155.998 286.775C154.475 286.775 153.846 287.642 153.846 289.444V321.838C153.846 323.339 154.773 324.273 156.197 324.273C157.653 324.273 158.547 323.339 158.547 321.838V295.115ZM195.856 321.838C195.856 323.339 196.75 324.273 198.173 324.273C199.63 324.273 200.524 323.339 200.524 321.838V291.312H207.641C208.965 291.312 209.925 290.645 209.925 289.21C209.925 287.742 208.965 287.075 207.641 287.075H188.738C187.414 287.075 186.454 287.742 186.454 289.21C186.454 290.645 187.414 291.312 188.738 291.312H195.856V321.838Z" fill="#CCCCCC"/>
<path d="M13.2518 348.093V349.094C13.2518 351.363 11.6627 354.165 8.41849 354.165C4.51215 354.165 3.02245 350.629 3.02245 347.393C3.02245 344.157 4.54526 340.587 8.31918 340.587C11.3317 340.587 12.1924 342.489 13.2187 342.489C13.8145 342.489 14.2118 342.021 14.2118 341.488C14.2118 340.587 11.8945 338.785 8.4847 338.785C3.22108 338.785 0.804443 342.989 0.804443 347.393C0.804443 351.796 3.32039 356 8.15365 356C13.8807 356 15.3373 351.93 15.3373 347.86C15.3373 346.559 14.8739 346.158 13.8145 346.158H10.3386C9.74267 346.158 9.31231 346.459 9.31231 347.126C9.31231 347.793 9.74267 348.093 10.3386 348.093H13.2518ZM19.2437 339.886C19.2437 339.219 18.8464 338.785 18.2174 338.785C17.5553 338.785 17.1581 339.219 17.1581 339.886V354.699C17.1581 355.333 17.4891 355.833 18.2836 355.833H23.6797C24.2756 355.833 24.6728 355.533 24.6728 354.866C24.6728 354.198 24.2756 353.898 23.6797 353.898H19.2437V339.886ZM27.9171 347.393C27.9171 344.157 29.2744 340.587 33.0483 340.587C36.8222 340.587 38.1795 344.157 38.1795 347.393C38.1795 350.629 36.8222 354.165 33.0483 354.165C29.2744 354.165 27.9171 350.629 27.9171 347.393ZM25.6991 347.393C25.6991 351.796 28.2812 356 33.0483 356C37.8484 356 40.3975 351.796 40.3975 347.393C40.3975 342.989 37.8484 338.785 33.0483 338.785C28.2812 338.785 25.6991 342.989 25.6991 347.393ZM44.5687 340.72H47.0184C48.8391 340.72 49.733 341.821 49.733 343.356C49.733 344.891 48.7067 346.092 46.9522 346.092H44.5687V340.72ZM44.5687 347.793H47.6143C49.7661 347.793 51.0241 349.161 51.0241 350.896C51.0241 352.764 49.5343 354.032 47.515 354.032H44.5687V347.793ZM42.5162 354.699C42.5162 355.333 42.8472 355.833 43.6086 355.833H47.6143C51.1234 355.833 53.0765 353.565 53.0765 350.896C53.0765 348.66 51.4875 346.926 49.4681 346.725V346.659C50.8254 346.258 51.7855 344.824 51.7855 342.956C51.7855 341.054 50.2295 338.919 47.2501 338.919H43.6086C42.8472 338.919 42.5162 339.419 42.5162 340.087V354.699ZM57.1153 352.163H64.8949L65.9873 355.199C66.1528 355.666 66.4177 356 67.0135 356C67.5432 356 67.9736 355.666 67.9736 355.099C67.9736 354.832 67.775 354.265 67.7087 354.065L62.4782 340.087C62.2134 339.319 61.8161 338.785 61.0216 338.785C60.194 338.785 59.7968 339.319 59.5319 340.087L54.3014 354.065C54.2352 354.265 54.0366 354.832 54.0366 355.099C54.0366 355.666 54.4669 356 55.0297 356C55.5925 356 55.8573 355.666 56.0228 355.199L57.1153 352.163ZM64.2659 350.362H57.7443L60.9885 341.221H61.0216L64.2659 350.362ZM71.6482 339.886C71.6482 339.219 71.2509 338.785 70.6219 338.785C69.993 338.785 69.5957 339.219 69.5957 339.886V354.699C69.5957 355.333 69.9268 355.833 70.6882 355.833H76.0842C76.6801 355.833 77.1104 355.533 77.1104 354.866C77.1104 354.198 76.6801 353.898 76.0842 353.898H71.6482V339.886ZM88.0018 341.488H88.0349L92.0406 355.133C92.2723 355.8 92.6365 356 93.0999 356C93.5965 356 93.9607 355.8 94.1593 355.133L98.198 341.488H98.2311L100.184 355.066C100.284 355.8 100.747 356 101.277 356C101.939 356 102.27 355.566 102.27 354.899C102.27 354.666 102.204 354.365 102.137 353.965L99.8533 340.387C99.6546 339.186 98.9926 338.785 98.2311 338.785C97.4035 338.785 96.9401 339.086 96.7083 339.886L93.133 352.263H93.0999L89.4915 339.886C89.2598 339.086 88.8295 338.785 88.0018 338.785C87.2404 338.785 86.5452 339.186 86.3797 340.387L84.0955 353.965C83.9962 354.365 83.9631 354.666 83.9631 354.899C83.9631 355.566 84.2941 356 84.9231 356C85.4859 356 85.9494 355.8 86.0487 355.066L88.0018 341.488ZM106.276 352.163H114.055L115.114 355.199C115.313 355.666 115.578 356 116.141 356C116.703 356 117.134 355.666 117.134 355.099C117.134 354.832 116.935 354.265 116.836 354.065L111.638 340.087C111.341 339.319 110.943 338.785 110.149 338.785C109.354 338.785 108.957 339.319 108.659 340.087L103.462 354.065C103.395 354.265 103.164 354.832 103.164 355.099C103.164 355.666 103.627 356 104.157 356C104.72 356 105.018 355.666 105.183 355.199L106.276 352.163ZM113.393 350.362H106.905L110.116 341.221H110.182L113.393 350.362ZM122.993 338.785C119.882 338.785 118.028 341.154 118.028 343.122C118.028 348.66 126.006 346.725 126.006 350.729C126.006 352.597 124.715 354.165 122.563 354.165C120.444 354.165 119.451 352.864 118.723 352.864C118.127 352.864 117.862 353.364 117.862 353.932C117.862 355.133 120.312 356 122.53 356C126.171 356 128.224 353.431 128.224 350.629C128.224 344.924 120.246 346.725 120.246 342.989C120.246 341.554 121.371 340.587 122.894 340.587C124.98 340.587 125.278 341.688 126.204 341.688C126.734 341.688 127.098 341.254 127.098 340.754C127.098 339.653 125.046 338.785 122.993 338.785ZM134.315 338.785C131.203 338.785 129.383 341.154 129.383 343.122C129.383 348.66 137.328 346.725 137.328 350.729C137.328 352.597 136.037 354.165 133.885 354.165C131.766 354.165 130.773 352.864 130.078 352.864C129.482 352.864 129.217 353.364 129.217 353.932C129.217 355.133 131.667 356 133.885 356C137.526 356 139.546 353.431 139.546 350.629C139.546 344.924 131.567 346.725 131.567 342.989C131.567 341.554 132.726 340.587 134.249 340.587C136.334 340.587 136.632 341.688 137.559 341.688C138.056 341.688 138.453 341.254 138.453 340.754C138.453 339.653 136.401 338.785 134.315 338.785ZM150.669 341.488H150.702L154.708 355.133C154.906 355.8 155.303 356 155.767 356C156.23 356 156.628 355.8 156.826 355.133L160.832 341.488H160.898L162.851 355.066C162.951 355.8 163.414 356 163.944 356C164.573 356 164.904 355.566 164.904 354.899C164.904 354.666 164.871 354.365 164.804 353.965L162.52 340.387C162.322 339.186 161.659 338.785 160.898 338.785C160.07 338.785 159.607 339.086 159.375 339.886L155.8 352.263H155.767L152.158 339.886C151.927 339.086 151.496 338.785 150.669 338.785C149.907 338.785 149.212 339.186 149.014 340.387L146.729 353.965C146.663 354.365 146.63 354.666 146.63 354.899C146.63 355.566 146.961 356 147.59 356C148.12 356 148.616 355.8 148.716 355.066L150.669 341.488ZM169.042 348.36H173.577C174.173 348.36 174.603 348.06 174.603 347.393C174.603 346.725 174.173 346.392 173.577 346.392H169.042V340.887H174.041C174.636 340.887 175.067 340.554 175.067 339.886C175.067 339.252 174.636 338.919 174.041 338.919H168.082C167.287 338.919 166.956 339.419 166.956 340.087V354.699C166.956 355.333 167.287 355.833 168.082 355.833H174.041C174.636 355.833 175.067 355.533 175.067 354.866C175.067 354.198 174.636 353.898 174.041 353.898H169.042V348.36ZM177.55 354.699C177.55 355.333 177.881 355.833 178.642 355.833H183.012C187.514 355.833 190.196 352.364 190.196 347.293C190.196 342.822 187.746 338.919 182.747 338.919H178.642C177.881 338.919 177.55 339.419 177.55 340.087V354.699ZM179.635 340.72H182.449C186.422 340.72 187.978 343.823 187.978 347.293C187.978 350.729 186.521 354.032 182.582 354.032H179.635V340.72ZM194.367 339.886C194.367 339.219 193.97 338.785 193.341 338.785C192.678 338.785 192.281 339.219 192.281 339.886V354.866C192.281 355.566 192.678 356 193.341 356C193.97 356 194.367 355.566 194.367 354.866V339.886ZM199.068 352.163H206.847L207.907 355.199C208.072 355.666 208.37 356 208.933 356C209.462 356 209.926 355.666 209.926 355.099C209.926 354.832 209.694 354.265 209.628 354.065L204.431 340.087C204.133 339.319 203.735 338.785 202.941 338.785C202.146 338.785 201.749 339.319 201.451 340.087L196.254 354.065C196.188 354.265 195.956 354.832 195.956 355.099C195.956 355.666 196.419 356 196.949 356C197.512 356 197.81 355.666 197.975 355.199L199.068 352.163ZM206.185 350.362H199.697L202.908 341.221H202.974L206.185 350.362Z" fill="#00CCAA"/>
<path fill-rule="evenodd" clip-rule="evenodd" d="M8.05068 87.2068L87.3361 7.30616C97.0026 -2.43539 112.86 -2.43539 122.559 7.30616L201.812 87.2068C211.511 96.9484 211.511 112.929 201.812 122.703L122.559 202.571C112.86 212.346 97.0026 212.346 87.3361 202.571L8.05068 122.703C-1.61585 112.929 -1.61585 96.9484 8.05068 87.2068ZM103.855 39.7335L160.232 72.3943V105.089L75.4847 56.1807L103.855 39.7335ZM160.232 105.089V137.983L103.855 170.677L75.7164 154.363L160.232 105.089ZM75.3191 154.13L47.4782 137.983V72.3943L75.3191 56.2808V154.13ZM15.4992 88.5746L88.6934 14.8458C97.6316 5.80489 112.264 5.80489 121.202 14.8458L194.363 88.5746C203.301 97.5822 203.301 112.328 194.363 121.336L121.202 195.064C112.264 204.072 97.6316 204.072 88.6934 195.064L15.4992 121.336C6.56097 112.328 6.56097 97.5822 15.4992 88.5746Z" fill="#00CCAA"/>
</g>
<defs>
<clipPath id="clip0_60_31">
<rect width="209.129" height="356" fill="white" transform="translate(0.800781)"/>
</clipPath>
</defs>
</svg>
