<svg width="149" height="12" viewBox="0 0 149 12" fill="none" xmlns="http://www.w3.org/2000/svg">
<path d="M8.8655 6.5V7.19118C8.8655 8.79412 7.7331 10.75 5.4236 10.75C2.6373 10.75 1.5794 8.25 1.5794 6C1.5794 3.75 2.6671 1.26471 5.3491 1.26471C7.5096 1.26471 8.1056 2.58824 8.8506 2.58824C9.2678 2.58824 9.5509 2.26471 9.5509 1.88235C9.5509 1.26471 7.9119 0 5.4534 0C1.7135 0 0 2.92647 0 6C0 9.07353 1.788 12 5.2299 12C9.2976 12 10.3406 9.17647 10.3406 6.33824C10.3406 5.42647 10.0277 5.14706 9.2678 5.14706H6.7795C6.3623 5.14706 6.0643 5.35294 6.0643 5.82353C6.0643 6.27941 6.3623 6.5 6.7795 6.5H8.8655ZM13.1269 0.779412C13.1269 0.294118 12.8438 0 12.3968 0C11.9349 0 11.6518 0.294118 11.6518 0.779412V11.1029C11.6518 11.5588 11.8902 11.8971 12.4415 11.8971H16.2857C16.7029 11.8971 17.0158 11.6912 17.0158 11.2206C17.0158 10.7647 16.7029 10.5441 16.2857 10.5441H13.1269V0.779412ZM19.3104 6C19.3104 3.75 20.2938 1.26471 22.9758 1.26471C25.6578 1.26471 26.6412 3.75 26.6412 6C26.6412 8.25 25.6578 10.75 22.9758 10.75C20.2938 10.75 19.3104 8.25 19.3104 6ZM17.731 6C17.731 9.07353 19.5637 12 22.9758 12C26.3879 12 28.2206 9.07353 28.2206 6C28.2206 2.92647 26.3879 0 22.9758 0C19.5637 0 17.731 2.92647 17.731 6ZM31.1857 1.35294H32.9141C34.2253 1.35294 34.8511 2.11765 34.8511 3.17647C34.8511 4.26471 34.121 5.08824 32.8694 5.08824H31.1857V1.35294ZM31.1857 6.27941H33.3313C34.8809 6.27941 35.7749 7.25 35.7749 8.45588C35.7749 9.76471 34.717 10.6471 33.2717 10.6471H31.1857V6.27941ZM29.7106 11.1029C29.7106 11.5588 29.949 11.8971 30.5003 11.8971H33.3313C35.8643 11.8971 37.25 10.3088 37.25 8.45588C37.25 6.89706 36.1027 5.69118 34.6574 5.52941V5.5C35.6408 5.20588 36.3262 4.20588 36.3262 2.91176C36.3262 1.57353 35.2236 0.102941 33.0929 0.102941H30.5003C29.949 0.102941 29.7106 0.441177 29.7106 0.897059V11.1029ZM40.1108 9.33823H45.6685L46.4433 11.4559C46.5625 11.7794 46.7562 12 47.1585 12C47.5459 12 47.8588 11.7794 47.8588 11.3971C47.8588 11.1912 47.7098 10.8088 47.6651 10.6618L43.955 0.897059C43.7464 0.382353 43.4633 0 42.8971 0C42.316 0 42.0329 0.382353 41.8392 0.897059L38.1291 10.6618C38.0695 10.8088 37.9205 11.1912 37.9205 11.3971C37.9205 11.7794 38.2334 12 38.6208 12C39.0231 12 39.2317 11.7794 39.3509 11.4559L40.1108 9.33823ZM45.2066 8.07353H40.5727L42.8822 1.69118H42.912L45.2066 8.07353ZM50.4812 0.779412C50.4812 0.294118 50.1981 0 49.7511 0C49.2892 0 49.0061 0.294118 49.0061 0.779412V11.1029C49.0061 11.5588 49.2445 11.8971 49.7958 11.8971H53.64C54.0572 11.8971 54.3701 11.6912 54.3701 11.2206C54.3701 10.7647 54.0572 10.5441 53.64 10.5441H50.4812V0.779412ZM62.133 1.88235H62.1628L65.0087 11.4118C65.1577 11.8824 65.4408 12 65.7686 12C66.1113 12 66.3795 11.8824 66.5285 11.4118L69.3893 1.88235H69.4191L70.8048 11.3676C70.8793 11.8824 71.2071 12 71.5945 12C72.0415 12 72.2799 11.7059 72.2799 11.25C72.2799 11.0882 72.2501 10.8676 72.2054 10.5882L70.5664 1.10294C70.4323 0.279412 69.9555 0 69.4191 0C68.8231 0 68.5102 0.220588 68.3463 0.764706L65.7835 9.39706H65.7537L63.1909 0.764706C63.027 0.220588 62.7141 0 62.133 0C61.5817 0 61.09 0.279412 60.9708 1.10294L59.3318 10.5882C59.2871 10.8676 59.2573 11.0882 59.2573 11.25C59.2573 11.7059 59.4808 12 59.9427 12C60.3301 12 60.6579 11.8824 60.7324 11.3676L62.133 1.88235ZM75.1407 9.33823H80.6835L81.4583 11.4559C81.5775 11.7794 81.7712 12 82.1735 12C82.5609 12 82.8887 11.7794 82.8887 11.3971C82.8887 11.1912 82.7397 10.8088 82.6801 10.6618L78.97 0.897059C78.7614 0.382353 78.4783 0 77.9121 0C77.3459 0 77.0628 0.382353 76.8542 0.897059L73.1441 10.6618C73.0845 10.8088 72.9355 11.1912 72.9355 11.3971C72.9355 11.7794 73.2633 12 73.6507 12C74.053 12 74.2467 11.7794 74.3659 11.4559L75.1407 9.33823ZM80.2216 8.07353H75.6026L77.8972 1.69118H77.927L80.2216 8.07353ZM87.0458 0C84.8257 0 83.5294 1.66176 83.5294 3.02941C83.5294 6.89706 89.2063 5.52941 89.2063 8.33823C89.2063 9.64706 88.2825 10.75 86.7478 10.75C85.2429 10.75 84.5277 9.83823 84.0211 9.83823C83.6039 9.83823 83.4102 10.1765 83.4102 10.5735C83.4102 11.4118 85.1535 12 86.7329 12C89.3255 12 90.7857 10.2353 90.7857 8.26471C90.7857 4.29412 85.0939 5.52941 85.0939 2.92647C85.0939 1.94118 85.9134 1.26471 87.0011 1.26471C88.4762 1.26471 88.6997 2.01471 89.3553 2.01471C89.7278 2.01471 89.996 1.72059 89.996 1.38235C89.996 0.617647 88.5209 0 87.0458 0ZM95.1365 0C92.9164 0 91.6052 1.66176 91.6052 3.02941C91.6052 6.89706 97.2821 5.52941 97.2821 8.33823C97.2821 9.64706 96.3583 10.75 94.8236 10.75C93.3187 10.75 92.6035 9.83823 92.1118 9.83823C91.6797 9.83823 91.486 10.1765 91.486 10.5735C91.486 11.4118 93.2293 12 94.8087 12C97.4162 12 98.8615 10.2353 98.8615 8.26471C98.8615 4.29412 93.1846 5.52941 93.1846 2.92647C93.1846 1.94118 93.9892 1.26471 95.0769 1.26471C96.552 1.26471 96.7755 2.01471 97.4311 2.01471C97.8036 2.01471 98.0718 1.72059 98.0718 1.38235C98.0718 0.617647 96.6116 0 95.1365 0ZM106.773 1.88235H106.803L109.664 11.4118C109.813 11.8824 110.081 12 110.409 12C110.752 12 111.02 11.8824 111.169 11.4118L114.03 1.88235H114.06L115.46 11.3676C115.52 11.8824 115.862 12 116.25 12C116.697 12 116.935 11.7059 116.935 11.25C116.935 11.0882 116.905 10.8676 116.846 10.5882L115.222 1.10294C115.088 0.279412 114.596 0 114.06 0C113.478 0 113.151 0.220588 112.987 0.764706L110.439 9.39706H110.409L107.846 0.764706C107.682 0.220588 107.354 0 106.773 0C106.237 0 105.745 0.279412 105.611 1.10294L103.987 10.5882C103.927 10.8676 103.898 11.0882 103.898 11.25C103.898 11.7059 104.136 12 104.583 12C104.97 12 105.313 11.8824 105.373 11.3676L106.773 1.88235ZM119.87 6.67647H123.119C123.536 6.67647 123.834 6.47059 123.834 6C123.834 5.52941 123.536 5.32353 123.119 5.32353H119.87V1.45588H123.432C123.849 1.45588 124.162 1.25 124.162 0.779412C124.162 0.308824 123.849 0.102941 123.432 0.102941H119.185C118.634 0.102941 118.395 0.441177 118.395 0.897059V11.1029C118.395 11.5588 118.634 11.8971 119.185 11.8971H123.432C123.849 11.8971 124.162 11.6912 124.162 11.2206C124.162 10.7647 123.849 10.5441 123.432 10.5441H119.87V6.67647ZM125.935 11.1029C125.935 11.5588 126.173 11.8971 126.724 11.8971H129.839C133.042 11.8971 134.934 9.47059 134.934 5.94118C134.934 2.82353 133.191 0.102941 129.63 0.102941H126.724C126.173 0.102941 125.935 0.441177 125.935 0.897059V11.1029ZM127.41 1.35294H129.421C132.252 1.35294 133.355 3.51471 133.355 5.94118C133.355 8.33824 132.312 10.6471 129.526 10.6471H127.41V1.35294ZM137.914 0.779412C137.914 0.294118 137.631 0 137.169 0C136.722 0 136.439 0.294118 136.439 0.779412V11.2206C136.439 11.7059 136.722 12 137.169 12C137.631 12 137.914 11.7059 137.914 11.2206V0.779412ZM141.252 9.33823H146.81L147.57 11.4559C147.689 11.7794 147.897 12 148.3 12C148.687 12 149 11.7794 149 11.3971C149 11.1912 148.851 10.8088 148.791 10.6618L145.096 0.897059C144.888 0.382353 144.604 0 144.038 0C143.457 0 143.174 0.382353 142.965 0.897059L139.255 10.6618C139.211 10.8088 139.062 11.1912 139.062 11.3971C139.062 11.7794 139.375 12 139.762 12C140.164 12 140.373 11.7794 140.477 11.4559L141.252 9.33823ZM146.348 8.07353H141.714L144.008 1.69118H144.053L146.348 8.07353Z" fill="#848484"/>
</svg>
