<svg width="167" height="50" viewBox="0 0 167 50" fill="none" xmlns="http://www.w3.org/2000/svg">
<path d="M57.418 22.6391C57.418 24.1974 58.385 25.0631 59.7321 25.0631C61.0791 25.0631 62.0807 24.1974 62.0807 22.6391V4.8744C62.0807 3.31609 61.0791 2.45037 59.7321 2.45037C58.385 2.45037 57.418 3.31609 57.418 4.8744V22.6391ZM64.7056 22.6391C64.7056 24.1974 65.6727 25.0631 67.0197 25.0631C68.3667 25.0631 69.3683 24.1974 69.3683 22.6391V10.9691H69.4374L79.3154 24.0242C79.7299 24.5783 80.6624 25.0631 81.2496 25.0631C82.5966 25.0631 83.5982 24.1974 83.5982 22.6391V4.8744C83.5982 3.31609 82.5966 2.45037 81.2496 2.45037C79.9371 2.45037 78.9355 3.31609 78.9355 4.8744V16.6829H78.8664L68.9884 3.48924C68.5739 2.93517 67.6069 2.45037 67.0197 2.45037C65.6727 2.45037 64.7056 3.31609 64.7056 4.8744V22.6391ZM86.0505 22.6391C86.0505 24.1974 87.0175 25.0631 88.3645 25.0631C89.7115 25.0631 90.7132 24.1974 90.7132 22.6391V10.9691H90.7822L100.626 24.0242C101.075 24.5783 102.007 25.0631 102.594 25.0631C103.941 25.0631 104.943 24.1974 104.943 22.6391V4.8744C104.943 3.31609 103.941 2.45037 102.594 2.45037C101.282 2.45037 100.28 3.31609 100.28 4.8744V16.6829H100.211L90.3332 3.48924C89.9188 2.93517 88.9517 2.45037 88.3645 2.45037C87.0175 2.45037 86.0505 3.31609 86.0505 4.8744V22.6391ZM117.411 20.9422C113.44 20.9422 111.54 17.5832 111.54 13.774C111.54 9.96486 113.509 6.57122 117.411 6.57122C121.314 6.57122 123.249 9.96486 123.249 13.774C123.249 17.5832 121.349 20.9422 117.411 20.9422ZM117.411 25.2362C123.801 25.2362 128.118 20.215 128.118 13.774C128.118 7.43694 123.663 2.27722 117.411 2.27722C111.056 2.27722 106.705 7.2638 106.705 13.774C106.705 20.215 111.091 25.2362 117.411 25.2362ZM135.544 23.2624C135.959 24.2666 136.511 25.0631 137.858 25.0631C139.24 25.0631 139.758 24.2666 140.172 23.2624L147.011 5.87864C147.149 5.46309 147.218 5.15143 147.218 4.70125C147.218 3.38535 146.044 2.45037 144.801 2.45037C143.764 2.45037 143.108 3.14295 142.694 3.97404L137.858 16.9599L133.023 3.97404C132.643 3.14295 131.987 2.45037 130.916 2.45037C129.673 2.45037 128.533 3.38535 128.533 4.70125C128.533 5.15143 128.602 5.46309 128.74 5.87864L135.544 23.2624ZM147.356 21.8426C147.287 22.0157 147.149 22.3967 147.149 22.8815C147.149 24.1281 148.22 25.0631 149.463 25.0631C150.741 25.0631 151.397 24.3705 151.708 23.4009L152.641 20.4921H161.275L162.243 23.4355C162.519 24.3705 163.175 25.0631 164.488 25.0631C165.662 25.0631 166.629 24.232 166.629 22.9854C166.629 22.7776 166.594 22.362 166.387 21.8426L160.308 4.8744C159.756 3.35072 158.616 2.27722 156.958 2.27722C155.369 2.27722 154.161 3.41998 153.642 4.8744L147.356 21.8426ZM156.924 7.12528H156.993L159.894 16.1981H153.953L156.924 7.12528Z" fill="white"/>
<path d="M60.0429 38.4645C60.0429 34.7592 61.8389 30.7076 66.2598 30.7076C69.3338 30.7076 69.8864 32.6122 70.9916 32.6122C71.6133 32.6122 71.9932 32.0928 71.9932 31.4694C71.9932 30.4998 69.7828 28.6645 66.2598 28.6645C60.3537 28.6645 57.418 33.4433 57.418 38.4645C57.418 43.4857 60.3537 48.2645 66.1217 48.2645C69.6101 48.2645 72.4423 46.8101 72.4423 45.5981C72.4423 44.9055 72.0278 44.4553 71.4406 44.4553C70.4045 44.4553 69.092 46.1868 66.1217 46.1868C61.908 46.1868 60.0429 42.1352 60.0429 38.4645ZM76.5869 38.4645C76.5869 34.7592 78.2102 30.7076 82.6657 30.7076C87.1557 30.7076 88.779 34.7592 88.779 38.4645C88.779 42.1352 87.1557 46.1868 82.6657 46.1868C78.2102 46.1868 76.5869 42.1352 76.5869 38.4645ZM73.962 38.4645C73.962 43.4857 77.0013 48.2645 82.6657 48.2645C88.33 48.2645 91.4039 43.4857 91.4039 38.4645C91.4039 33.4433 88.33 28.6645 82.6657 28.6645C77.0013 28.6645 73.962 33.4433 73.962 38.4645ZM96.3429 33.0277H96.3775L106.428 47.0178C107.119 47.9528 107.43 48.2645 108.19 48.2645C108.95 48.2645 109.295 47.8143 109.295 46.8447V29.9458C109.295 29.1493 108.811 28.6645 108.052 28.6645C107.292 28.6645 106.843 29.1493 106.843 29.9458V43.9012H106.774L96.7229 29.9111C96.0666 28.9415 95.7213 28.6645 94.9959 28.6645C94.2016 28.6645 93.8907 29.1147 93.8907 30.0496V46.9832C93.8907 47.7797 94.3397 48.2645 95.0996 48.2645C95.8594 48.2645 96.3429 47.7797 96.3429 46.9832V33.0277ZM115.857 46.9832C115.857 47.7797 116.341 48.2645 117.066 48.2645C117.826 48.2645 118.309 47.7797 118.309 46.9832V31.0193H122.04C122.73 31.0193 123.214 30.673 123.214 29.9458C123.214 29.1839 122.73 28.803 122.04 28.803H112.127C111.436 28.803 110.953 29.1839 110.953 29.9458C110.953 30.673 111.436 31.0193 112.127 31.0193H115.857V46.9832ZM127.359 39.5726H132.747C133.437 39.5726 133.955 39.2263 133.955 38.4645C133.955 37.7027 133.437 37.3564 132.747 37.3564H127.359V31.0193H133.265C133.955 31.0193 134.474 30.673 134.474 29.9458C134.474 29.1839 133.955 28.803 133.265 28.803H126.219C125.286 28.803 124.906 29.3917 124.906 30.1189V46.8101C124.906 47.5373 125.286 48.0913 126.219 48.0913H133.265C133.955 48.0913 134.474 47.7451 134.474 46.9832C134.474 46.2214 133.955 45.8751 133.265 45.8751H127.359V39.5726ZM139.758 33.0277H139.792L149.843 47.0178C150.534 47.9528 150.879 48.2645 151.605 48.2645C152.365 48.2645 152.71 47.8143 152.71 46.8447V29.9458C152.71 29.1493 152.226 28.6645 151.467 28.6645C150.707 28.6645 150.258 29.1493 150.258 29.9458V43.9012H150.189L140.138 29.9111C139.482 28.9415 139.136 28.6645 138.411 28.6645C137.617 28.6645 137.306 29.1147 137.306 30.0496V46.9832C137.306 47.7797 137.755 48.2645 138.515 48.2645C139.274 48.2645 139.758 47.7797 139.758 46.9832V33.0277ZM159.272 46.9832C159.272 47.7797 159.756 48.2645 160.481 48.2645C161.241 48.2645 161.724 47.7797 161.724 46.9832V31.0193H165.455C166.145 31.0193 166.629 30.673 166.629 29.9458C166.629 29.1839 166.145 28.803 165.455 28.803H155.542C154.851 28.803 154.368 29.1839 154.368 29.9458C154.368 30.673 154.851 31.0193 155.542 31.0193H159.272V46.9832Z" fill="#B3B3B3"/>
<path fill-rule="evenodd" clip-rule="evenodd" d="M2.01774 20.3532L20.634 1.68816C22.9136 -0.562721 26.6092 -0.562721 28.8888 1.68816L47.5051 20.3532C49.7846 22.6387 49.7846 26.344 47.5051 28.6295L28.8888 47.2945C26.6092 49.58 22.9136 49.58 20.634 47.2945L2.01774 28.6295C-0.227268 26.344 -0.227268 22.6387 2.01774 20.3532ZM24.5024 9.27191L37.7306 16.8903V24.5087L17.871 13.1157L24.5024 9.27191ZM37.7306 24.5087V32.1963L24.5024 39.8493L17.9055 36.0401L37.7306 24.5087ZM17.8019 35.9708L11.2741 32.1963V16.8903L17.8019 13.1157V35.9708ZM3.77921 20.6648L20.9449 3.45424C23.0517 1.34187 26.4711 1.34187 28.5779 3.45424L45.7436 20.6648C47.8504 22.7772 47.8504 26.2055 45.7436 28.3178L28.5779 45.5284C26.4711 47.6408 23.0517 47.6408 20.9449 45.5284L3.77921 28.3178C1.67235 26.2055 1.67235 22.7772 3.77921 20.6648Z" fill="#00CCAA"/>
</svg>
