<svg width="173" height="50" viewBox="0 0 173 50" fill="none" xmlns="http://www.w3.org/2000/svg">
<path fill-rule="evenodd" clip-rule="evenodd" d="M49.0651 25.6699C49.4655 23.3834 47.8552 21.5613 46.0225 21.213C43.6738 20.7485 41.8411 22.4009 41.4853 24.2408C41.0493 26.5631 42.6596 28.4834 44.5724 28.805C46.9033 29.2069 48.7271 27.5813 49.0651 25.6699Z" fill="#00CCAA"/>
<path fill-rule="evenodd" clip-rule="evenodd" d="M46.8495 34.2265C47.7303 29.7874 41.1379 28.5816 40.2572 32.8153C39.3052 37.3258 45.9865 38.5495 46.8495 34.2265Z" fill="#B1B1B1"/>
<path fill-rule="evenodd" clip-rule="evenodd" d="M28.5488 45.7664C29.1359 49.9376 35.7194 49.3659 35.2301 44.8107C34.7675 40.4967 27.8904 41.1308 28.5488 45.7664Z" fill="#B1B1B1"/>
<path fill-rule="evenodd" clip-rule="evenodd" d="M46.8495 17.1131C47.2321 15.1035 45.8798 13.5047 44.2784 13.1385C39.8212 12.1649 38.5312 18.8995 42.8549 19.7569C44.9011 20.1767 46.547 18.7745 46.8495 17.1131Z" fill="#B1B1B1"/>
<path fill-rule="evenodd" clip-rule="evenodd" d="M42.1348 10.2895C42.5619 8.21731 41.2719 6.61852 39.6794 6.23445C35.2133 5.14478 33.7987 11.8704 38.0958 12.8082C40.0975 13.2548 41.8057 11.8704 42.1348 10.2895Z" fill="#B1B1B1"/>
<path fill-rule="evenodd" clip-rule="evenodd" d="M42.1772 41.0503C42.5064 39.0585 41.0652 37.4687 39.446 37.2007C37.3998 36.8613 35.7539 38.2993 35.5137 39.9964C34.8909 44.498 41.4655 45.4179 42.1772 41.0503Z" fill="#B1B1B1"/>
<path fill-rule="evenodd" clip-rule="evenodd" d="M31.432 1.41119C26.8947 2.10787 28.0157 8.81562 32.464 8.09215C34.1276 7.8242 35.5422 6.19862 35.213 4.15324C34.9461 2.54552 33.3447 1.12537 31.432 1.41119Z" fill="#B1B1B1"/>
<path fill-rule="evenodd" clip-rule="evenodd" d="M22.767 50H24.0214C24.8755 49.4998 26.6637 48.955 26.3612 46.5345C25.9253 42.9707 20.4806 43.1315 20.3293 46.8203C20.2315 49.1336 22.0019 49.5802 22.767 50Z" fill="#B1B1B1"/>
<path fill-rule="evenodd" clip-rule="evenodd" d="M24.0214 0H22.767C22.0108 0.419793 20.2315 0.848518 20.3293 3.17078C20.4717 6.86853 25.9253 7.0293 26.3612 3.46553C26.6637 1.01822 24.8399 0.491247 24.0214 0Z" fill="#B1B1B1"/>
<path fill-rule="evenodd" clip-rule="evenodd" d="M11.512 25.5717C11.8679 24.0622 10.8537 22.8475 9.71491 22.5617C8.1758 22.1776 6.90359 23.1958 6.6278 24.348C5.8271 27.7153 10.7647 28.7871 11.512 25.5717Z" fill="#B1B1B1"/>
<path fill-rule="evenodd" clip-rule="evenodd" d="M17.2868 45.5698C17.7939 42.3812 12.9096 41.6398 12.3847 44.8285C11.8687 48.0439 16.7619 48.9371 17.2868 45.5698Z" fill="#B1B1B1"/>
<path fill-rule="evenodd" clip-rule="evenodd" d="M14.1365 2.41163C10.8892 3.43879 12.5351 8.12796 15.6222 7.11868C16.672 6.77927 17.6417 5.60921 17.2147 4.06401C16.8944 2.92968 15.64 1.92039 14.1365 2.41163Z" fill="#B1B1B1"/>
<path fill-rule="evenodd" clip-rule="evenodd" d="M12.2513 20.1859C13.23 17.4885 9.19981 15.9433 8.13222 18.6496C7.04684 21.4006 11.2638 22.919 12.2513 20.1859Z" fill="#B1B1B1"/>
<path fill-rule="evenodd" clip-rule="evenodd" d="M11.0759 35.4769C11.2628 36.5398 12.2681 37.4419 13.5581 37.2544C14.6701 37.0936 15.6043 36.0575 15.4175 34.7267C14.9993 31.8149 10.5332 32.5741 11.0759 35.4769Z" fill="#B1B1B1"/>
<path fill-rule="evenodd" clip-rule="evenodd" d="M12.3038 31.1449C12.722 29.7873 11.7522 28.6976 10.7558 28.4208C9.46582 28.0814 8.33596 28.9567 8.06016 29.9302C7.28616 32.7259 11.4053 34.021 12.3038 31.1449Z" fill="#B1B1B1"/>
<path fill-rule="evenodd" clip-rule="evenodd" d="M11.0408 14.9964C11.1832 17.8545 15.5158 17.7295 15.4357 14.8088C15.409 13.5673 14.3948 12.6295 13.1226 12.692C11.9305 12.7545 10.9697 13.7638 11.0408 14.9964Z" fill="#B1B1B1"/>
<path fill-rule="evenodd" clip-rule="evenodd" d="M15.6232 38.6566C16.1392 41.3183 20.5252 40.711 19.9291 37.7009C19.3953 35.0839 15.0182 35.6198 15.6232 38.6566Z" fill="#B1B1B1"/>
<path fill-rule="evenodd" clip-rule="evenodd" d="M15.6221 12.308C16.147 15.0322 20.5153 14.3176 19.9192 11.3523C19.3943 8.7442 15.035 9.28903 15.6221 12.308Z" fill="#B1B1B1"/>
<path fill-rule="evenodd" clip-rule="evenodd" d="M21.396 39.7999C22.0099 42.2114 25.8888 41.4344 25.2304 38.7906C24.9991 37.8438 24.0472 37.0757 22.8373 37.3615C21.9209 37.5669 21.0935 38.5851 21.396 39.7999Z" fill="#B1B1B1"/>
<path fill-rule="evenodd" clip-rule="evenodd" d="M22.7663 8.79778C20.2841 9.51233 21.2983 13.3173 23.8694 12.6116C24.7947 12.3616 25.5509 11.3523 25.2217 10.1554C24.9726 9.25331 23.9673 8.45838 22.7663 8.79778Z" fill="#B1B1B1"/>
<path fill-rule="evenodd" clip-rule="evenodd" d="M5.97002 40.8538C6.34367 43.2743 10.1781 42.8009 9.75996 40.2018C9.36851 37.7545 5.58746 38.2814 5.97002 40.8538Z" fill="#B1B1B1"/>
<path fill-rule="evenodd" clip-rule="evenodd" d="M7.22363 7.69015C4.75037 8.69051 6.245 12.1203 8.54032 11.2629C10.8801 10.3875 9.59012 6.73445 7.22363 7.69015Z" fill="#B1B1B1"/>
<path fill-rule="evenodd" clip-rule="evenodd" d="M30.3811 12.3973C31.1818 10.4591 28.1214 9.24437 27.3563 11.2183C26.5912 13.2279 29.5449 14.4069 30.3811 12.3973Z" fill="#B1B1B1"/>
<path fill-rule="evenodd" clip-rule="evenodd" d="M27.3128 38.6566C27.8733 40.577 30.9871 39.8535 30.4177 37.7188C29.875 35.7092 26.69 36.4862 27.3128 38.6566Z" fill="#B1B1B1"/>
<path fill-rule="evenodd" clip-rule="evenodd" d="M1.75238 16.8274C2.17052 18.5959 5.0797 18.0868 4.59929 16.0682C4.16336 14.2372 1.28976 14.8624 1.75238 16.8274Z" fill="#B1B1B1"/>
<path fill-rule="evenodd" clip-rule="evenodd" d="M0 24.5981V25.4466C0.382553 26.0004 0.738416 26.6613 1.79711 26.4202C3.3807 26.0718 3.28284 23.7138 1.62807 23.5352C0.631657 23.437 0.36476 24.0265 0 24.5981Z" fill="#B1B1B1"/>
<path fill-rule="evenodd" clip-rule="evenodd" d="M1.73428 33.8423C2.04566 35.5394 4.96374 35.3071 4.62567 33.2707C4.2965 31.395 1.36952 31.8505 1.73428 33.8423Z" fill="#B1B1B1"/>
<path fill-rule="evenodd" clip-rule="evenodd" d="M34.5629 35.5752C35.1857 34.039 32.8548 33.119 32.2498 34.5927C31.5648 36.2362 33.958 37.0668 34.5629 35.5752Z" fill="#B1B1B1"/>
<path fill-rule="evenodd" clip-rule="evenodd" d="M34.5544 15.3894C35.2127 13.7549 32.7751 12.9331 32.2324 14.389C31.6007 16.0682 33.9761 16.7917 34.5544 15.3894Z" fill="#B1B1B1"/>
<path fill-rule="evenodd" clip-rule="evenodd" d="M36.6011 24.9911C36.5922 26.2683 38.5228 26.2683 38.5228 24.9911C38.5228 23.7228 36.61 23.7228 36.6011 24.9911Z" fill="#B1B1B1"/>
<path fill-rule="evenodd" clip-rule="evenodd" d="M35.5413 30.8682C35.8349 31.9221 37.6676 31.6542 37.374 30.2965C37.1071 29.1176 35.1499 29.5016 35.5413 30.8682Z" fill="#B1B1B1"/>
<path fill-rule="evenodd" clip-rule="evenodd" d="M35.5241 19.7123C35.7998 20.7841 37.7215 20.5519 37.3568 19.1407C37.0988 18.0867 35.186 18.3636 35.5241 19.7123Z" fill="#B1B1B1"/>
<path d="M56.3562 22.1408C56.3562 23.8421 57.4204 24.7991 58.8432 24.7991C60.2775 24.7991 61.3417 23.8421 61.3417 22.1408V2.84735C61.3417 1.15784 60.2775 0.200851 58.8432 0.200851C57.4204 0.200851 56.3562 1.15784 56.3562 2.84735V22.1408ZM64.1409 22.1408C64.1409 23.8421 65.2051 24.7991 66.6279 24.7991C68.0622 24.7991 69.1264 23.8421 69.1264 22.1408V9.47542H69.1958L79.7336 23.6767C80.2078 24.2793 81.2026 24.7991 81.8272 24.7991C83.2616 24.7991 84.3258 23.8421 84.3258 22.1408V2.84735C84.3258 1.15784 83.2616 0.200851 81.8272 0.200851C80.4045 0.200851 79.3403 1.15784 79.3403 2.84735V15.69H79.2709L68.7216 1.31144C68.3051 0.708884 67.2641 0.200851 66.6279 0.200851C65.2051 0.200851 64.1409 1.15784 64.1409 2.84735V22.1408ZM86.9284 22.1408C86.9284 23.8421 87.9926 24.7991 89.4269 24.7991C90.8497 24.7991 91.9254 23.8421 91.9254 22.1408V9.47542H91.9833L102.521 23.6767C102.995 24.2793 103.99 24.7991 104.615 24.7991C106.049 24.7991 107.113 23.8421 107.113 22.1408V2.84735C107.113 1.15784 106.049 0.200851 104.615 0.200851C103.192 0.200851 102.128 1.15784 102.128 2.84735V15.69H102.07L91.509 1.31144C91.0926 0.708884 90.0515 0.200851 89.4269 0.200851C87.9926 0.200851 86.9284 1.15784 86.9284 2.84735V22.1408ZM120.427 20.3095C116.205 20.3095 114.169 16.6352 114.169 12.5C114.169 8.38847 116.274 4.69045 120.427 4.69045C124.591 4.69045 126.685 8.38847 126.685 12.5C126.685 16.6352 124.649 20.3095 120.427 20.3095ZM120.427 25C127.252 25 131.867 19.5298 131.867 12.5C131.867 5.60019 127.113 0 120.427 0C113.637 0 108.987 5.42297 108.987 12.5C108.987 19.5298 113.672 25 120.427 25ZM139.814 22.8261C140.253 23.913 140.82 24.7991 142.278 24.7991C143.735 24.7991 144.302 23.913 144.741 22.8261L152.029 3.91068C152.191 3.46172 152.26 3.11909 152.26 2.6465C152.26 1.21692 151.022 0.200851 149.692 0.200851C148.57 0.200851 147.865 0.945179 147.437 1.86673L142.278 15.9972L137.119 1.86673C136.691 0.945179 135.985 0.200851 134.863 0.200851C133.521 0.200851 132.295 1.21692 132.295 2.6465C132.295 3.11909 132.364 3.46172 132.538 3.91068L139.814 22.8261ZM152.422 21.302C152.353 21.4674 152.191 21.8809 152.191 22.4126C152.191 23.7713 153.313 24.7991 154.643 24.7991C156.008 24.7991 156.713 24.0548 157.037 22.9915L158.044 19.8369H167.286L168.292 23.0269C168.616 24.0548 169.31 24.7991 170.71 24.7991C171.948 24.7991 173 23.8776 173 22.5543C173 22.318 172.931 21.8336 172.734 21.302L166.222 2.82372C165.655 1.18147 164.417 0 162.659 0C160.959 0 159.675 1.25236 159.108 2.82372L152.422 21.302ZM162.636 5.293H162.694L165.794 15.1465H159.478L162.636 5.293Z" fill="#8B8B8B"/>
<path d="M59.167 38.1637C59.167 34.1981 61.0988 29.8476 65.8182 29.8476C69.0917 29.8476 69.6816 31.8771 70.8731 31.8771C71.5324 31.8771 71.9488 31.3289 71.9488 30.6641C71.9488 29.6144 69.566 27.6316 65.8182 27.6316C59.5141 27.6316 56.3562 32.7752 56.3562 38.1637C56.3562 43.5406 59.5141 48.6842 65.6678 48.6842C69.3925 48.6842 72.3999 47.1213 72.3999 45.815C72.3999 45.0802 71.9835 44.6136 71.3589 44.6136C70.2484 44.6136 68.8604 46.4798 65.6678 46.4798C61.1566 46.4798 59.167 42.1176 59.167 38.1637ZM76.8418 38.1637C76.8418 34.1981 78.5768 29.8476 83.3425 29.8476C88.1082 29.8476 89.8433 34.1981 89.8433 38.1637C89.8433 42.1176 88.1082 46.4798 83.3425 46.4798C78.5768 46.4798 76.8418 42.1176 76.8418 38.1637ZM74.0425 38.1637C74.0425 43.5406 77.2929 48.6842 83.3425 48.6842C89.3922 48.6842 92.6542 43.5406 92.6542 38.1637C92.6542 32.7752 89.3922 27.6316 83.3425 27.6316C77.2929 27.6316 74.0425 32.7752 74.0425 38.1637ZM97.9288 32.3203H97.9867L108.721 47.3545C109.438 48.3693 109.797 48.6842 110.572 48.6842C111.405 48.6842 111.763 48.1943 111.763 47.1796V28.9962C111.763 28.1564 111.254 27.6316 110.456 27.6316C109.646 27.6316 109.137 28.1564 109.137 28.9962V44.0071H109.08L98.3452 28.9729C97.6281 27.9581 97.2695 27.6316 96.4945 27.6316C95.6616 27.6316 95.3031 28.1331 95.3031 29.1362V47.3196C95.3031 48.171 95.812 48.6842 96.6217 48.6842C97.4199 48.6842 97.9288 48.171 97.9288 47.3196V32.3203ZM118.773 47.3196C118.773 48.171 119.282 48.6842 120.08 48.6842C120.878 48.6842 121.387 48.171 121.387 47.3196V30.1859H125.366C126.107 30.1859 126.639 29.8126 126.639 28.9962C126.639 28.1797 126.107 27.8065 125.366 27.8065H114.805C114.065 27.8065 113.521 28.1797 113.521 28.9962C113.521 29.8126 114.065 30.1859 114.805 30.1859H118.773V47.3196ZM131.057 39.3534H136.806C137.547 39.3534 138.09 38.9801 138.09 38.1637C138.09 37.3473 137.547 36.9624 136.806 36.9624H131.057V30.1859H137.373C138.113 30.1859 138.657 29.8126 138.657 28.9962C138.657 28.1797 138.113 27.8065 137.373 27.8065H129.831C128.848 27.8065 128.432 28.413 128.432 29.2061V47.1213C128.432 47.9027 128.848 48.5092 129.831 48.5092H137.373C138.113 48.5092 138.657 48.136 138.657 47.3196C138.657 46.5148 138.113 46.1299 137.373 46.1299H131.057V39.3534ZM144.29 32.3203H144.348L155.082 47.3545C155.8 48.3693 156.158 48.6842 156.933 48.6842C157.766 48.6842 158.125 48.1943 158.125 47.1796V28.9962C158.125 28.1564 157.616 27.6316 156.818 27.6316C156.008 27.6316 155.51 28.1564 155.51 28.9962V44.0071H155.441L144.707 28.9729C143.99 27.9581 143.631 27.6316 142.856 27.6316C142.023 27.6316 141.665 28.1331 141.665 29.1362V47.3196C141.665 48.171 142.173 48.6842 142.983 48.6842C143.781 48.6842 144.29 48.171 144.29 47.3196V32.3203ZM165.134 47.3196C165.134 48.171 165.643 48.6842 166.442 48.6842C167.251 48.6842 167.749 48.171 167.749 47.3196V30.1859H171.728C172.468 30.1859 173 29.8126 173 28.9962C173 28.1797 172.468 27.8065 171.728 27.8065H161.167C160.427 27.8065 159.883 28.1797 159.883 28.9962C159.883 29.8126 160.427 30.1859 161.167 30.1859H165.134V47.3196Z" fill="#C9C9C9"/>
</svg>
