<svg width="23" height="20" viewBox="0 0 23 20" fill="none" xmlns="http://www.w3.org/2000/svg">
<path d="M21.5883 13.3243H9.90925C9.80498 13.3243 9.7007 13.3243 9.7007 13.3243C8.34509 15.116 6.98948 16.8024 5.63387 18.5942C5.5296 18.8049 5.21676 18.6995 5.21676 18.4888C5.32104 16.8024 5.32104 15.2214 5.42532 13.5351C5.42532 13.4297 5.32104 13.3243 5.21676 13.3243H2.08844C1.98416 13.3243 1.87988 13.2189 1.87988 13.1135V1.30897C1.87988 1.20357 1.98416 1.09818 2.08844 1.09818H21.5883C21.6926 1.09818 21.7969 1.20357 21.7969 1.30897V13.0081C21.7969 13.2189 21.6926 13.3243 21.5883 13.3243Z" stroke="white" stroke-width="2" stroke-miterlimit="10" stroke-linecap="round" stroke-linejoin="round"/>
</svg>
