<svg width="26" height="26" viewBox="0 0 26 26" fill="none" xmlns="http://www.w3.org/2000/svg">
<path d="M25.9253 13C25.9253 5.83136 20.1181 -2.54897e-07 12.9792 -5.68248e-07C5.84035 -8.81599e-07 0.0331819 5.83136 0.0331816 13C0.0331813 20.1686 5.84136 26 12.9792 26C20.1171 26 25.9253 20.1686 25.9253 13ZM2.03876 13C2.03876 6.94306 6.94643 2.01393 12.9792 2.01393C19.012 2.01393 23.9197 6.94307 23.9197 13C23.9197 19.0579 19.012 23.9861 12.9792 23.9861C6.94643 23.9861 2.03876 19.0569 2.03876 13Z" fill="#AC2ED9"/>
<path d="M11.5953 18.7498L16.6093 13.7149C16.9984 13.3222 16.9984 12.6878 16.6093 12.2951L11.5953 7.26024C11.2203 6.93702 10.6657 6.93702 10.2907 7.26024C9.87053 7.62175 9.82142 8.25814 10.1814 8.68008L14.4834 13L10.1814 17.33C9.79229 17.7227 9.79229 18.3571 10.1814 18.7498C10.5725 19.1405 11.2043 19.1405 11.5953 18.7498Z" fill="#AC2ED9"/>
</svg>
