<svg width="191" height="67" viewBox="0 0 191 67" fill="none" xmlns="http://www.w3.org/2000/svg">
<path fill-rule="evenodd" clip-rule="evenodd" d="M0.220703 1.20385H11.0591V5.02157H11.2662C13.5594 2.39221 17.3804 0.0144043 23.2853 0.0144043C36.9721 0.0144043 42.1137 10.842 42.1137 18.9154C42.1137 28.9287 34.3319 37.128 23.3537 37.128C16.4067 37.128 13.142 34.1235 11.7519 32.8093V43.7626H0.220703V1.20385ZM30.5825 18.6032C30.5825 14.4732 27.2473 9.71539 20.9249 9.71539C14.6025 9.71539 11.2673 14.4732 11.2673 18.6032C11.2673 22.9836 14.8812 27.4281 20.9249 27.4281C26.9686 27.4281 30.5825 22.9836 30.5825 18.6032ZM91.9968 35.9407H80.4634V32.1848H80.3246C78.3783 35.5645 73.5847 37.1291 69.0687 37.1291C56.8414 37.1291 49.6852 28.4928 49.6852 18.5403C49.6852 7.15 58.7866 0.015488 69.0687 0.015488C75.3911 0.015488 78.9345 2.76954 80.3246 4.89688H80.4634V1.20494H91.9968V35.9407ZM70.8057 27.4281C78.0313 27.4281 80.4634 21.92 80.4634 18.5403C80.4634 14.3474 77.2669 9.71539 70.7364 9.71539C64.1364 9.71539 61.2175 14.7226 61.2175 18.665C61.2186 21.92 63.8588 27.4281 70.8057 27.4281ZM141.396 22.7332C139.312 30.6191 131.6 37.0673 121.179 37.0673C109.506 37.0673 100.546 28.8051 100.546 18.4774C100.546 8.27656 109.369 0.0144043 120.901 0.0144043C131.113 0.0144043 139.381 6.08524 141.327 14.5968H129.654C128.404 12.219 126.11 9.71539 121.318 9.71539C115.829 9.46601 112.146 13.5331 112.146 18.5403C112.146 23.6103 115.828 27.3663 121.318 27.3663C126.11 27.3663 128.403 24.8627 129.654 22.7342H141.396V22.7332ZM170.007 0.0772907C184.041 0.0772907 190.779 10.0287 190.779 18.5392C190.779 27.0518 184.041 37.0033 170.007 37.0033C155.973 37.0033 149.232 27.0518 149.232 18.5392C149.232 10.0287 155.972 0.0772907 170.007 0.0772907ZM170.007 27.3034C175.009 27.3034 179.246 23.6103 179.246 18.5403C179.246 13.4713 175.009 9.77828 170.007 9.77828C165.005 9.77828 160.766 13.4713 160.766 18.5403C160.765 23.6103 165.004 27.3034 170.007 27.3034ZM3.74676 55.8447H0.220703V54.1088H9.22667V55.8447H5.70061V66.9867H3.74676V55.8447ZM59.0587 54.1088H61.0115V66.9867H59.0587V54.1088ZM114.431 54.1088H116.276L119.964 62.501L123.582 54.1088H125.427V66.9867H123.474V58.9555H123.438L120.742 65.1423H119.115L116.422 58.9555H116.384V66.9867H114.431V54.1088ZM180.29 54.1088H188.518V55.9553H182.243V59.6255H187.596V61.3615H182.243V65.1423H188.518V66.9867H180.29V54.1088Z" fill="#A3A3A3"/>
</svg>
