<svg width="63" height="62" viewBox="0 0 63 62" fill="none" xmlns="http://www.w3.org/2000/svg">
<g clip-path="url(#clip0_61_164)">
<path d="M31.2073 7.87836C31.8808 7.87836 32.4269 7.33235 32.4269 6.65882V1.21954C32.4269 0.546012 31.8808 0 31.2073 0C30.5338 0 29.9878 0.546012 29.9878 1.21954V6.65882C29.9879 7.33235 30.5339 7.87836 31.2073 7.87836Z" fill="#00CCAA"/>
<path d="M61.0174 41.8966L58.8631 39.7483C58.0967 38.9829 57.0752 38.5612 55.9868 38.5612C55.2909 38.5612 54.6228 38.7344 54.0308 39.0588L49.971 35.0038L50.1688 34.8063C51.8158 33.1561 51.8152 30.4745 50.1687 28.8298C49.5803 28.2403 48.8461 27.8472 48.0458 27.6818C48.156 27.3014 48.214 26.903 48.214 26.4953C48.214 25.3625 47.7739 24.3002 46.9773 23.507C46.3888 22.9175 45.6548 22.5244 44.8545 22.359C44.9646 21.9786 45.0227 21.5804 45.0227 21.1725C45.0227 20.0396 44.5826 18.9774 43.7847 18.183C43.1822 17.5811 42.4414 17.2002 41.6636 17.038C42.0797 15.6034 41.7242 13.9894 40.5956 12.8588C39.6561 11.9234 38.3814 11.5213 37.1529 11.6516L29.108 10.1289C27.8811 9.89614 26.3489 9.74223 25.3817 10.6244C25.3207 10.6801 25.2585 10.7442 25.1972 10.8155C23.6976 10.2689 21.9485 10.5944 20.7476 11.7939C19.9509 12.5896 19.5121 13.6514 19.5121 14.7836C19.5121 15.1915 19.5698 15.5897 19.6799 15.9702C18.8805 16.1355 18.1472 16.5281 17.5608 17.1156C16.7625 17.9106 16.3223 18.9711 16.3215 20.102C16.3211 20.5109 16.3791 20.9105 16.4898 21.2919C15.69 21.4568 14.9563 21.8487 14.368 22.4362C13.5698 23.2337 13.1302 24.296 13.1302 25.4276C13.1302 26.2944 13.389 27.1202 13.8685 27.8177C13.263 28.0229 12.7084 28.3645 12.244 28.8284C10.5959 30.4745 10.5953 33.1562 12.2451 34.8089L12.4421 35.0051L8.38187 39.0579C6.87292 38.3475 5.01377 38.6136 3.76856 39.8573L1.61285 42.0069C0.846082 42.7727 0.423949 43.7943 0.423828 44.8833C0.423828 45.9724 0.846082 46.9941 1.61285 47.76L4.30319 50.4471C4.77969 50.9231 5.55191 50.9226 6.0278 50.4461C6.50382 49.9696 6.50334 49.1974 6.02684 48.7215L3.3365 46.0344C3.0311 45.7294 2.8629 45.3205 2.8629 44.8834C2.8629 44.4464 3.0311 44.0377 3.33577 43.7334L5.4916 41.5836C6.03023 41.0456 6.85463 40.9654 7.48069 41.3397C7.52477 41.4059 7.57575 41.4689 7.63411 41.5274C7.73862 41.6322 7.85789 41.7124 7.98456 41.7712L20.3474 54.1158C20.4061 54.2438 20.4868 54.3643 20.592 54.4697C20.6944 54.5722 20.8113 54.6516 20.9353 54.7099C21.1967 55.0055 21.3412 55.3831 21.3412 55.7858C21.3412 56.223 21.173 56.6317 20.8676 56.9367L18.7139 59.0878C18.0776 59.7214 17.0425 59.7213 16.4081 59.0898L13.7177 56.3992C13.2415 55.9229 12.4694 55.9229 11.9931 56.3992C11.5169 56.8754 11.5169 57.6475 11.9931 58.1238L14.6854 60.8163C15.4778 61.6055 16.5185 61.9999 17.5597 61.9999C18.6011 61.9999 19.643 61.6049 20.4364 60.815L22.5914 58.6625C23.3581 57.8966 23.7804 56.8751 23.7804 55.7858C23.7804 55.0085 23.5642 54.2662 23.1623 53.6261L27.7319 49.0621C27.7368 49.0571 27.7416 49.0522 27.7466 49.0472C28.2698 48.5063 29.7269 48.6075 31.1361 48.7054C32.1373 48.775 33.2536 48.8524 34.3441 48.7267L39.3482 53.7248C39.024 54.3159 38.851 54.9831 38.851 55.6779C38.851 56.766 39.2732 57.7869 40.04 58.5528L42.1951 60.7053C42.9614 61.4707 43.9828 61.8923 45.0712 61.8923C46.1595 61.8923 47.1809 61.4708 47.9473 60.7053L61.0183 47.6501C61.7851 46.8843 62.2073 45.8628 62.2073 44.7737C62.2072 43.6847 61.7849 42.6631 61.0174 41.8966ZM28.6539 12.5253L33.9442 13.5267L30.7777 16.6919C30.2878 16.4565 29.6165 16.0174 28.88 15.3129C27.8719 14.3485 27.1508 13.2351 27.0852 12.5406C27.085 12.5402 27.085 12.5399 27.085 12.5395C27.085 12.5394 27.0849 12.5393 27.0849 12.5391C27.0802 12.4892 27.079 12.4494 27.0796 12.419C27.2391 12.3803 27.6627 12.3373 28.6539 12.5253ZM22.4711 13.5196C23.0889 12.9024 24.0487 12.8312 24.7468 13.304C25.1425 14.9627 26.5574 16.4661 27.194 17.0752C27.6658 17.5266 29.1796 18.8801 30.7076 19.2521C30.9143 19.5484 31.0268 19.9016 31.0268 20.2744C31.0268 20.7545 30.8421 21.2034 30.5056 21.5395C30.17 21.8757 29.7204 22.0607 29.2394 22.0607C28.7583 22.0607 28.3087 21.8757 27.9716 21.538L27.9714 21.5379L27.9708 21.5372L22.471 16.0473C22.1357 15.7125 21.951 15.2636 21.951 14.7836C21.9511 14.3035 22.1358 13.8546 22.4711 13.5196ZM19.2844 18.8413C19.62 18.5053 20.0691 18.3202 20.5494 18.3202C21.0302 18.3202 21.4808 18.5057 21.8186 18.843L26.2472 23.2628C26.9446 23.9613 26.9446 25.0979 26.2496 25.7939C25.9122 26.13 25.4611 26.315 24.9792 26.315C24.4974 26.315 24.0462 26.13 23.7103 25.7954L23.7102 25.7953L20.3504 22.4362C20.3452 22.431 20.3395 22.4262 20.3342 22.4209L19.2831 21.3703C18.9458 21.0334 18.7602 20.5836 18.7606 20.1039C18.7611 19.6257 18.9461 19.1782 19.2844 18.8413ZM16.0917 24.162C16.4275 23.8266 16.8776 23.642 17.3593 23.642C17.837 23.642 18.2832 23.824 18.6176 24.1535L21.9876 27.5219C22.3236 27.8566 22.5088 28.3051 22.5088 28.7846C22.5088 29.264 22.3236 29.7124 21.9863 30.0484C21.6506 30.3836 21.201 30.5683 20.7201 30.5683C20.2385 30.5683 19.7874 30.3831 19.4513 30.0484L18.2296 28.8282C18.2293 28.8278 18.229 28.8276 18.2287 28.8273L16.0918 26.6929C15.7549 26.3564 15.5694 25.9069 15.5694 25.4274C15.5694 24.948 15.7549 24.4984 16.0917 24.162ZM13.9677 30.554C14.3049 30.2171 14.7556 30.0316 15.2367 30.0316C15.7177 30.0316 16.1683 30.217 16.5054 30.5536L17.7289 31.7756C18.065 32.1103 18.25 32.5587 18.25 33.0382C18.25 33.5178 18.0649 33.9661 17.7263 34.3034C17.3908 34.6395 16.9411 34.8246 16.4602 34.8246C15.979 34.8246 15.5294 34.6396 15.1915 34.301L15.0383 34.1484C15.0362 34.1464 15.0346 34.1442 15.0327 34.1423C15.0304 34.1401 15.028 34.1381 15.0257 34.136L13.9689 33.0833C13.2715 32.3845 13.2709 31.2499 13.9677 30.554ZM38.8202 44.4142C38.3442 43.9375 37.572 43.9372 37.0956 44.4131L36.0106 45.4967C34.9796 46.5277 33.1115 46.3979 31.3049 46.2726C29.3431 46.1362 27.3144 45.9955 26.0016 47.3433L21.5096 51.8298L10.2766 40.6133L14.2519 36.6451C14.9089 37.0479 15.6671 37.2638 16.4604 37.2638C17.5937 37.2638 18.6564 36.8245 19.4502 36.0293C20.2493 35.2334 20.6895 34.1713 20.6895 33.0384C20.6895 33.0278 20.6887 33.0174 20.6887 33.0069C20.6993 33.007 20.7098 33.0076 20.7204 33.0076C21.8521 33.0076 22.914 32.5696 23.7088 31.7757C24.5079 30.9799 24.9481 29.9177 24.9481 28.7848C24.9481 28.7743 24.9474 28.7639 24.9474 28.7533C24.958 28.7533 24.9687 28.7541 24.9795 28.7541C26.1108 28.7541 27.1733 28.3166 27.9735 27.5196C28.8042 26.6876 29.2151 25.5922 29.2072 24.4991C29.2181 24.4992 29.229 24.4998 29.2399 24.4998C30.3732 24.4997 31.4358 24.0605 32.2308 23.264C33.0275 22.4683 33.4663 21.4066 33.4663 20.2744C33.4663 19.4825 33.251 18.7256 32.8496 18.0698L36.3338 14.5871C36.5934 14.3285 36.9136 14.1663 37.2492 14.0993C37.2855 14.0954 37.3213 14.0896 37.3568 14.0826C37.8952 14.0084 38.4606 14.1745 38.8723 14.5845C39.5697 15.2831 39.5697 16.4197 38.8748 17.1158L37.8137 18.1725C37.8102 18.176 37.8064 18.1792 37.8029 18.1827L36.5807 19.4028C36.1041 19.8787 36.1036 20.651 36.5796 21.1275C37.0558 21.6041 37.8279 21.6045 38.3043 21.1286L39.3696 20.0646C39.3699 20.0644 39.3701 20.0641 39.3704 20.0639L39.5314 19.9035C40.2307 19.2106 41.3637 19.212 42.0623 19.9096C42.3984 20.2443 42.5836 20.6927 42.5836 21.1723C42.5836 21.6517 42.3984 22.1001 42.0596 22.4375L40.9924 23.5068C40.9923 23.507 40.9922 23.5071 40.9921 23.5073L39.77 24.7244C39.2927 25.1997 39.2912 25.9719 39.7665 26.4491C40.2418 26.9263 41.0138 26.9277 41.4911 26.4526L42.7187 25.2299C43.0543 24.8937 43.5039 24.7087 43.9849 24.7087C44.466 24.7087 44.9157 24.8937 45.2537 25.2323C45.5899 25.5671 45.7749 26.0155 45.7749 26.4951C45.7749 26.9745 45.5899 27.4229 45.2518 27.7595L43.1241 29.888C42.648 30.3644 42.6481 31.1365 43.1244 31.6126C43.3626 31.8507 43.6745 31.9696 43.9866 31.9696C44.2988 31.9696 44.6109 31.8504 44.849 31.6122L45.8917 30.5691C45.8977 30.5635 45.9041 30.5585 45.91 30.5526C46.2456 30.2164 46.6952 30.0314 47.1762 30.0314C47.6573 30.0314 48.1069 30.2164 48.4437 30.5538C49.1403 31.2497 49.1397 32.3843 48.4437 33.0816L47.3835 34.1406C47.3831 34.1409 47.3826 34.1413 47.3823 34.1417C47.3819 34.142 47.3816 34.1425 47.3812 34.1429L45.6985 35.8235C45.222 36.2995 45.2215 37.0718 45.6974 37.5483C45.9356 37.7867 46.248 37.906 46.5603 37.906C46.8721 37.906 47.1841 37.7871 47.4221 37.5494L48.2452 36.7272L52.1901 40.6675L40.958 51.8859L36.9336 47.8663C37.2142 47.6859 37.4826 47.4737 37.7346 47.2217L38.819 46.1387C39.2958 45.6629 39.2963 44.8907 38.8202 44.4142ZM59.2945 45.9244L46.2235 58.9796C45.9178 59.285 45.5085 59.4532 45.0711 59.4532C44.6337 59.4532 44.2244 59.285 43.9185 58.9794L41.7634 56.827C41.458 56.5221 41.2898 56.114 41.2898 55.6779C41.2898 55.242 41.458 54.8339 41.7634 54.5289L54.8344 41.4738C55.1403 41.1682 55.5495 41 55.987 41C56.4244 41 56.8337 41.1682 57.1403 41.4745L59.2946 43.6228C59.6 43.9278 59.7682 44.3364 59.7682 44.7736C59.7681 45.2108 59.5999 45.6195 59.2945 45.9244Z" fill="#00CCAA"/>
<path d="M15.0136 6.85027C15.2517 7.08786 15.5634 7.20653 15.8751 7.20653C16.1875 7.20653 16.5 7.08713 16.7382 6.84845C17.214 6.37171 17.2133 5.59961 16.7365 5.12384L12.2926 0.688777C11.816 0.212999 11.0438 0.213605 10.568 0.690472C10.0922 1.16722 10.093 1.93931 10.5697 2.41509L15.0136 6.85027Z" fill="#00CCAA"/>
<path d="M46.5396 7.20654C46.8514 7.20654 47.1633 7.08762 47.4014 6.84991L51.8419 2.41473C52.3184 1.93884 52.3189 1.16662 51.8429 0.690116C51.367 0.213613 50.5949 0.213128 50.1183 0.689148L45.6778 5.12433C45.2012 5.60023 45.2008 6.37244 45.6768 6.84895C45.915 7.08738 46.2273 7.20654 46.5396 7.20654Z" fill="#00CCAA"/>
<path d="M7.92236 52.4583C7.45022 52.9386 7.45676 53.7108 7.93714 54.1829L7.94065 54.1863C8.17763 54.4193 8.48533 54.5353 8.79291 54.5353C9.1086 54.5353 9.42429 54.4131 9.66345 54.1698C10.1356 53.6896 10.1272 52.9157 9.64698 52.4435C9.16684 51.9714 8.39475 51.978 7.92236 52.4583Z" fill="#00CCAA"/>
<path d="M41.8027 42.6573C41.9882 42.6573 42.1764 42.6151 42.3531 42.5261C42.9544 42.2227 43.196 41.4894 42.8928 40.888C42.5895 40.2867 41.856 40.045 41.2548 40.3483L41.248 40.3517C40.6466 40.655 40.4084 41.3867 40.7117 41.988C40.9257 42.4128 41.3564 42.6573 41.8027 42.6573Z" fill="#00CCAA"/>
</g>
<defs>
<clipPath id="clip0_61_164">
<rect width="62" height="62" fill="white" transform="translate(0.31543)"/>
</clipPath>
</defs>
</svg>
