<svg width="15" height="11" viewBox="0 0 15 11" fill="none" xmlns="http://www.w3.org/2000/svg">
<path d="M14.7799 4.13052C14.7799 3.82021 14.7284 3.4582 14.7284 3.04446C14.6769 2.63072 14.6254 2.21698 14.5739 1.85496C14.4709 1.44123 14.3164 1.13093 14.0074 0.872339C13.7499 0.613754 13.3894 0.458597 13.0288 0.40688C11.8443 0.251728 10.0932 0.200014 7.72407 0.200013C5.35495 0.200013 3.55235 0.251727 2.4193 0.406878C2.05878 0.458595 1.69826 0.613751 1.44075 0.872337C1.18324 1.13092 0.977225 1.44122 0.87422 1.85496C0.771215 2.21698 0.719718 2.579 0.719718 3.04446C0.668215 3.45819 0.668212 3.82021 0.668212 4.13051C0.668212 4.44082 0.668212 4.80284 0.668212 5.32001C0.668212 5.83718 0.668212 6.25092 0.668212 6.50951C0.668212 6.81981 0.719717 7.18183 0.719717 7.59557C0.77122 8.00931 0.822716 8.42304 0.874219 8.78506C0.977224 9.1988 1.13173 9.5091 1.44075 9.76769C1.69826 10.0263 2.05878 10.1814 2.4193 10.2331C3.60386 10.3883 5.35495 10.44 7.72407 10.44C10.0932 10.44 11.8958 10.3883 13.0288 10.2331C13.3894 10.1814 13.7499 10.0263 14.0074 9.76769C14.2649 9.50911 14.4709 9.1988 14.5739 8.78506C14.6769 8.42304 14.7284 8.06103 14.7284 7.59557C14.7799 7.18184 14.7799 6.81981 14.7799 6.50951C14.7799 6.19921 14.7799 5.83718 14.7799 5.32001C14.7799 4.80284 14.7799 4.3891 14.7799 4.13052ZM10.4537 5.73375L6.385 8.26789C6.3335 8.31961 6.23049 8.37133 6.12749 8.37133C6.02448 8.37133 5.97298 8.37133 5.86998 8.31961C5.71547 8.21617 5.61246 8.06103 5.61246 7.85416L5.61246 2.73415C5.61246 2.52728 5.71547 2.37213 5.86998 2.2687C6.02448 2.16527 6.2305 2.16527 6.385 2.2687L10.4537 4.80284C10.6082 4.90627 10.7112 5.06143 10.7112 5.21658C10.7112 5.37173 10.6082 5.63032 10.4537 5.73375Z" fill="#393939"/>
</svg>
