<svg width="16" height="17" viewBox="0 0 16 17" fill="none" xmlns="http://www.w3.org/2000/svg">
<path d="M14.0652 6.78745L2.64677 0.261691C1.43555 -0.432672 0.200684 0.326716 0.200684 1.69226V15.3154C0.200684 16.4723 0.950727 16.9999 1.64784 16.9999C1.97612 16.9999 2.3106 16.8958 2.64283 16.6929L14.1125 9.64293C14.6891 9.28727 15.0129 8.76084 15.0028 8.19823C14.9932 7.63505 14.652 7.1205 14.0652 6.78745ZM13.3439 8.38369L1.87477 15.4319C1.79762 15.4794 1.73681 15.5032 1.69514 15.515C1.68388 15.4732 1.67261 15.4087 1.67261 15.3154V1.69282C1.67261 1.55259 1.69795 1.48191 1.69795 1.46438C1.743 1.46721 1.82183 1.49039 1.92094 1.54694L13.3377 8.0727C13.4785 8.15356 13.5201 8.22367 13.5337 8.20841C13.5263 8.22763 13.4785 8.29944 13.3439 8.38369Z" fill="#09D2B0"/>
</svg>
