<svg width="132" height="107" viewBox="0 0 132 107" fill="none" xmlns="http://www.w3.org/2000/svg">
<path fill-rule="evenodd" clip-rule="evenodd" d="M122.053 43.8351L116.394 53.446L110.544 43.8351H100.266L111.648 62.5601V80.1494H120.622V62.3469L132 43.8351H122.053ZM52.1797 98.4656C49.9741 98.4656 48.321 100.407 48.321 102.732C48.321 105.101 50.0136 107 52.1797 107C54.3443 107 56.0743 105.145 56.0743 102.732C56.0736 100.363 54.3436 98.4656 52.1797 98.4656ZM118.246 84.2429C115.333 84.2429 113.208 85.536 111.634 88.2497C110.766 85.5796 108.761 84.2429 105.611 84.2429C102.738 84.2429 100.731 85.6226 99.079 88.636V84.9295H92.3474V94.4538C91.8069 88.7127 87.2942 84.2421 81.5397 84.2421C75.4007 84.2421 70.7138 89.3283 70.7138 95.6204C70.7138 96.8087 70.8845 97.9534 71.1978 99.0341C70.0597 100.319 68.9598 100.878 67.5099 100.878C64.6326 100.878 62.904 98.7245 62.904 95.5338C62.904 92.0849 64.7131 90.0607 67.3504 90.0607C68.727 90.0607 69.908 90.6651 71.2091 91.9146V85.5796C69.6724 84.5862 68.1385 84.2429 66.29 84.2429C60.3817 84.2429 56.1724 88.897 56.1724 95.5781C56.1724 102.646 60.4628 107 66.2095 107C68.0186 107 69.6364 106.482 71.2084 105.532V99.0616C72.5532 103.645 76.5452 107 81.5397 107C87.2942 107 91.8076 102.529 92.3474 96.7869V106.181H98.9993V97.1717C98.9993 92.5598 99.2364 89.7153 102.462 89.7153C104.747 89.7153 105.218 91.3096 105.218 94.584V106.18H111.83V97.1711C111.83 92.5155 112.067 89.7145 115.253 89.7145C117.498 89.7145 118.049 91.2223 118.049 94.5833V106.18H124.818V94.0282V93.1649C124.818 90.7052 124.738 88.6353 123.521 86.8285C122.34 85.1047 120.567 84.2429 118.246 84.2429ZM81.539 100.709C79.0188 100.709 77.4821 98.7667 77.4821 95.6218C77.4821 92.4733 79.0188 90.4934 81.539 90.4934C84.0564 90.4934 85.5931 92.4733 85.5931 95.6218C85.5931 98.7667 84.0572 100.709 81.539 100.709ZM53.3191 68.0634V80.1494H67.9515C68.5442 80.1494 75.5348 79.5514 79.6319 73.1355L77.183 80.1494H86.1569L88.5614 73.7406H99.6202L101.763 80.1494H110.999L98.6437 43.8351H89.8673L82.3257 65.4335C82.4922 64.224 82.5833 62.9133 82.5833 61.492C82.5833 45.8283 69.7747 43.8351 68.6049 43.8351H53.3191V55.9901C50.9146 48.5301 44.1646 43.1583 36.2194 43.1583C30.393 43.1583 25.2121 46.045 21.9137 50.5233V43.8351H0V52.2358H6.30621V80.1487H15.2801V52.0226H20.9146C19.1776 54.9249 18.1757 58.3513 18.1757 62.0282C18.1757 72.4474 26.2556 80.8995 36.2194 80.8995C44.1646 80.8995 50.9146 75.527 53.3191 68.0634ZM94.2876 56.294L97.5395 66.4783H91.0365L94.2876 56.294ZM62.5548 51.8812C62.5548 51.8812 73.6087 49.3891 73.6087 61.6342C73.6087 74.4554 62.5548 71.817 62.5548 71.817V51.8812ZM36.1362 71.9978C30.9744 71.9978 26.789 67.6152 26.789 62.2069C26.789 56.7985 30.9744 52.4138 36.1362 52.4138C41.2987 52.4138 45.484 56.7978 45.484 62.2069C45.484 67.616 41.2987 71.9978 36.1362 71.9978ZM76.2905 20.4511C78.8551 22.7293 82.6693 23.2626 84.9581 24.0231C87.1778 24.7802 88.428 25.8447 87.7309 28.5809C87.1785 30.7838 84.9581 31.6161 81.9765 31.087C78.369 30.4025 75.592 27.0626 75.592 27.0626L71.5019 35.2642C71.5019 35.2642 77.4673 40.4263 84.8897 40.4263C91.4795 40.4263 94.4584 36.1732 94.4584 36.1732L93.4191 39.9697H103.13L105.418 33.138H117.349L119.637 39.9697H129.693L116.655 1.08378H106.801L98.1343 25.768C98.1343 25.768 97.9262 23.1099 96.194 20.2259C94.6686 17.7191 92.5865 16.6532 88.0774 15.2876C83.5696 13.9951 82.8754 12.7054 83.2239 10.9592C83.5696 9.28817 84.8883 8.45162 86.4828 8.45162C90.0903 8.52831 93.3493 11.1871 93.3493 11.1871L96.9553 3.74189C96.9553 3.74189 92.7926 0.326732 86.2754 0.02138C83.9866 -0.0546061 80.5181 -0.0546058 77.5343 2.30026C74.6903 4.57844 73.5134 8.29894 73.3053 11.4904C73.1691 14.7564 73.6531 18.1757 76.2905 20.4511ZM111.659 15.1363L114.918 25.0082H108.332L111.659 15.1363Z" fill="#A3A3A3"/>
</svg>
