<svg width="439" height="320" viewBox="0 0 439 320" fill="none" xmlns="http://www.w3.org/2000/svg">
<path fill-rule="evenodd" clip-rule="evenodd" d="M71.0935 132.28L192.413 11.0824C207.204 -3.69412 231.468 -3.69412 246.31 11.0824L367.579 132.28C382.421 147.057 382.421 171.296 367.579 186.123L246.31 307.27C231.468 322.097 207.204 322.097 192.413 307.27L71.0935 186.123C56.3022 171.296 56.3022 147.057 71.0935 132.28ZM217.69 60.2699L303.956 109.812V159.404L174.278 85.2179L217.69 60.2699ZM303.956 159.404V209.3L217.69 258.892L174.633 234.147L303.956 159.404ZM174.025 233.793L131.424 209.3V109.812L174.025 85.3697V233.793ZM82.4909 134.355L194.49 22.519C208.167 8.80517 230.556 8.80517 244.233 22.519L356.181 134.355C369.858 148.018 369.858 170.385 356.181 184.048L244.233 295.884C230.556 309.547 208.167 309.547 194.49 295.884L82.4909 184.048C68.814 170.385 68.814 148.018 82.4909 134.355Z" fill="#00CCAA"/>
<ellipse cx="218.5" cy="159" rx="114.5" ry="114" fill="#02B99B"/>
<circle cx="219" cy="159" r="105" fill="#2C2C2C"/>
<circle cx="218.5" cy="158.5" r="100.5" fill="#02B99B"/>
<ellipse cx="218" cy="159.5" rx="94" ry="94.5" fill="#2F2F2F"/>
<path d="M184.008 150.703V170H170.297V113.125H192.992C197.341 113.125 201.182 113.932 204.516 115.547C207.875 117.135 210.466 119.414 212.289 122.383C214.138 125.326 215.062 128.672 215.062 132.422C215.062 137.969 213.07 142.409 209.086 145.742C205.128 149.049 199.685 150.703 192.758 150.703H184.008ZM184.008 140.117H192.992C195.648 140.117 197.667 139.453 199.047 138.125C200.453 136.797 201.156 134.922 201.156 132.5C201.156 129.844 200.44 127.721 199.008 126.133C197.576 124.544 195.622 123.737 193.148 123.711H184.008V140.117ZM243.539 149.922H236.117V170H222.406V113.125H244.789C251.534 113.125 256.807 114.622 260.609 117.617C264.411 120.612 266.312 124.844 266.312 130.312C266.312 134.271 265.505 137.552 263.891 140.156C262.302 142.76 259.802 144.87 256.391 146.484L268.266 169.414V170H253.578L243.539 149.922ZM236.117 139.336H244.789C247.393 139.336 249.346 138.659 250.648 137.305C251.977 135.924 252.641 134.01 252.641 131.562C252.641 129.115 251.977 127.201 250.648 125.82C249.32 124.414 247.367 123.711 244.789 123.711H236.117V139.336Z" fill="#00CCAA"/>
<path d="M170.513 191.013C169.701 191.013 169.08 191.316 168.651 191.923C168.221 192.529 168.007 193.36 168.007 194.415C168.007 195.479 168.203 196.305 168.595 196.893C168.996 197.471 169.635 197.761 170.513 197.761C170.923 197.761 171.329 197.714 171.731 197.621C172.141 197.527 172.585 197.397 173.061 197.229V199.007C172.622 199.184 172.188 199.315 171.759 199.399C171.329 199.483 170.849 199.525 170.317 199.525C169.29 199.525 168.441 199.315 167.769 198.895C167.106 198.465 166.616 197.868 166.299 197.103C165.981 196.328 165.823 195.427 165.823 194.401C165.823 193.393 166.005 192.501 166.369 191.727C166.733 190.952 167.26 190.345 167.951 189.907C168.651 189.468 169.505 189.249 170.513 189.249C171.007 189.249 171.502 189.314 171.997 189.445C172.501 189.566 172.981 189.734 173.439 189.949L172.753 191.671C172.379 191.493 172.001 191.339 171.619 191.209C171.245 191.078 170.877 191.013 170.513 191.013ZM182.644 199.385H180.53V191.153H177.814V189.389H185.36V191.153H182.644V199.385ZM193.703 189.389C194.991 189.389 195.929 189.669 196.517 190.229C197.114 190.779 197.413 191.54 197.413 192.511C197.413 193.089 197.292 193.635 197.049 194.149C196.806 194.653 196.4 195.059 195.831 195.367C195.271 195.675 194.506 195.829 193.535 195.829H192.625V199.385H190.511V189.389H193.703ZM193.591 191.125H192.625V194.093H193.325C193.922 194.093 194.394 193.976 194.739 193.743C195.094 193.5 195.271 193.113 195.271 192.581C195.271 191.61 194.711 191.125 193.591 191.125ZM209.029 199.385L208.301 197.005H204.661L203.933 199.385H201.651L205.179 189.347H207.769L211.311 199.385H209.029ZM207.069 192.903C207.023 192.744 206.962 192.543 206.887 192.301C206.813 192.058 206.738 191.811 206.663 191.559C206.589 191.307 206.528 191.087 206.481 190.901C206.435 191.087 206.369 191.321 206.285 191.601C206.211 191.871 206.136 192.133 206.061 192.385C205.996 192.627 205.945 192.8 205.907 192.903L205.193 195.227H207.797L207.069 192.903ZM220.037 199.385H217.923V191.153H215.207V189.389H222.753V191.153H220.037V199.385ZM233.658 199.385H227.904V189.389H233.658V191.125H230.018V193.323H233.406V195.059H230.018V197.635H233.658V199.385ZM245.661 189.389V191.139H241.461V199.385H239.347V189.389H245.661ZM250.804 189.389H252.708V194.219C252.708 194.452 252.703 194.713 252.694 195.003C252.685 195.292 252.675 195.577 252.666 195.857C252.657 196.127 252.647 196.365 252.638 196.571C252.629 196.767 252.619 196.902 252.61 196.977H252.652L257.272 189.389H259.806V199.385H257.916V194.583C257.916 194.331 257.921 194.055 257.93 193.757C257.939 193.449 257.949 193.155 257.958 192.875C257.977 192.595 257.991 192.352 258 192.147C258.019 191.932 258.033 191.792 258.042 191.727H257.986L253.352 199.385H250.804V189.389ZM269.299 195.549L266.961 199.385H264.609L267.451 194.989C267.18 194.877 266.909 194.713 266.639 194.499C266.368 194.275 266.144 193.981 265.967 193.617C265.789 193.243 265.701 192.786 265.701 192.245C265.701 191.321 266.032 190.616 266.695 190.131C267.357 189.636 268.286 189.389 269.481 189.389H272.729V199.385H270.615V195.549H269.299ZM269.565 191.125C269.023 191.125 268.599 191.223 268.291 191.419C267.992 191.615 267.843 191.941 267.843 192.399C267.843 192.837 267.987 193.187 268.277 193.449C268.575 193.701 269.023 193.827 269.621 193.827H270.615V191.125H269.565Z" fill="white"/>
</svg>
