<svg width="16" height="14" viewBox="0 0 16 14" fill="none" xmlns="http://www.w3.org/2000/svg">
<path d="M0.5817 6.7899L4.13044 8.11867L5.51383 12.5882C5.57398 12.8901 5.93487 12.9505 6.17546 12.7694L8.16033 11.1386C8.34077 10.9574 8.64152 10.9574 8.88211 11.1386L12.4308 13.7357C12.6714 13.9169 13.0323 13.7961 13.0925 13.4941L15.739 0.810446C15.7991 0.508453 15.4984 0.206463 15.1976 0.32726L0.5817 6.00472C0.220813 6.12552 0.220813 6.6691 0.5817 6.7899ZM5.33339 7.45428L12.3105 3.16599C12.4308 3.10559 12.5511 3.28679 12.4308 3.34719L6.71679 8.72265C6.53634 8.90385 6.3559 9.14544 6.3559 9.44744L6.17546 10.897C6.17546 11.0782 5.87472 11.1386 5.81457 10.897L5.09279 8.23946C4.91234 7.93747 5.03265 7.57508 5.33339 7.45428Z" fill="#989898"/>
</svg>
