<svg width="214" height="19" viewBox="0 0 214 19" fill="none" xmlns="http://www.w3.org/2000/svg">
<g clip-path="url(#clip0_75_92)">
<path d="M32.1428 18.8613H23.0682V18.1611H23.5548C24.1563 18.1611 24.5106 17.8599 24.5106 17.0896V1.96411C24.5106 1.19377 24.1563 0.894088 23.5548 0.894088H23.0682V0.187366H32.1428V6.60651H31.5414V6.53544C31.5414 2.73296 30.4457 1.00889 28.4382 1.00889H26.949V8.756H27.3284C28.4604 8.756 28.991 7.61491 28.991 5.20847V5.1374H29.5939V13.2175H28.991V13.1693C28.991 10.8111 28.4841 9.59194 27.3284 9.59194H26.949V18.0463H28.347C30.3323 18.0463 31.5414 16.0111 31.5414 12.5431V12.47H32.1428V18.8613ZM22.4899 18.8613H17.1638V18.1611H17.6315C18.2282 18.1611 18.6076 17.8599 18.6076 17.0896V9.75595H14.7235V17.0891C14.7235 17.8624 15.1014 18.1606 15.701 18.1606H16.1687V18.8608H10.8426V18.1606H11.3071C11.9085 18.1606 12.2846 17.8594 12.2846 17.0891V1.96411C12.2846 1.19377 11.9085 0.894088 11.3071 0.894088H10.8426V0.187366H16.1687V0.894585H15.701C15.101 0.894585 14.7235 1.19427 14.7235 1.96461V8.756H18.6076V1.96411C18.6076 1.19377 18.2282 0.894088 17.6315 0.894088H17.1638V0.187366H22.4899V0.894585H22.0254C21.4254 0.894585 21.0493 1.19427 21.0493 1.96461V17.0896C21.0493 17.8629 21.4254 18.1611 22.0254 18.1611H22.4899V18.8613ZM10.5511 6.65224H9.95297V6.58266C9.95297 3.57685 8.86819 1.0084 7.60245 1.0084H7.06856V17.0906C7.06856 17.8624 7.44795 18.1606 8.04468 18.1606H8.59888V18.8608H3.12158V18.1606H3.65216C4.2503 18.1606 4.62686 17.8594 4.62686 17.0906V1.0084H4.161C2.89527 1.0084 1.81048 3.41483 1.81048 6.58266V6.65224H1.21045V0.186869H10.5511V6.65224ZM77.6938 18.8613H68.8837V18.1611H69.3718C69.9732 18.1611 70.3479 17.8813 70.3479 17.1129V1.93926C70.3479 1.1724 69.9732 0.894088 69.3718 0.894088H68.8837V0.187366H74.2113V0.894585H73.7421C73.144 0.894585 72.766 1.1729 72.766 1.93976V18.0468H74.079C76.4673 18.0468 77.0924 15.1751 77.0924 12.5187V12.4477H77.6938V18.8613ZM52.5076 0.893591H52.3294C51.4748 0.893591 51.0368 1.05611 50.733 2.59281L47.4947 19H46.4935L44.4737 8.26696H44.4515L42.3892 19H41.3895L38.2155 2.17185C38.0137 1.10183 37.7212 0.893094 36.8188 0.893094H36.7527V0.186372H41.5449V0.893591H41.4552C40.7658 0.893591 40.5924 1.10233 40.5924 1.59236C40.5924 1.7017 40.6113 1.92187 40.6364 2.05606L42.6562 13.4501H42.6973L44.007 5.95148L43.3219 2.17235C43.1518 1.23999 42.9486 0.893591 42.2324 0.893591H42.1237V0.186372H46.8696V0.893591H46.7832C45.9393 0.893591 45.7187 1.2067 45.7173 1.84583C45.7173 2.02127 45.7423 2.21658 45.782 2.43029L47.8037 13.3089H47.8476L49.7559 2.40544C49.7843 2.2464 49.8018 2.02971 49.8018 1.89205C49.8018 1.21614 49.5655 0.893591 48.6244 0.893591H48.4907V0.186372H52.5085V0.893591H52.5076ZM68.5516 18.8613H55.0135V18.1611H55.1269C56.0449 18.1611 56.3265 17.9041 56.3265 17.3694C56.3265 17.2188 56.2967 17.0185 56.2604 16.8048L55.8337 14.3357H52.817L52.3984 16.8048C52.3592 17.0369 52.3309 17.2054 52.3309 17.3694C52.3309 17.9489 52.5463 18.1611 53.4615 18.1611H53.5498V18.8613H49.7555V18.1611H49.9553C50.733 18.1611 51.1771 17.9707 51.3755 16.8724L54.4593 0H55.5928L58.7668 16.8043C58.9558 17.8196 59.4533 18.1606 59.8752 18.1606H60.231C60.831 18.1606 61.2071 17.8808 61.2071 17.1124V1.93926C61.2071 1.1724 60.831 0.894088 60.231 0.894088H59.7651V0.186869H65.0898V0.894088H64.6003C64.0022 0.894088 63.6242 1.1724 63.6242 1.93926V18.0463H64.9339C67.3284 18.0463 67.9506 15.1945 67.9506 12.4969V12.4258H68.5521V18.8613H68.5516ZM55.6589 13.4725L54.327 5.20847H54.2812L52.9507 13.4725H55.6589ZM140.65 6.65224H140.049V6.58117C140.049 3.57685 138.968 1.00989 137.697 1.00989H137.165V17.0906C137.165 17.8604 137.541 18.1636 138.141 18.1636H138.633V18.8589H133.237V18.1636H133.747C134.349 18.1636 134.725 17.8589 134.725 17.0906V1.00989H134.259C132.988 1.00989 131.908 3.41632 131.908 6.58117V6.65224H131.307V0.186869H140.651V6.65224H140.65ZM130.532 18.8589H121.456V18.1636H121.945C122.543 18.1636 122.899 17.8589 122.899 17.0906V1.96511C122.899 1.19527 122.543 0.8921 121.945 0.8921H121.456V0.186372H130.532V6.60552H129.934V6.53594C129.934 2.73196 128.833 1.00939 126.827 1.00939H125.339V8.75501H125.715C126.849 8.75501 127.381 7.60547 127.381 5.20748V5.1379H127.979V13.218H127.381V13.1718C127.381 10.8101 126.871 9.59443 125.715 9.59443H125.339V18.0438H126.736C128.72 18.0438 129.934 16.0116 129.934 12.5406V12.4725H130.532V18.8589ZM120.857 18.8589H111.781V18.1636H112.269C112.869 18.1636 113.225 17.8589 113.225 17.0906V1.96511C113.225 1.19527 112.869 0.8921 112.269 0.8921H111.781V0.186372H120.857V6.60552H120.256V6.53594C120.256 2.73196 119.16 1.00939 117.148 1.00939H115.661V8.75501H116.039C117.17 8.75501 117.707 7.60547 117.707 5.20748V5.1379H118.305V13.218H117.707V13.1718C117.707 10.8101 117.192 9.59443 116.039 9.59443H115.661V18.0438H117.059C119.045 18.0438 120.256 16.0116 120.256 12.5406V12.4725H120.857V18.8589ZM100.419 6.65224H99.8227V6.58117C99.8227 3.57685 98.738 1.00989 97.4689 1.00989H96.9397V17.0906C96.9397 17.8604 97.313 18.1636 97.9126 18.1636H98.3784V18.8589H93.0098V18.1636H93.5181C94.1196 18.1636 94.4957 17.8589 94.4957 17.0906V1.00989H94.0298C92.7608 1.00989 91.6793 3.41632 91.6793 6.58117V6.65224H91.0793V0.186869H100.419V6.65224H100.419ZM91.0571 14.3367C91.0571 17.6372 89.1535 18.9985 86.9291 18.9985C85.3152 18.9985 84.5772 18.4404 83.8009 17.8808L83.3823 18.8579H82.9165V12.4472H83.5146V12.636C83.5146 17.1373 85.67 18.1626 86.7529 18.1626C88.329 18.1626 89.1256 16.942 89.1256 15.1945C89.1256 13.055 87.8457 11.485 85.996 10.0194C84.3239 8.68294 82.7813 7.04685 82.7813 4.32433C82.7813 1.51036 84.4265 0.0467172 86.3976 0.0467172C88.038 0.0467172 88.8001 0.753937 89.2376 1.14954L89.6831 0.235574H90.1254V6.67609H89.5272V6.49071C89.5272 2.99785 88.5275 0.893094 86.5549 0.893094C85.3553 0.893094 84.6438 1.81551 84.6438 3.29754C84.6438 5.05143 85.6308 6.0464 87.4649 7.53887C89.4937 9.19634 91.0571 10.9438 91.0571 14.3367ZM111.65 16.3133C111.65 17.8813 111.083 18.9995 109.631 18.9995C108.172 18.9995 107.557 17.8669 107.455 15.5464L107.301 12.0704C107.217 10.2385 106.548 9.73209 105.547 9.73209H104.902V17.0901C104.902 17.8584 105.191 18.1631 105.79 18.1631H106.366V18.8584H100.999V18.1631H101.507C102.107 18.1631 102.483 17.8584 102.483 17.0901V1.96461C102.483 1.19427 102.107 0.891603 101.507 0.891603H100.999V0.185875H105.856C108.793 0.185875 110.626 1.77227 110.626 4.71844C110.626 7.80228 108.59 8.96474 106.788 9.33549V9.38172C108.265 9.54373 109.611 10.7067 109.696 12.472L109.897 16.5459C109.934 17.3639 110.028 17.6025 110.406 17.6025C110.848 17.6025 110.958 17.2511 110.958 16.034V15.3585H111.65V16.3133ZM108.074 4.76665C108.074 1.84533 106.978 1.00889 105.479 1.00889H104.901V8.8718H105.569C107.132 8.8723 108.074 7.75605 108.074 4.76665ZM213.751 17.7168C213.751 18.4205 213.258 18.9985 212.73 18.9985C212.208 18.9985 211.713 18.4205 211.713 17.7168C211.713 17.0195 212.207 16.4549 212.73 16.4549C213.257 16.4549 213.751 17.0195 213.751 17.7168ZM192.785 0.892597H192.31C191.757 0.892597 191.312 1.33343 191.312 2.24392V18.9304H190.444L184.901 4.2294H184.857V16.8023C184.857 17.7183 185.299 18.1621 185.855 18.1621H186.326V18.8593H182.593V18.1621H183.062C183.615 18.1621 184.06 17.7183 184.06 16.8023V2.05655C184.06 1.404 183.818 0.8921 183.191 0.8921H182.593V0.186869H185.967L190.47 12.2086H190.509V2.24392C190.509 1.32498 190.067 0.892597 189.517 0.892597H189.053V0.186869H192.786V0.892597H192.785ZM152.37 0.892597H151.886C151.283 0.892597 150.908 1.19228 150.908 1.9656V14.9873C150.908 17.9101 149.164 18.9985 146.934 18.9985C145.343 18.9985 143.74 17.6288 143.74 14.9873C143.74 13.5714 144.578 12.9601 145.25 12.9601C145.946 12.9601 146.448 13.4769 146.448 14.3561C146.448 15.4823 145.823 15.9574 145.008 16.0802C145.008 17.0458 145.71 18.1621 146.911 18.1621C148.068 18.1621 148.468 17.4881 148.468 15.4773V1.9656C148.468 1.19377 148.116 0.892597 147.513 0.892597H146.958V0.186869H152.371V0.892597H152.37ZM210.673 18.8593H197.102V18.1621H197.237C198.153 18.1621 198.436 17.9051 198.436 17.3689C198.436 17.2183 198.402 17.018 198.368 16.8023L197.947 14.3362H194.934L194.514 16.8023C194.474 17.0374 194.447 17.2049 194.447 17.3689C194.447 17.9469 194.66 18.1621 195.576 18.1621H195.666V18.8593H191.867V18.1621H192.067C192.852 18.1621 193.295 17.9697 193.494 16.8754L196.574 0H197.703L200.879 16.8028C201.069 17.8211 201.57 18.1626 201.996 18.1626H202.351C202.949 18.1626 203.324 17.8813 203.324 17.1144V1.94075C203.324 1.1724 202.949 0.892597 202.351 0.892597H201.866V0.186869H207.221V0.892597H206.714C206.114 0.892597 205.736 1.1724 205.736 1.94075V18.0428H207.044C209.439 18.0428 210.064 15.1945 210.064 12.5182V12.4472H210.673V18.8593H210.673ZM197.769 13.4725L196.437 5.20847H196.395L195.068 13.4725H197.769ZM182.503 16.3133C182.503 17.8813 181.94 18.9995 180.486 18.9995C179.032 18.9995 178.416 17.8669 178.311 15.5464L178.157 12.0704C178.072 10.2306 177.407 9.73209 176.406 9.73209H175.761V17.0901C175.761 17.8584 176.05 18.1631 176.652 18.1631H177.201V18.8584H171.856V18.1631H172.368C172.968 18.1631 173.339 17.8584 173.339 17.0901V1.96461C173.339 1.20123 172.975 0.891603 172.39 0.891603H171.455C170.902 0.891603 170.568 1.38015 170.568 2.24292V14.6836C170.568 17.1646 169.785 18.9995 167.242 18.9995C164.536 18.9995 162.959 17.2556 162.959 14.6836V1.96461C162.959 1.19278 162.605 0.891603 162.005 0.891603H161.513V0.185875H166.864V0.891603H166.376C165.772 0.891603 165.422 1.19278 165.422 1.96461V14.8471C165.422 16.9469 166.209 18.0666 167.554 18.0666C168.914 18.0666 169.747 17.1393 169.747 14.8471V2.24292C169.747 1.38015 169.437 0.891603 168.881 0.891603H168.328V0.185875H176.716C179.651 0.185875 181.487 1.77227 181.487 4.71844C181.487 7.80228 179.445 8.96474 177.645 9.33549V9.38172C179.122 9.54373 180.468 10.6997 180.556 12.472L180.756 16.5459C180.794 17.3639 180.888 17.6025 181.264 17.6025C181.706 17.6025 181.818 17.2511 181.818 16.034V15.3585H182.503V16.3133ZM178.934 4.76665C178.934 1.84533 177.836 1.00889 176.339 1.00889H175.76V8.8718H176.428C177.991 8.8723 178.934 7.75605 178.934 4.76665ZM161.559 9.47863C161.559 14.785 159.905 18.9995 156.876 18.9995C153.923 18.9995 152.263 14.785 152.263 9.47863C152.263 4.17423 153.852 0.0472142 156.876 0.0472142C159.869 0.0472142 161.559 4.17423 161.559 9.47863ZM158.809 13.9168V5.09168C158.809 1.86422 158.126 0.891603 156.875 0.891603C155.625 0.891603 154.991 1.81601 154.991 5.1379V13.8904C154.991 17.0021 155.556 18.1631 156.875 18.1631C158.171 18.1631 158.809 16.9261 158.809 13.9168Z" fill="#A3A3A3"/>
</g>
<defs>
<clipPath id="clip0_75_92">
<rect width="213" height="19" fill="white" transform="translate(0.980469)"/>
</clipPath>
</defs>
</svg>
