<svg width="175" height="54" viewBox="0 0 175 54" fill="none" xmlns="http://www.w3.org/2000/svg">
<path d="M83.5654 7C83.5654 7 81.8779 7.03551 80.8999 7.0189C80.8593 7.43139 80.388 11.1693 79.9826 14.1761C79.5164 16.9584 75.8221 37.5979 74.5704 43.7762C74.241 45.6418 73.2224 50.912 73.1261 51.4386C71.9504 51.5797 70.5619 51.7101 69.6548 51.7452C69.5332 51.7493 69.3305 51.789 69.2342 51.789V52.8591C69.3457 52.8545 69.9335 52.8998 70.3491 52.882C71.3474 52.8499 74.1802 52.7149 74.7174 52.7149C76.7545 52.7149 78.1127 52.8504 79.9978 52.8881C80.0232 52.8881 80.5401 52.8861 80.7681 52.857V51.7758C80.611 51.7758 80.4032 51.7707 80.2816 51.7707C79.7495 51.7875 77.7883 51.6362 76.7951 51.5002C76.9116 50.7933 78.6448 40.1041 79.4759 35.8296C81.057 27.9176 82.1516 22.3102 82.1516 22.3102L82.4455 23.0064L94.9372 52.9288L97.2176 52.9406C97.2176 52.9406 98.52 49.7004 100.066 46.066C100.106 45.9799 100.218 45.7197 100.375 45.3479C101.996 41.574 110.034 22.4207 110.034 22.4207C110.034 22.4207 110.11 22.7655 110.236 23.3822C111.002 27.1363 113.591 40.6654 114.143 43.9295C114.402 45.6087 114.645 47.3118 114.787 48.3095C114.995 49.7223 115.132 51.105 115.132 51.5023C114.878 51.514 112.334 51.7452 111.371 51.787C111.235 51.7824 110.976 51.7951 110.961 51.7977V52.8861C111.306 52.8861 111.64 52.9013 111.975 52.8937C113.941 52.856 115.831 52.7012 117.797 52.7022C120.007 52.7042 123.589 52.8983 125.885 52.913C126.144 52.913 126.605 52.8901 126.605 52.8901V51.7905C126.473 51.7895 125.895 51.761 125.682 51.7442C124.654 51.6632 122.921 51.5018 122.48 51.4722C122.48 51.4722 122.196 49.8919 121.821 48.0665C120.321 40.7647 116.049 18.5699 115.395 13.1086C115.172 11.2315 114.539 7.01686 114.539 7.01686L111.969 7.01606C111.969 7.01606 110.657 10.8008 109.461 14.2517C108.645 16.6098 107.535 19.5209 106.689 21.7532C102.513 32.7826 97.8308 43.0603 97.8308 43.0603C97.8308 43.0603 87.878 19.1934 87.3509 17.8132C86.8188 16.4325 83.5654 7.00027 83.5654 7.00027V7ZM12.0208 7.00995L12.0426 9.53257L12 15.6758L12.6622 15.6569L12.7315 10.1931C12.7315 10.193 16.3625 10.1616 16.8321 10.1622L23.6029 10.1651L27.9727 10.187L27.9798 48.1845L27.9808 51.4664L27.8886 51.4791C27.3068 51.5244 25.0685 51.662 24.1593 51.6951C23.9556 51.7017 23.8254 51.7068 23.8031 51.7042L23.8071 52.816C23.9713 52.8242 24.4137 52.8349 24.472 52.8328C26.6227 52.8048 29.5331 52.6169 31.5966 52.6189C33.6931 52.62 36.6434 52.8247 38.4693 52.8461C38.6502 52.8471 38.8646 52.8293 39.0384 52.8293V51.7867L38.8119 51.7888C38.2301 51.7862 35.0127 51.5779 34.6797 51.5341C34.666 51.0243 34.6062 48.5634 34.6062 48.5089L34.622 10.1829L37.9488 10.1741L46.6292 10.18L49.5263 10.2198C49.5456 10.4279 49.692 13.1955 49.6895 13.2708C49.6829 13.472 49.7979 15.5337 49.7934 16.0409L50.4801 16.0491L50.4309 9.8356L50.4623 7.04066C47.9113 7.11043 41.41 7.19824 31.3204 7.19289C22.6674 7.18754 14.3287 7.11461 12.0209 7.00984L12.0208 7.00995ZM52.433 7.01989L52.4437 8.10817C52.7862 8.12686 54.8001 8.30593 55.2896 8.32997C55.6803 8.37805 56.2256 8.42725 56.6158 8.46524C56.6158 8.81365 56.6219 11.2179 56.6275 12.1668C56.6929 21.1605 56.6371 41.0375 56.6108 48.0705C56.6026 50.1041 56.5971 51.4146 56.5971 51.4146C56.3503 51.4889 55.7949 51.5169 55.1944 51.5577C54.681 51.5928 52.8415 51.7481 52.431 51.7568V52.8452C52.6013 52.8452 52.9134 52.8813 53.0913 52.8798C55.1736 52.8803 58.0687 52.6206 60.2017 52.6221C62.3574 52.6236 65.2358 52.8875 66.9335 52.888L66.9284 52.889C67.0754 52.891 67.4251 52.8523 67.572 52.8528V51.765H67.4251C67.3592 51.7507 65.17 51.658 64.6379 51.6025C64.3591 51.5847 63.1531 51.4797 63.1378 51.4395C63.1328 51.4181 63.1277 51.0927 63.1277 50.5503C63.1328 50.0354 63.1328 49.1792 63.1328 48.2513C63.1378 41.1572 63.1581 20.088 63.1632 12.0344C63.1632 10.4779 63.1683 9.21325 63.1683 8.53486C63.6395 8.50491 65.5652 8.30257 66.2544 8.24145C66.2848 8.23845 67.197 8.18568 67.572 8.16287V7.02886C65.2156 7.02799 62.0975 7.21307 59.7978 7.2119C57.3927 7.21042 54.4297 7.0208 52.433 7.01991V7.01989ZM161.488 7.05074C161.488 7.05074 161.24 7.05181 160.779 7.05273C159.203 7.05955 155.169 7.0893 150.451 7.11537C147.552 7.13228 145.287 7.15566 142.302 7.15418C140.209 7.17883 137.28 7.25991 135.471 7.25665C132.582 7.25192 130.226 7.073 128.944 7.06765C128.336 7.06495 127.996 7.08797 127.829 7.07758C127.839 7.09301 127.839 8.1519 127.839 8.1519C127.951 8.17146 128.174 8.19641 128.381 8.19168C129.106 8.24067 130.464 8.35094 131.153 8.44236C131.29 8.46757 131.523 8.50622 132.172 8.57865C132.167 8.8196 132.202 11.5462 132.197 13.1844C132.197 14.7021 132.182 48.5655 132.182 48.5655C132.182 48.6205 132.106 51.2887 132.106 51.5042C130.961 51.7013 128.761 51.8225 128.011 51.8255H127.789V52.9027C127.895 52.9022 128.386 52.9216 128.665 52.9216C129.876 52.9211 132.998 52.7275 136.186 52.7255C138.42 52.7234 140.878 52.8075 143.366 52.8431C146.432 52.8859 149.534 52.8879 152.321 52.9277C156.917 52.9929 160.642 52.9985 161.853 53C161.853 53 162 44.432 162 43.7414L161.336 43.7491C161.336 44.4779 161.068 47.1919 161.057 47.3106C160.971 48.3322 160.88 49.4028 160.809 49.9304C160.809 49.9304 160.485 49.9564 160.328 49.9534C159.573 49.9391 157.16 50.0272 157.11 50.0272L146.351 50.0318L138.795 49.9045L138.745 47.798L138.74 31.4433C140.088 31.3975 142.145 31.3257 143.397 31.3282C144.461 31.3302 146.969 31.2702 148.373 31.2732C151.784 31.2793 154.814 31.3012 155.057 31.3083C155.62 31.3246 156.664 31.3593 157.059 31.3837C157.074 31.5279 157.12 31.753 157.125 31.8166C157.328 33.069 157.439 33.9363 157.576 35.1658C157.596 35.2763 157.606 35.3833 157.622 35.4841H158.397C158.397 35.4841 158.417 35.0446 158.407 34.7711C158.392 33.807 158.331 31.8839 158.331 29.7524C158.326 28.275 158.412 26.0162 158.422 24.9299C158.427 24.636 158.392 24.4272 158.392 24.3431L157.682 24.3569C157.677 24.5917 157.622 24.938 157.622 24.938C157.561 25.7478 157.333 26.7827 157.15 27.8746C157.1 28.0106 157.064 28.2006 157.064 28.2006C156.983 28.2281 154.758 28.3473 154.561 28.3457C154.485 28.3452 151.247 28.4364 151.191 28.4364L138.745 28.3895L138.765 10.3552C138.765 10.3552 140.346 10.2991 140.787 10.3015C142.581 10.3018 145.5 10.2854 148.475 10.2896C152.828 10.2949 157.054 10.3221 157.064 10.3283C157.089 10.3408 158.377 10.3588 158.402 10.3811C158.432 10.4054 160.044 10.4538 160.439 10.4666C160.439 10.4666 160.47 10.6009 160.49 10.77C160.667 12.6715 160.814 14.9297 160.88 15.7298L160.885 16.0502L161.549 16.0482C161.549 14.8773 161.488 11.2915 161.478 9.01013C161.473 8.27739 161.488 7.6807 161.488 7.3412V7.05074Z" fill="#2A2A2A"/>
</svg>
