<svg width="17" height="14" viewBox="0 0 17 14" fill="none" xmlns="http://www.w3.org/2000/svg">
<path d="M16.2831 2.11997C15.7255 2.35997 15.0881 2.51998 14.4508 2.59998C15.0881 2.19998 15.6458 1.55998 15.8848 0.839981C15.2475 1.23998 14.6101 1.47998 13.8134 1.63998C13.2558 0.99998 12.3794 0.599978 11.5031 0.599977C9.75036 0.599977 8.31634 2.03998 8.31634 3.79998C8.31634 4.03998 8.31634 4.27997 8.39601 4.51997C5.76697 4.35997 3.37692 3.07997 1.78356 1.15997C1.54456 1.63997 1.38522 2.19997 1.38522 2.75997C1.38522 3.87997 1.9429 4.83998 2.81925 5.39998C2.26157 5.39998 1.78356 5.23998 1.38522 4.99998C1.38522 6.51998 2.50057 7.87997 3.93459 8.11997C3.69559 8.19997 3.37693 8.19998 3.05825 8.19998C2.81925 8.19998 2.65991 8.19997 2.42091 8.11997C2.81925 9.39997 4.01427 10.36 5.44829 10.36C4.33294 11.24 2.97858 11.72 1.46489 11.72C1.22589 11.72 0.986883 11.72 0.668211 11.64C2.10224 12.52 3.77526 13.08 5.60763 13.08C11.5031 13.08 14.6898 8.19998 14.6898 3.95998L14.6898 3.55998C15.3271 3.31998 15.8848 2.75997 16.2831 2.11997Z" fill="#868686"/>
</svg>
