<svg width="62" height="62" viewBox="0 0 62 62" fill="none" xmlns="http://www.w3.org/2000/svg">
<g clip-path="url(#clip0_179_303)">
<path d="M54.3435 36.0073H48.531C48.0293 36.0073 47.6228 36.414 47.6228 36.9155C47.6228 37.4171 48.0293 37.8237 48.531 37.8237H54.3435C54.8452 37.8237 55.2517 37.4171 55.2517 36.9155C55.2517 36.414 54.8452 36.0073 54.3435 36.0073Z" fill="#00CCAA"/>
<path d="M54.3435 39.7407H48.531C48.0293 39.7407 47.6228 40.1474 47.6228 40.6489C47.6228 41.1505 48.0293 41.5571 48.531 41.5571H54.3435C54.8452 41.5571 55.2517 41.1505 55.2517 40.6489C55.2517 40.1474 54.8452 39.7407 54.3435 39.7407Z" fill="#00CCAA"/>
<path d="M54.3435 32.2744H48.531C48.0293 32.2744 47.6228 32.681 47.6228 33.1826C47.6228 33.6842 48.0293 34.0908 48.531 34.0908H54.3435C54.8452 34.0908 55.2517 33.6842 55.2517 33.1826C55.2517 32.681 54.8452 32.2744 54.3435 32.2744Z" fill="#00CCAA"/>
<path d="M41.0576 31.0933C40.2476 31.0933 39.5886 31.7523 39.5886 32.5622V33.4229H37.4576C36.6477 33.4229 35.9887 34.0819 35.9887 34.8917V35.6684H33.8519C33.042 35.6684 32.3831 36.3274 32.3831 37.1373V41.3906C32.3831 42.1339 32.9877 42.7385 33.7308 42.7385H43.6631C44.4062 42.7385 45.0108 42.1339 45.0108 41.3906V32.5622C45.0108 31.7523 44.352 31.0933 43.542 31.0933H41.0576ZM35.9887 40.9221H34.1995V37.4848H35.9887V40.9221ZM39.5886 40.9221H37.8052C37.8052 39.8169 37.8052 36.366 37.8052 35.2393H39.5886V40.9221ZM43.1943 40.9221H41.4108C41.4108 35.0479 41.4049 33.1804 41.4049 32.9097H43.1942V40.9221H43.1943Z" fill="#00CCAA"/>
<path d="M2.23357 57.7095H17.5787C18.0804 57.7095 18.4869 57.3029 18.4869 56.8013C18.4869 56.2997 18.0804 55.8931 17.5787 55.8931H8.24669V43.6921C8.24669 43.1905 7.84018 42.7839 7.33849 42.7839C6.83681 42.7839 6.43029 43.1905 6.43029 43.6921V55.8931H2.23357C2.00361 55.8931 1.8164 55.706 1.8164 55.4759V42.621C1.8164 39.747 3.85174 37.863 5.22433 37.2947L11.1298 34.9884L14.6445 38.503C15.9332 39.792 17.7301 40.5972 19.6979 40.5971C21.5948 40.597 23.4091 39.8447 24.7513 38.5031L28.2165 35.0378V47.0576C28.2165 48.3428 29.2621 49.3883 30.5471 49.3883H31.1491V55.8933H21.817C21.3153 55.8933 20.9088 56.3 20.9088 56.8015C20.9088 57.3031 21.3153 57.7097 21.817 57.7097H37.1622C38.3938 57.7097 39.3958 56.7078 39.3958 55.4762V49.3883H43.1654V52.1734C42.042 52.5532 41.2306 53.6167 41.2306 54.8667C41.2306 56.4344 42.5059 57.7097 44.0736 57.7097C45.6413 57.7097 46.9166 56.4344 46.9166 54.8667C46.9166 53.6167 46.1053 52.5532 44.9818 52.1734V49.3883H57.6C58.885 49.3883 59.9305 48.3428 59.9305 47.0576V39.035C59.9305 38.5334 59.524 38.1268 59.0223 38.1268C58.5206 38.1268 58.1141 38.5334 58.1141 39.035V47.0576C58.1141 47.3412 57.8834 47.5719 57.6 47.5719H38.4876H30.5472C30.2638 47.5719 30.0331 47.3412 30.0331 47.0576C30.0331 46.4855 30.0331 26.3963 30.0331 25.8242H58.1141V34.7967C58.1141 35.2983 58.5206 35.7049 59.0223 35.7049C59.524 35.7049 59.9305 35.2983 59.9305 34.7967V25.8242H59.9311C61.0719 25.8242 62 24.896 62 23.7552V22.0047C62 20.8638 61.0719 19.9358 59.9311 19.9358H31.3021C31.1161 18.9455 30.5558 18.0626 29.7599 17.4847C29.8467 17.243 29.8965 16.9838 29.8965 16.7125V10.8462C29.8965 8.92489 28.2318 7.51451 26.5145 7.64639C26.3007 7.66298 26.0604 7.55351 26.0133 7.31302C25.6155 5.27925 24.3377 4.29053 22.107 4.29053H14.3994C11.0743 4.29053 8.36924 6.99563 8.36924 10.3207V15.942C8.36924 16.7296 8.6681 17.4486 9.15804 17.9921C8.45195 18.7078 8.02413 19.6709 8.02413 20.6627C8.02413 22.5143 9.46937 24.1621 11.5096 24.392C11.8014 26.478 12.92 28.494 14.7188 29.8359V31.6365C13.6971 32.0357 5.63701 35.1835 4.55492 35.6061C4.54984 35.6082 4.54475 35.6102 4.53967 35.6123C2.35333 36.5121 0 39.0892 0 42.621V55.4761C0 56.7076 1.00193 57.7095 2.23357 57.7095ZM44.0736 53.84C44.6397 53.84 45.1002 54.3005 45.1002 54.8666C45.1002 55.4327 44.6397 55.8932 44.0736 55.8932C43.5075 55.8932 43.047 55.4327 43.047 54.8666C43.047 54.3005 43.5075 53.84 44.0736 53.84ZM32.9655 49.3882H37.5794V55.4761C37.5794 55.706 37.3922 55.8932 37.1622 55.8932H32.9656V49.3882H32.9655ZM17.327 38.2238C18.4105 37.1328 18.017 37.5291 19.1039 36.4349C19.1051 36.4336 19.1061 36.4323 19.1072 36.4311C19.1872 36.35 19.263 36.2481 19.3094 36.1731H20.0708C20.1195 36.2526 20.1976 36.3554 20.2766 36.4349L22.0585 38.2287C20.57 38.9664 18.8139 38.9645 17.327 38.2238ZM16.534 31.8534C16.5348 31.8304 16.5353 31.8073 16.5353 31.7839V30.8514C18.4088 31.599 20.7446 31.7203 22.8553 30.8657L22.8561 31.7908C22.8561 31.8081 22.8565 31.8254 22.8571 31.8428C21.8036 32.8888 21.3477 33.3414 20.3251 34.3567H19.0555C18.4162 33.7222 17.048 32.3638 16.534 31.8534ZM23.5414 37.1442C23.367 36.9688 22.0313 35.624 21.8306 35.4218L23.9365 33.3309C25.2168 33.8268 25.1468 33.7996 26.4004 34.2851L23.5414 37.1442ZM28.2167 33.0406L24.6725 31.6681L24.6709 29.8453C26.0372 28.8266 27.0752 27.391 27.5946 25.7284C27.7909 25.7904 27.9995 25.8242 28.2161 25.8242H28.2167V33.0406ZM59.9311 21.7519C60.0703 21.7519 60.1836 21.8653 60.1836 22.0044V23.7549C60.1836 23.8942 60.0703 24.0075 59.9311 24.0075C58.405 24.0075 29.772 24.0075 28.2161 24.0075C28.0769 24.0075 27.9636 23.8942 27.9636 23.7549C27.9636 22.7568 27.9636 22.9727 27.9636 22.0044C27.9636 21.8652 28.0769 21.7518 28.2161 21.7518C30.0882 21.7519 58.0831 21.7519 59.9311 21.7519ZM28.493 18.8266C28.9188 19.0629 29.2531 19.4657 29.4259 19.9354H28.2161C28.1337 19.9354 28.019 19.9439 27.9636 19.9507V18.9781C28.1435 18.9496 28.3482 18.888 28.493 18.8266ZM11.4323 22.5393C10.5276 22.3237 9.84052 21.5724 9.84052 20.6626C9.84052 19.9981 10.2416 19.3293 10.8439 18.9492C10.987 18.9772 11.1336 18.9957 11.2829 19.003C11.3326 19.0055 11.3824 19.0068 11.4322 19.0069V22.5393H11.4323ZM11.4341 17.1904C10.7611 17.1904 10.1856 16.6416 10.1856 15.9419V10.3207C10.1856 7.99719 12.0759 6.10693 14.3994 6.10693H22.107C23.7896 6.10693 24.0643 6.81108 24.2306 7.66164C24.4484 8.77497 25.4916 9.5467 26.6537 9.45746C27.3265 9.40611 28.08 9.99499 28.08 10.8462V16.7122C28.08 16.9735 27.8544 17.1904 27.6018 17.1904C26.6346 17.1904 25.865 16.3915 25.865 15.4536C25.865 14.3671 24.407 14.0094 23.8993 14.9598C23.1638 16.3356 21.7393 17.1902 20.182 17.1902C18.9131 17.1904 12.7051 17.1904 11.4341 17.1904ZM13.2487 23.2997V19.0068H20.182C21.8106 19.0068 23.3687 18.3486 24.5002 17.1858C24.8718 17.8486 25.4505 18.3796 26.1472 18.6936V23.2996C26.1472 26.8388 23.2549 29.6438 19.8029 29.6438C15.8468 29.6439 13.2487 26.5696 13.2487 23.2997ZM15.4241 33.3111C16.8045 34.6817 16.2792 34.1601 17.55 35.4219C16.628 36.3501 16.9619 36.0141 15.8469 37.1366L12.9772 34.2669L15.4241 33.3111Z" fill="#00CCAA"/>
</g>
<defs>
<clipPath id="clip0_179_303">
<rect width="62" height="62" fill="white"/>
</clipPath>
</defs>
</svg>
