<svg width="310" height="212" viewBox="0 0 310 212" fill="none" xmlns="http://www.w3.org/2000/svg">
<path fill-rule="evenodd" clip-rule="evenodd" d="M211.053 95.8351L205.394 105.446L199.544 95.8351H189.266L200.648 114.56V132.149H209.622V114.347L221 95.8351H211.053V95.8351ZM141.18 150.466C138.974 150.466 137.321 152.407 137.321 154.732C137.321 157.101 139.014 159 141.18 159C143.344 159 145.074 157.145 145.074 154.732C145.074 152.363 143.344 150.466 141.18 150.466ZM207.246 136.243C204.333 136.243 202.208 137.536 200.634 140.25C199.766 137.58 197.761 136.243 194.611 136.243C191.738 136.243 189.731 137.623 188.079 140.636V136.93H181.347V146.454C180.807 140.713 176.294 136.242 170.54 136.242C164.401 136.242 159.714 141.328 159.714 147.62C159.714 148.809 159.885 149.953 160.198 151.034C159.06 152.319 157.96 152.878 156.51 152.878C153.633 152.878 151.904 150.725 151.904 147.534C151.904 144.085 153.713 142.061 156.35 142.061C157.727 142.061 158.908 142.665 160.209 143.915V137.58C158.672 136.586 157.139 136.243 155.29 136.243C149.382 136.243 145.172 140.897 145.172 147.578C145.172 154.646 149.463 159 155.21 159C157.019 159 158.636 158.482 160.208 157.532V151.062C161.553 155.645 165.545 159 170.54 159C176.294 159 180.808 154.529 181.347 148.787V158.181H187.999V149.172C187.999 144.56 188.236 141.715 191.462 141.715C193.747 141.715 194.218 143.31 194.218 146.584V158.18H200.83V149.171C200.83 144.515 201.067 141.715 204.253 141.715C206.498 141.715 207.049 143.222 207.049 146.583V158.18H213.818V146.028V145.165C213.818 142.705 213.738 140.635 212.521 138.828C211.34 137.105 209.567 136.243 207.246 136.243V136.243ZM170.539 152.709C168.019 152.709 166.482 150.767 166.482 147.622C166.482 144.473 168.019 142.493 170.539 142.493C173.056 142.493 174.593 144.473 174.593 147.622C174.593 150.767 173.057 152.709 170.539 152.709ZM142.319 120.063V132.149H156.952C157.544 132.149 164.535 131.551 168.632 125.136L166.183 132.149H175.157L177.561 125.741H188.62L190.763 132.149H199.999L187.644 95.8351H178.867L171.326 117.433C171.492 116.224 171.583 114.913 171.583 113.492C171.583 97.8283 158.775 95.8351 157.605 95.8351H142.319V107.99C139.915 100.53 133.165 95.1583 125.219 95.1583C119.393 95.1583 114.212 98.045 110.914 102.523V95.8351H89V104.236H95.3062V132.149H104.28V104.023H109.915C108.178 106.925 107.176 110.351 107.176 114.028C107.176 124.447 115.256 132.899 125.219 132.899C133.165 132.899 139.915 127.527 142.319 120.063ZM183.288 108.294L186.54 118.478H180.036L183.288 108.294ZM151.555 103.881C151.555 103.881 162.609 101.389 162.609 113.634C162.609 126.455 151.555 123.817 151.555 123.817V103.881V103.881ZM125.136 123.998C119.974 123.998 115.789 119.615 115.789 114.207C115.789 108.798 119.974 104.414 125.136 104.414C130.299 104.414 134.484 108.798 134.484 114.207C134.484 119.616 130.299 123.998 125.136 123.998V123.998ZM165.29 72.4511C167.855 74.7293 171.669 75.2626 173.958 76.0231C176.178 76.7802 177.428 77.8447 176.731 80.5809C176.179 82.7838 173.958 83.6161 170.976 83.087C167.369 82.4025 164.592 79.0626 164.592 79.0626L160.502 87.2642C160.502 87.2642 166.467 92.4263 173.89 92.4263C180.48 92.4263 183.458 88.1732 183.458 88.1732L182.419 91.9697H192.13L194.418 85.138H206.349L208.637 91.9697H218.693L205.655 53.0838H195.801L187.134 77.768C187.134 77.768 186.926 75.1099 185.194 72.2259C183.669 69.7191 181.587 68.6532 177.077 67.2876C172.57 65.9951 171.875 64.7054 172.224 62.9592C172.57 61.2882 173.888 60.4516 175.483 60.4516C179.09 60.5283 182.349 63.1871 182.349 63.1871L185.955 55.7419C185.955 55.7419 181.793 52.3267 175.275 52.0214C172.987 51.9454 169.518 51.9454 166.534 54.3003C163.69 56.5784 162.513 60.2989 162.305 63.4904C162.169 66.7564 162.653 70.1757 165.29 72.4511V72.4511ZM200.659 67.1363L203.918 77.0081H197.332L200.659 67.1363Z" fill="#A3A3A3"/>
<path fill-rule="evenodd" clip-rule="evenodd" d="M98.9034 74.1514L99.0389 74.4412L101.091 75.7136L102.322 77.587H90.5504C90.7845 78.6209 91.0768 79.6292 91.4492 80.589H104.186L104.781 83.606L105.329 84.0246H93.1771C93.851 85.0987 94.6279 86.1042 95.4966 87.0266H108.331L109.174 90.4473H107.253V90.4623H99.8972C102.125 91.6977 104.616 92.446 107.253 92.5592V92.6475H141.873C143.235 92.8782 144.725 93 146.357 93C157.523 93 162 87.9473 162 76.2334V53.1987H152.449V71.7902C152.449 80.0835 152.205 84.0909 146.357 84.0909C141.394 84.0909 140.265 81.1102 140.265 74.2283V53.1987H131.967V53.1766H110.285C109.512 53.0618 108.732 53.0028 107.951 53C105.262 53 102.72 53.6715 100.431 54.8406H109.141L111.478 54.6548L100.43 54.8406L99.7795 56.9597L99.3993 58.2727H95.7767C94.8771 59.1911 94.0709 60.1972 93.37 61.2761H98.2055L96.4733 62.8483L96.335 64.7111H91.5733C91.1809 65.6866 90.861 66.69 90.6164 67.713H96.1172L96.091 68.0805L97.511 71.1494H90.0724C90.0319 71.692 90 72.2388 90 72.7914C90 73.2535 90.0319 73.7007 90.0617 74.1521H98.9034V74.1514ZM103.572 76.7326L104.177 75.6246L103.952 74.5145L104.05 74.0852H116.68V74.1257H130.752C130.752 75.6396 130.77 77.0587 130.839 78.3931H125.164C125.241 78.1025 125.325 77.8142 125.391 77.5201H110.657L110.27 77.179L106.997 76.897L106.073 77.5201H104.086L103.572 76.7326ZM115.446 80.5242H116.68V80.6303H131.018C131.183 82.0487 131.439 83.3653 131.851 84.5829H122.33C122.472 84.3743 122.63 84.1756 122.764 83.9598H113.235L115.446 80.5242ZM110.839 90.3825L111.968 86.9611H120.445C120.49 86.9134 120.526 86.8622 120.569 86.8144H132.859C133.136 87.2944 133.45 87.76 133.805 88.2079C134.464 89.0468 135.246 89.7801 136.125 90.3825H110.839ZM110.397 57.1071L113.296 55.1596H130.751V58.9143H120.791C120.58 58.6793 120.382 58.4343 120.164 58.2065H110.591L110.397 57.1071ZM114.721 62.5001L113.21 61.2092H122.57C122.567 61.1985 122.555 61.1914 122.548 61.18H130.751V65.4587H124.659C124.565 65.1874 124.477 64.9118 124.367 64.6448H113.819L114.85 63.4892L114.721 62.5001ZM107.476 71.175L109.323 71.2626L109.882 69.0524L111.135 67.6482H116.679V67.696H130.751V71.8906H125.919C125.904 71.6216 125.887 71.3527 125.868 71.0839H106.602L107.476 71.175Z" fill="#A3A3A3"/>
</svg>
