<svg width="138" height="45" viewBox="0 0 138 45" fill="none" xmlns="http://www.w3.org/2000/svg">
<path d="M59.4683 43.762H48.2748L55.2706 0.768238H66.4653L59.4683 43.762ZM38.8582 0.768238L28.1868 30.3397L26.924 23.9718L26.9252 23.9741L23.1587 4.63933C23.1587 4.63933 22.7033 0.768238 17.8489 0.768238H0.207011L0 1.49622C0 1.49622 5.39492 2.61868 11.7087 6.41042L21.4336 43.7632H33.0964L50.905 0.768238H38.8582ZM126.901 43.762H137.179L128.218 0.767088H119.22C115.064 0.767088 114.052 3.97115 114.052 3.97115L97.3581 43.762H109.027L111.36 37.3757H125.59L126.901 43.762ZM114.584 28.5536L120.465 12.4643L123.774 28.5536H114.584ZM98.2333 11.1073L99.8308 1.87459C99.8308 1.87459 94.9016 0 89.7632 0C84.2084 0 71.0172 2.42777 71.0172 14.2331C71.0172 25.3404 86.4993 25.4784 86.4993 31.3126C86.4993 37.1469 72.6123 36.1015 68.0294 32.4224L66.3652 42.076C66.3652 42.076 71.3634 44.5038 78.9998 44.5038C86.6384 44.5038 98.162 40.5487 98.162 29.7842C98.162 18.6056 82.5408 17.5648 82.5408 12.7047C82.5419 7.8434 93.4433 8.46787 98.2333 11.1073Z" fill="#8F8F8F"/>
</svg>
