<svg width="17" height="10" viewBox="0 0 17 10" fill="none" xmlns="http://www.w3.org/2000/svg">
<path d="M16.6507 8.89227C16.6507 8.82585 16.5846 8.82585 16.5846 8.75943C16.32 8.22809 15.7247 7.56391 14.931 6.8333C14.5341 6.50121 14.3357 6.23553 14.2034 6.1027C14.005 5.83702 14.005 5.63778 14.0711 5.3721C14.1373 5.17285 14.4018 4.84075 14.8648 4.24298C15.1294 3.91089 15.2617 3.71164 15.4601 3.51239C16.4523 2.18402 16.9153 1.32058 16.783 0.922066L16.7168 0.855654C16.6507 0.789235 16.5845 0.722819 16.4523 0.722819C16.32 0.656401 16.1216 0.656401 15.9231 0.722819L13.4097 0.722818C13.3436 0.722818 13.3436 0.722818 13.2113 0.722818C13.1451 0.722818 13.079 0.722818 13.079 0.722818L13.0129 0.722818L12.9467 0.722818L12.8806 0.789231C12.8144 0.855649 12.8144 0.855647 12.8144 0.922065C12.5498 1.65267 12.2191 2.25043 11.8884 2.91462C11.69 3.24671 11.4916 3.5788 11.2931 3.84448C11.0947 4.11015 10.9624 4.3094 10.8301 4.44224C10.6978 4.57508 10.5656 4.64149 10.4994 4.77433C10.4333 4.84075 10.301 4.90717 10.301 4.84075C10.2349 4.84075 10.1687 4.84075 10.1687 4.77433C10.1026 4.70791 10.0364 4.64149 9.97028 4.57507C9.90414 4.50866 9.90413 4.37582 9.83799 4.24298C9.83799 4.11015 9.83799 3.97731 9.83799 3.91089C9.83799 3.84447 9.83799 3.64522 9.83799 3.51239C9.83799 3.31313 9.83799 3.18029 9.83799 3.11387C9.83799 2.91462 9.83799 2.64895 9.83799 2.38328C9.83799 2.1176 9.83799 1.91834 9.83799 1.78551C9.83799 1.65267 9.83799 1.45342 9.83799 1.32058C9.83799 1.12132 9.83799 0.988483 9.83799 0.922065C9.83799 0.855646 9.77186 0.722814 9.77186 0.656395C9.70572 0.589977 9.63956 0.523557 9.57342 0.457138C9.50728 0.39072 9.375 0.390722 9.30885 0.324304C8.97814 0.257885 8.58129 0.191469 8.11829 0.191469C7.06001 0.191468 6.33243 0.257889 6.06786 0.390725C5.93558 0.457144 5.80329 0.523558 5.73715 0.656395C5.60486 0.789231 5.60486 0.855652 5.671 0.855652C6.00172 0.92207 6.26629 1.0549 6.39858 1.25416L6.46472 1.387C6.53087 1.45342 6.53085 1.58625 6.597 1.7855C6.66314 1.98476 6.66314 2.18401 6.66314 2.44969C6.66314 2.8482 6.66314 3.24671 6.66314 3.51239C6.66314 3.84448 6.597 4.04373 6.597 4.24298C6.597 4.44224 6.53086 4.57508 6.46472 4.6415C6.39858 4.77433 6.39857 4.84075 6.33243 4.84075C6.33243 4.84075 6.33242 4.90716 6.26628 4.90716C6.20014 4.90716 6.134 4.97359 6.00171 4.97359C5.93557 4.97359 5.80329 4.90717 5.73715 4.84075C5.60486 4.77433 5.47258 4.6415 5.40643 4.50866C5.27415 4.37582 5.14186 4.17656 5.00957 3.91089C4.87729 3.64522 4.67885 3.37955 4.54657 2.98104L4.41429 2.71537C4.34815 2.58253 4.21587 2.31685 4.08358 1.98476C3.95129 1.65267 3.81901 1.387 3.68672 1.05491C3.62058 0.922072 3.55444 0.855647 3.4883 0.789229L3.42215 0.789229C3.42215 0.789229 3.356 0.722817 3.28986 0.722817C3.22372 0.722817 3.15758 0.656394 3.09144 0.656394L0.710296 0.656394C0.445725 0.656394 0.313442 0.72281 0.247299 0.789228L0.181152 0.855651C0.181152 0.855651 0.181152 0.922067 0.181152 0.988485C0.181152 1.0549 0.181156 1.12132 0.247299 1.25415C0.578013 2.05117 0.974867 2.8482 1.37172 3.64522C1.76858 4.37582 2.16544 5.04001 2.43001 5.50494C2.76072 5.96986 3.02529 6.43479 3.356 6.8333C3.68672 7.23181 3.88514 7.49748 3.95129 7.63032C4.08357 7.76316 4.14971 7.82957 4.21585 7.89599L4.41429 8.09525C4.54658 8.22808 4.745 8.42734 5.00957 8.6266C5.27414 8.82585 5.60485 9.0251 5.93557 9.22436C6.26628 9.42361 6.66315 9.55646 7.06 9.68929C7.523 9.82213 7.91985 9.88855 8.31671 9.82213L9.30885 9.82213C9.50728 9.82213 9.63957 9.75571 9.77186 9.62287L9.83799 9.55645C9.83799 9.49003 9.90413 9.49003 9.90413 9.42361C9.90413 9.3572 9.90413 9.29078 9.90413 9.15795C9.90413 8.89227 9.90414 8.69302 9.97028 8.49376C10.0364 8.29451 10.0364 8.16167 10.1026 8.02884C10.1687 7.896 10.2349 7.82957 10.301 7.76316C10.3671 7.69674 10.4333 7.63032 10.4333 7.63032L10.4994 7.63032C10.6317 7.5639 10.8301 7.63032 10.9624 7.76316C11.1608 7.89599 11.3593 8.09525 11.4916 8.29451C11.6238 8.49376 11.8223 8.69302 12.0869 8.95869C12.3514 9.22436 12.5498 9.42362 12.6821 9.49004L12.8806 9.62287C13.0128 9.68929 13.1451 9.75571 13.3436 9.82213C13.542 9.88855 13.6743 9.88854 13.8066 9.88854L16.0554 9.82213C16.2538 9.82213 16.4523 9.75571 16.5846 9.6893C16.7168 9.62288 16.783 9.55645 16.783 9.42362C16.783 9.3572 16.783 9.22437 16.783 9.15795C16.6507 9.02511 16.6507 8.95869 16.6507 8.89227Z" fill="#868686"/>
</svg>
